G04 #@! TF.GenerationSoftware,KiCad,Pcbnew,(5.0.0)*
G04 #@! TF.CreationDate,2019-09-28T10:14:36+02:00*
G04 #@! TF.ProjectId,opampprotopcb,6F70616D7070726F746F7063622E6B69,rev?*
G04 #@! TF.SameCoordinates,Original*
G04 #@! TF.FileFunction,Copper,L1,Top,Signal*
G04 #@! TF.FilePolarity,Positive*
%FSLAX46Y46*%
G04 Gerber Fmt 4.6, Leading zero omitted, Abs format (unit mm)*
G04 Created by KiCad (PCBNEW (5.0.0)) date 09/28/19 10:14:36*
%MOMM*%
%LPD*%
G01*
G04 APERTURE LIST*
G04 #@! TA.AperFunction,ComponentPad*
%ADD10R,3.600000X1.800000*%
G04 #@! TD*
G04 #@! TA.AperFunction,ComponentPad*
%ADD11O,3.600000X1.800000*%
G04 #@! TD*
G04 #@! TA.AperFunction,ComponentPad*
%ADD12R,1.700000X1.700000*%
G04 #@! TD*
G04 #@! TA.AperFunction,ComponentPad*
%ADD13O,1.700000X1.700000*%
G04 #@! TD*
G04 #@! TA.AperFunction,ComponentPad*
%ADD14O,2.400000X1.600000*%
G04 #@! TD*
G04 #@! TA.AperFunction,ComponentPad*
%ADD15R,2.400000X1.600000*%
G04 #@! TD*
G04 #@! TA.AperFunction,ComponentPad*
%ADD16R,1.998980X1.998980*%
G04 #@! TD*
G04 #@! TA.AperFunction,SMDPad,CuDef*
%ADD17R,2.301240X1.399540*%
G04 #@! TD*
G04 #@! TA.AperFunction,SMDPad,CuDef*
%ADD18R,1.399540X2.301240*%
G04 #@! TD*
G04 #@! TA.AperFunction,ComponentPad*
%ADD19C,1.600000*%
G04 #@! TD*
G04 #@! TA.AperFunction,ViaPad*
%ADD20C,2.000000*%
G04 #@! TD*
G04 #@! TA.AperFunction,Conductor*
%ADD21C,0.350000*%
G04 #@! TD*
G04 APERTURE END LIST*
D10*
G04 #@! TO.P,J1,1*
G04 #@! TO.N,VCC*
X91000000Y-51000000D03*
D11*
G04 #@! TO.P,J1,2*
G04 #@! TO.N,GND*
X91000000Y-54810000D03*
G04 #@! TO.P,J1,3*
G04 #@! TO.N,VEE*
X91000000Y-58620000D03*
G04 #@! TD*
D10*
G04 #@! TO.P,J2,1*
G04 #@! TO.N,INV_In1*
X20000000Y-50000000D03*
D11*
G04 #@! TO.P,J2,2*
G04 #@! TO.N,Net-(C3-Pad2)*
X20000000Y-46190000D03*
G04 #@! TO.P,J2,3*
G04 #@! TO.N,Net-(C4-Pad2)*
X20000000Y-42380000D03*
G04 #@! TD*
G04 #@! TO.P,J3,3*
G04 #@! TO.N,VEE*
X20000000Y-27690000D03*
G04 #@! TO.P,J3,2*
G04 #@! TO.N,GND*
X20000000Y-31500000D03*
D10*
G04 #@! TO.P,J3,1*
G04 #@! TO.N,N_INV_In*
X20000000Y-35310000D03*
G04 #@! TD*
D12*
G04 #@! TO.P,J4,1*
G04 #@! TO.N,Net-(C1-Pad2)*
X30500000Y-28500000D03*
D13*
G04 #@! TO.P,J4,2*
G04 #@! TO.N,N_INV_In*
X27960000Y-28500000D03*
G04 #@! TD*
D12*
G04 #@! TO.P,J5,1*
G04 #@! TO.N,Net-(C5-Pad2)*
X42000000Y-48460000D03*
D13*
G04 #@! TO.P,J5,2*
G04 #@! TO.N,GND*
X42000000Y-51000000D03*
G04 #@! TD*
D12*
G04 #@! TO.P,J6,1*
G04 #@! TO.N,Net-(C5-Pad2)*
X39000000Y-28500000D03*
D13*
G04 #@! TO.P,J6,2*
G04 #@! TO.N,Net-(C1-Pad2)*
X36460000Y-28500000D03*
G04 #@! TD*
G04 #@! TO.P,J7,2*
G04 #@! TO.N,Net-(C1-Pad2)*
X53960000Y-27000000D03*
D12*
G04 #@! TO.P,J7,1*
G04 #@! TO.N,OUTPUT*
X56500000Y-27000000D03*
G04 #@! TD*
G04 #@! TO.P,J8,1*
G04 #@! TO.N,GND*
X74500000Y-41000000D03*
D13*
G04 #@! TO.P,J8,2*
G04 #@! TO.N,Net-(J8-Pad2)*
X74500000Y-38460000D03*
G04 #@! TD*
D11*
G04 #@! TO.P,J9,3*
G04 #@! TO.N,VEE*
X91000000Y-44120000D03*
G04 #@! TO.P,J9,2*
G04 #@! TO.N,GND*
X91000000Y-40310000D03*
D10*
G04 #@! TO.P,J9,1*
G04 #@! TO.N,OUTPUT*
X91000000Y-36500000D03*
G04 #@! TD*
D13*
G04 #@! TO.P,J10,2*
G04 #@! TO.N,VEE*
X89500000Y-27460000D03*
D12*
G04 #@! TO.P,J10,1*
G04 #@! TO.N,VCC*
X89500000Y-30000000D03*
G04 #@! TD*
D14*
G04 #@! TO.P,U1,8*
G04 #@! TO.N,VCC*
X70500000Y-45920000D03*
G04 #@! TO.P,U1,4*
G04 #@! TO.N,VEE*
X62880000Y-53540000D03*
G04 #@! TO.P,U1,7*
G04 #@! TO.N,Net-(J8-Pad2)*
X70500000Y-48460000D03*
G04 #@! TO.P,U1,3*
G04 #@! TO.N,Net-(C5-Pad2)*
X62880000Y-51000000D03*
G04 #@! TO.P,U1,6*
G04 #@! TO.N,Net-(J8-Pad2)*
X70500000Y-51000000D03*
G04 #@! TO.P,U1,2*
G04 #@! TO.N,Net-(C2-Pad1)*
X62880000Y-48460000D03*
G04 #@! TO.P,U1,5*
G04 #@! TO.N,Net-(R10-Pad2)*
X70500000Y-53540000D03*
D15*
G04 #@! TO.P,U1,1*
G04 #@! TO.N,OUTPUT*
X62880000Y-45920000D03*
G04 #@! TD*
D16*
G04 #@! TO.P,R1,2*
G04 #@! TO.N,N_INV_In*
X26299140Y-32500000D03*
G04 #@! TO.P,R1,1*
G04 #@! TO.N,Net-(C1-Pad2)*
X36301660Y-32500000D03*
D17*
G04 #@! TO.P,R1,2*
G04 #@! TO.N,N_INV_In*
X29100760Y-32500000D03*
G04 #@! TO.P,R1,1*
G04 #@! TO.N,Net-(C1-Pad2)*
X33500040Y-32500000D03*
G04 #@! TD*
G04 #@! TO.P,R2,1*
G04 #@! TO.N,Net-(C2-Pad1)*
X34198340Y-58500000D03*
G04 #@! TO.P,R2,2*
G04 #@! TO.N,INV_In1*
X29799060Y-58500000D03*
D16*
G04 #@! TO.P,R2,1*
G04 #@! TO.N,Net-(C2-Pad1)*
X36999960Y-58500000D03*
G04 #@! TO.P,R2,2*
G04 #@! TO.N,INV_In1*
X26997440Y-58500000D03*
G04 #@! TD*
D17*
G04 #@! TO.P,R3,1*
G04 #@! TO.N,Net-(C2-Pad1)*
X34200940Y-50500000D03*
G04 #@! TO.P,R3,2*
G04 #@! TO.N,Net-(C3-Pad2)*
X29801660Y-50500000D03*
D16*
G04 #@! TO.P,R3,1*
G04 #@! TO.N,Net-(C2-Pad1)*
X37002560Y-50500000D03*
G04 #@! TO.P,R3,2*
G04 #@! TO.N,Net-(C3-Pad2)*
X27000040Y-50500000D03*
G04 #@! TD*
G04 #@! TO.P,R4,2*
G04 #@! TO.N,Net-(C4-Pad2)*
X26997440Y-42500000D03*
G04 #@! TO.P,R4,1*
G04 #@! TO.N,Net-(C2-Pad1)*
X36999960Y-42500000D03*
D17*
G04 #@! TO.P,R4,2*
G04 #@! TO.N,Net-(C4-Pad2)*
X29799060Y-42500000D03*
G04 #@! TO.P,R4,1*
G04 #@! TO.N,Net-(C2-Pad1)*
X34198340Y-42500000D03*
G04 #@! TD*
G04 #@! TO.P,R5,1*
G04 #@! TO.N,Net-(C5-Pad2)*
X41699640Y-37000000D03*
G04 #@! TO.P,R5,2*
G04 #@! TO.N,Net-(C1-Pad2)*
X37300360Y-37000000D03*
D16*
G04 #@! TO.P,R5,1*
G04 #@! TO.N,Net-(C5-Pad2)*
X44501260Y-37000000D03*
G04 #@! TO.P,R5,2*
G04 #@! TO.N,Net-(C1-Pad2)*
X34498740Y-37000000D03*
G04 #@! TD*
G04 #@! TO.P,R6,2*
G04 #@! TO.N,VCC*
X51500000Y-38998740D03*
G04 #@! TO.P,R6,1*
G04 #@! TO.N,Net-(C5-Pad2)*
X51500000Y-49001260D03*
D18*
G04 #@! TO.P,R6,2*
G04 #@! TO.N,VCC*
X51500000Y-41800360D03*
G04 #@! TO.P,R6,1*
G04 #@! TO.N,Net-(C5-Pad2)*
X51500000Y-46199640D03*
G04 #@! TD*
D16*
G04 #@! TO.P,R7,2*
G04 #@! TO.N,Net-(C5-Pad2)*
X48500000Y-52000040D03*
G04 #@! TO.P,R7,1*
G04 #@! TO.N,GND*
X48500000Y-62002560D03*
D18*
G04 #@! TO.P,R7,2*
G04 #@! TO.N,Net-(C5-Pad2)*
X48500000Y-54801660D03*
G04 #@! TO.P,R7,1*
G04 #@! TO.N,GND*
X48500000Y-59200940D03*
G04 #@! TD*
D17*
G04 #@! TO.P,R8,1*
G04 #@! TO.N,OUTPUT*
X58699640Y-35000000D03*
G04 #@! TO.P,R8,2*
G04 #@! TO.N,Net-(C1-Pad2)*
X54300360Y-35000000D03*
D16*
G04 #@! TO.P,R8,1*
G04 #@! TO.N,OUTPUT*
X61501260Y-35000000D03*
G04 #@! TO.P,R8,2*
G04 #@! TO.N,Net-(C1-Pad2)*
X51498740Y-35000000D03*
G04 #@! TD*
G04 #@! TO.P,R9,2*
G04 #@! TO.N,VCC*
X51998740Y-61000000D03*
G04 #@! TO.P,R9,1*
G04 #@! TO.N,Net-(R10-Pad2)*
X62001260Y-61000000D03*
D17*
G04 #@! TO.P,R9,2*
G04 #@! TO.N,VCC*
X54800360Y-61000000D03*
G04 #@! TO.P,R9,1*
G04 #@! TO.N,Net-(R10-Pad2)*
X59199640Y-61000000D03*
G04 #@! TD*
G04 #@! TO.P,R10,1*
G04 #@! TO.N,VEE*
X68299060Y-61000000D03*
G04 #@! TO.P,R10,2*
G04 #@! TO.N,Net-(R10-Pad2)*
X72698340Y-61000000D03*
D16*
G04 #@! TO.P,R10,1*
G04 #@! TO.N,VEE*
X65497440Y-61000000D03*
G04 #@! TO.P,R10,2*
G04 #@! TO.N,Net-(R10-Pad2)*
X75499960Y-61000000D03*
G04 #@! TD*
D18*
G04 #@! TO.P,R11,1*
G04 #@! TO.N,Net-(C2-Pad1)*
X80000000Y-37700940D03*
G04 #@! TO.P,R11,2*
G04 #@! TO.N,OUTPUT*
X80000000Y-33301660D03*
D16*
G04 #@! TO.P,R11,1*
G04 #@! TO.N,Net-(C2-Pad1)*
X80000000Y-40502560D03*
G04 #@! TO.P,R11,2*
G04 #@! TO.N,OUTPUT*
X80000000Y-30500040D03*
G04 #@! TD*
G04 #@! TO.P,R12,2*
G04 #@! TO.N,Net-(C2-Pad1)*
X80000000Y-44998740D03*
G04 #@! TO.P,R12,1*
G04 #@! TO.N,GND*
X80000000Y-55001260D03*
D18*
G04 #@! TO.P,R12,2*
G04 #@! TO.N,Net-(C2-Pad1)*
X80000000Y-47800360D03*
G04 #@! TO.P,R12,1*
G04 #@! TO.N,GND*
X80000000Y-52199640D03*
G04 #@! TD*
D19*
G04 #@! TO.P,C1,1*
G04 #@! TO.N,N_INV_In*
X26500000Y-37000000D03*
G04 #@! TO.P,C1,2*
G04 #@! TO.N,Net-(C1-Pad2)*
X31500000Y-37000000D03*
G04 #@! TD*
G04 #@! TO.P,C2,2*
G04 #@! TO.N,INV_In1*
X28000000Y-62500000D03*
G04 #@! TO.P,C2,1*
G04 #@! TO.N,Net-(C2-Pad1)*
X33000000Y-62500000D03*
G04 #@! TD*
G04 #@! TO.P,C3,2*
G04 #@! TO.N,Net-(C3-Pad2)*
X28000000Y-54500000D03*
G04 #@! TO.P,C3,1*
G04 #@! TO.N,Net-(C2-Pad1)*
X33000000Y-54500000D03*
G04 #@! TD*
G04 #@! TO.P,C4,2*
G04 #@! TO.N,Net-(C4-Pad2)*
X28000000Y-46500000D03*
G04 #@! TO.P,C4,1*
G04 #@! TO.N,Net-(C2-Pad1)*
X33000000Y-46500000D03*
G04 #@! TD*
G04 #@! TO.P,C5,2*
G04 #@! TO.N,Net-(C5-Pad2)*
X44500000Y-33000000D03*
G04 #@! TO.P,C5,1*
G04 #@! TO.N,Net-(C1-Pad2)*
X39500000Y-33000000D03*
G04 #@! TD*
G04 #@! TO.P,C6,2*
G04 #@! TO.N,Net-(C5-Pad2)*
X57000000Y-50000000D03*
G04 #@! TO.P,C6,1*
G04 #@! TO.N,GND*
X57000000Y-55000000D03*
G04 #@! TD*
G04 #@! TO.P,C7,1*
G04 #@! TO.N,Net-(C1-Pad2)*
X52500000Y-31000000D03*
G04 #@! TO.P,C7,2*
G04 #@! TO.N,OUTPUT*
X57500000Y-31000000D03*
G04 #@! TD*
G04 #@! TO.P,C8,1*
G04 #@! TO.N,OUTPUT*
X84500000Y-38500000D03*
G04 #@! TO.P,C8,2*
G04 #@! TO.N,Net-(C2-Pad1)*
X84500000Y-43500000D03*
G04 #@! TD*
G04 #@! TO.P,C9,1*
G04 #@! TO.N,Net-(C2-Pad1)*
X84500000Y-48000000D03*
G04 #@! TO.P,C9,2*
G04 #@! TO.N,GND*
X84500000Y-53000000D03*
G04 #@! TD*
G04 #@! TO.P,C10,1*
G04 #@! TO.N,VEE*
X62500000Y-39500000D03*
G04 #@! TO.P,C10,2*
G04 #@! TO.N,VCC*
X67500000Y-39500000D03*
G04 #@! TD*
D20*
G04 #@! TO.N,*
X114300000Y-27940000D03*
X114300000Y-30480000D03*
X101600000Y-27940000D03*
X99060000Y-30480000D03*
X99060000Y-27940000D03*
X104140000Y-30480000D03*
X104140000Y-27940000D03*
X101600000Y-30480000D03*
X111760000Y-27940000D03*
X111760000Y-30480000D03*
X106680000Y-30480000D03*
X109220000Y-27940000D03*
X109220000Y-30480000D03*
X106680000Y-27940000D03*
X106680000Y-33020000D03*
X109220000Y-35560000D03*
X109220000Y-33020000D03*
X106680000Y-35560000D03*
X111760000Y-35560000D03*
X111760000Y-33020000D03*
X101600000Y-35560000D03*
X104140000Y-33020000D03*
X104140000Y-35560000D03*
X99060000Y-33020000D03*
X99060000Y-35560000D03*
X101600000Y-33020000D03*
X106680000Y-40640000D03*
X111760000Y-38100000D03*
X104140000Y-38100000D03*
X104140000Y-40640000D03*
X111760000Y-40640000D03*
X109220000Y-40640000D03*
X99060000Y-40640000D03*
X101600000Y-40640000D03*
X99060000Y-38100000D03*
X101600000Y-38100000D03*
X109220000Y-38100000D03*
X106680000Y-38100000D03*
X106680000Y-43180000D03*
X114300000Y-45720000D03*
X109220000Y-45720000D03*
X106680000Y-50800000D03*
X109220000Y-43180000D03*
X106680000Y-45720000D03*
X111760000Y-45720000D03*
X111760000Y-48260000D03*
X104140000Y-48260000D03*
X104140000Y-50800000D03*
X104140000Y-53340000D03*
X99060000Y-55880000D03*
X111760000Y-50800000D03*
X111760000Y-43180000D03*
X109220000Y-50800000D03*
X101600000Y-45720000D03*
X104140000Y-43180000D03*
X99060000Y-50800000D03*
X106680000Y-55880000D03*
X111760000Y-53340000D03*
X111760000Y-55880000D03*
X114300000Y-43180000D03*
X104140000Y-45720000D03*
X106680000Y-53340000D03*
X101600000Y-53340000D03*
X101600000Y-50800000D03*
X99060000Y-48260000D03*
X99060000Y-53340000D03*
X101600000Y-48260000D03*
X109220000Y-55880000D03*
X109220000Y-48260000D03*
X99060000Y-43180000D03*
X106680000Y-48260000D03*
X109220000Y-53340000D03*
X99060000Y-45720000D03*
X101600000Y-43180000D03*
X104140000Y-55880000D03*
X101600000Y-55880000D03*
X114300000Y-53340000D03*
X114300000Y-55880000D03*
X114300000Y-50800000D03*
X114300000Y-48260000D03*
X114300000Y-38100000D03*
X114300000Y-33020000D03*
X114300000Y-35560000D03*
X114300000Y-40640000D03*
X111760000Y-58420000D03*
X106680000Y-58420000D03*
X101600000Y-58420000D03*
X104140000Y-58420000D03*
X114300000Y-58420000D03*
X99060000Y-58420000D03*
X109220000Y-58420000D03*
X106680000Y-60960000D03*
X111760000Y-60960000D03*
X99060000Y-60960000D03*
X109220000Y-60960000D03*
X114300000Y-60960000D03*
X101600000Y-60960000D03*
X104140000Y-60960000D03*
X109220000Y-63500000D03*
X114300000Y-63500000D03*
X101600000Y-63500000D03*
X111760000Y-63500000D03*
X106680000Y-63500000D03*
X104140000Y-63500000D03*
X99060000Y-63500000D03*
X96520000Y-40640000D03*
X96520000Y-55880000D03*
X96520000Y-50800000D03*
X96520000Y-35560000D03*
X96520000Y-33020000D03*
X96520000Y-38100000D03*
X96520000Y-27940000D03*
X96520000Y-30480000D03*
X96520000Y-63500000D03*
X96520000Y-43180000D03*
X96520000Y-58420000D03*
X96520000Y-53340000D03*
X96520000Y-48260000D03*
X96520000Y-60960000D03*
X96520000Y-45720000D03*
G04 #@! TD*
D21*
G04 #@! TO.N,Net-(C1-Pad2)*
X34498700Y-37000000D02*
X31500000Y-37000000D01*
X37300400Y-37000000D02*
X34498700Y-37000000D01*
X51498700Y-35000000D02*
X54300400Y-35000000D01*
X39500000Y-33000000D02*
X41500000Y-35000000D01*
X41500000Y-35000000D02*
X51498700Y-35000000D01*
X36460000Y-28500000D02*
X30500000Y-28500000D01*
X33500000Y-32500000D02*
X36301700Y-32500000D01*
X36301700Y-32500000D02*
X37826500Y-32500000D01*
X39500000Y-33000000D02*
X38326500Y-33000000D01*
X38326500Y-33000000D02*
X37826500Y-32500000D01*
G04 #@! TO.N,Net-(C2-Pad1)*
X33000000Y-46500000D02*
X33000000Y-50500000D01*
X32522400Y-42500000D02*
X32522400Y-46022400D01*
X32522400Y-46022400D02*
X33000000Y-46500000D01*
X82248100Y-44275400D02*
X81524800Y-44998700D01*
X84500000Y-43500000D02*
X83023500Y-43500000D01*
X83023500Y-43500000D02*
X82248100Y-44275400D01*
X82248100Y-44275400D02*
X80000000Y-42027400D01*
X81524800Y-44998700D02*
X84500000Y-47973900D01*
X84500000Y-47973900D02*
X84500000Y-48000000D01*
X80000000Y-40502600D02*
X80000000Y-42027400D01*
X80000000Y-44998700D02*
X78475200Y-44998700D01*
X62880000Y-48460000D02*
X64605300Y-48460000D01*
X64605300Y-48460000D02*
X68476500Y-44588800D01*
X68476500Y-44588800D02*
X78065300Y-44588800D01*
X78065300Y-44588800D02*
X78475200Y-44998700D01*
X38524800Y-42500000D02*
X39777100Y-43752300D01*
X39777100Y-43752300D02*
X54897500Y-43752300D01*
X54897500Y-43752300D02*
X59605200Y-48460000D01*
X59605200Y-48460000D02*
X62880000Y-48460000D01*
X33000000Y-54500000D02*
X33000000Y-50500000D01*
X33000000Y-58500000D02*
X33000000Y-54500000D01*
X34200900Y-50500000D02*
X33000000Y-50500000D01*
X34200900Y-50500000D02*
X37002600Y-50500000D01*
X34198300Y-42500000D02*
X32522400Y-42500000D01*
X34198300Y-58500000D02*
X33000000Y-58500000D01*
X33000000Y-62500000D02*
X33000000Y-58500000D01*
X80000000Y-47800400D02*
X80000000Y-44998700D01*
X37000000Y-42500000D02*
X38524800Y-42500000D01*
X34198300Y-42500000D02*
X37000000Y-42500000D01*
X37000000Y-58500000D02*
X34198300Y-58500000D01*
X80000000Y-37700900D02*
X80000000Y-40502600D01*
X80000000Y-44998700D02*
X81524800Y-44998700D01*
G04 #@! TO.N,Net-(C3-Pad2)*
X27000000Y-50500000D02*
X28000000Y-50500000D01*
X28000000Y-50500000D02*
X29801700Y-50500000D01*
X28000000Y-54500000D02*
X28000000Y-50500000D01*
G04 #@! TO.N,Net-(C4-Pad2)*
X28000000Y-42500000D02*
X26997400Y-42500000D01*
X29799100Y-42500000D02*
X28000000Y-42500000D01*
X28000000Y-46500000D02*
X28000000Y-42500000D01*
X20000000Y-42380000D02*
X22325300Y-42380000D01*
X26997400Y-42500000D02*
X22445300Y-42500000D01*
X22445300Y-42500000D02*
X22325300Y-42380000D01*
G04 #@! TO.N,Net-(C5-Pad2)*
X51500000Y-49001300D02*
X53024800Y-49001300D01*
X57000000Y-50000000D02*
X54023500Y-50000000D01*
X54023500Y-50000000D02*
X53024800Y-49001300D01*
X61154700Y-51000000D02*
X60154700Y-50000000D01*
X60154700Y-50000000D02*
X57000000Y-50000000D01*
X51500000Y-49001300D02*
X51500000Y-46199600D01*
X48500000Y-52000000D02*
X48500000Y-54801700D01*
X44501300Y-37000000D02*
X41699600Y-37000000D01*
X62880000Y-51000000D02*
X61154700Y-51000000D01*
G04 #@! TO.N,GND*
X91000000Y-40310000D02*
X91000000Y-41735300D01*
X91000000Y-41735300D02*
X91534500Y-41735300D01*
X91534500Y-41735300D02*
X93325400Y-43526200D01*
X93325400Y-43526200D02*
X93325400Y-52169300D01*
X93325400Y-52169300D02*
X92110000Y-53384700D01*
X92110000Y-53384700D02*
X91000000Y-53384700D01*
X84500000Y-53018700D02*
X90634000Y-53018700D01*
X90634000Y-53018700D02*
X91000000Y-53384700D01*
X80000000Y-53037500D02*
X84481200Y-53037500D01*
X84481200Y-53037500D02*
X84500000Y-53018700D01*
X84500000Y-53018700D02*
X84500000Y-53000000D01*
X91000000Y-54810000D02*
X91000000Y-53384700D01*
X80000000Y-53037500D02*
X80000000Y-53875500D01*
X80000000Y-52199600D02*
X80000000Y-53037500D01*
X57000000Y-55000000D02*
X57001300Y-55001300D01*
X57001300Y-55001300D02*
X78475200Y-55001300D01*
X80000000Y-55001300D02*
X78475200Y-55001300D01*
X48500000Y-57525000D02*
X54475000Y-57525000D01*
X54475000Y-57525000D02*
X57000000Y-55000000D01*
X42000000Y-51000000D02*
X42000000Y-52375300D01*
X42000000Y-52375300D02*
X43350300Y-52375300D01*
X43350300Y-52375300D02*
X48500000Y-57525000D01*
X48500000Y-59200900D02*
X48500000Y-57525000D01*
X48500000Y-62002600D02*
X48500000Y-59200900D01*
X80000000Y-55001300D02*
X80000000Y-53875500D01*
G04 #@! TO.N,VCC*
X51500000Y-40124500D02*
X51500000Y-38998700D01*
X51500000Y-41800400D02*
X51500000Y-40124500D01*
X67500000Y-39500000D02*
X66142200Y-40857800D01*
X66142200Y-40857800D02*
X53458400Y-40857800D01*
X53458400Y-40857800D02*
X52725100Y-40124500D01*
X52725100Y-40124500D02*
X51500000Y-40124500D01*
X91000000Y-51000000D02*
X88674700Y-51000000D01*
X70500000Y-45920000D02*
X72225300Y-45920000D01*
X72225300Y-45920000D02*
X76805300Y-50500000D01*
X76805300Y-50500000D02*
X88174700Y-50500000D01*
X88174700Y-50500000D02*
X88674700Y-51000000D01*
X54800400Y-61000000D02*
X51998700Y-61000000D01*
G04 #@! TO.N,VEE*
X20000000Y-27690000D02*
X20000000Y-29115300D01*
X62500000Y-39500000D02*
X60584000Y-39500000D01*
X60584000Y-39500000D02*
X56747700Y-35663700D01*
X56747700Y-35663700D02*
X56747700Y-34751300D01*
X56747700Y-34751300D02*
X55471500Y-33475100D01*
X55471500Y-33475100D02*
X51751600Y-33475100D01*
X51751600Y-33475100D02*
X48351100Y-30074600D01*
X48351100Y-30074600D02*
X20959300Y-30074600D01*
X20959300Y-30074600D02*
X20000000Y-29115300D01*
X68299100Y-61000000D02*
X69975000Y-61000000D01*
X69975000Y-61000000D02*
X71499900Y-62524900D01*
X71499900Y-62524900D02*
X88520400Y-62524900D01*
X88520400Y-62524900D02*
X91000000Y-60045300D01*
X65497400Y-61000000D02*
X68299100Y-61000000D01*
X91000000Y-58620000D02*
X91000000Y-60045300D01*
G04 #@! TO.N,Net-(R10-Pad2)*
X72698300Y-61000000D02*
X71022400Y-61000000D01*
X71022400Y-61000000D02*
X69497600Y-59475200D01*
X69497600Y-59475200D02*
X64193100Y-59475200D01*
X64193100Y-59475200D02*
X63526100Y-60142200D01*
X63526100Y-60142200D02*
X63526100Y-61000000D01*
X75500000Y-61000000D02*
X72698300Y-61000000D01*
X62001300Y-61000000D02*
X63526100Y-61000000D01*
X59199600Y-61000000D02*
X62001300Y-61000000D01*
G04 #@! TO.N,N_INV_In*
X20000000Y-35310000D02*
X20000000Y-36735300D01*
X26500000Y-37000000D02*
X20264700Y-37000000D01*
X20264700Y-37000000D02*
X20000000Y-36735300D01*
X29100800Y-32500000D02*
X26299100Y-32500000D01*
G04 #@! TO.N,INV_In1*
X28000000Y-58500000D02*
X28123200Y-58500000D01*
X26997400Y-58500000D02*
X28000000Y-58500000D01*
X28000000Y-62500000D02*
X28000000Y-58500000D01*
X29799100Y-58500000D02*
X28123200Y-58500000D01*
X20000000Y-50000000D02*
X20000000Y-51425300D01*
X26997400Y-58500000D02*
X26997400Y-56975200D01*
X26997400Y-56975200D02*
X25549900Y-56975200D01*
X25549900Y-56975200D02*
X20000000Y-51425300D01*
G04 #@! TO.N,OUTPUT*
X84500000Y-36738800D02*
X88435900Y-36738800D01*
X88435900Y-36738800D02*
X88674700Y-36500000D01*
X80000000Y-34977600D02*
X82738800Y-34977600D01*
X82738800Y-34977600D02*
X84500000Y-36738800D01*
X84500000Y-38500000D02*
X84500000Y-36738800D01*
X91000000Y-36500000D02*
X88674700Y-36500000D01*
X58699600Y-35000000D02*
X58699600Y-32199600D01*
X58699600Y-32199600D02*
X57500000Y-31000000D01*
X58699600Y-35000000D02*
X61501300Y-35000000D01*
X80000000Y-33301700D02*
X80000000Y-34977600D01*
X80000000Y-34977600D02*
X63048500Y-34977600D01*
X63048500Y-34977600D02*
X63026100Y-35000000D01*
X61501300Y-35000000D02*
X63026100Y-35000000D01*
X80000000Y-30500000D02*
X80000000Y-33301700D01*
G04 #@! TD*
M02*
