M48
;DRILL file {KiCad (5.0.0)} date 09/28/19 10:14:31
;FORMAT={-:-/ absolute / inch / decimal}
FMAT,2
INCH,TZ
T1C0.0315
T2C0.0394
T3C0.0394
T4C0.0472
%
G90
G05
M72
T1
X1.5551Y-1.2992
X1.752Y-1.2992
X2.4756Y-2.1079
X2.4606Y-1.5551
X2.6575Y-1.5551
X2.2441Y-1.9685
X2.2441Y-2.1654
X1.1024Y-1.8307
X1.2992Y-1.8307
X1.1024Y-2.4606
X1.2992Y-2.4606
X3.3268Y-1.8898
X3.3268Y-2.0866
X1.1024Y-2.1457
X1.2992Y-2.1457
X2.0669Y-1.2205
X2.2638Y-1.2205
X1.0433Y-1.4567
X1.2402Y-1.4567
X2.4756Y-1.8079
X2.4756Y-1.9079
X2.4756Y-2.0079
X2.7756Y-1.8079
X2.7756Y-1.9079
X2.7756Y-2.0079
X2.7756Y-2.1079
X3.3268Y-1.5157
X3.3268Y-1.7126
T2
X3.8Y-1.1
X3.8Y-1.2
X3.8Y-1.3
X3.8Y-1.4
X3.8Y-1.5
X3.8Y-1.6
X3.8Y-1.7
X3.8Y-1.8
X3.8Y-1.9
X3.8Y-2.
X3.8Y-2.1
X3.8Y-2.2
X3.8Y-2.3
X3.8Y-2.4
X3.8Y-2.5
X3.9Y-1.1
X3.9Y-1.2
X3.9Y-1.3
X3.9Y-1.4
X3.9Y-1.5
X3.9Y-1.6
X3.9Y-1.7
X3.9Y-1.8
X3.9Y-1.9
X3.9Y-2.
X3.9Y-2.1
X3.9Y-2.2
X3.9Y-2.3
X3.9Y-2.4
X3.9Y-2.5
X4.Y-1.1
X4.Y-1.2
X4.Y-1.3
X4.Y-1.4
X4.Y-1.5
X4.Y-1.6
X4.Y-1.7
X4.Y-1.8
X4.Y-1.9
X4.Y-2.
X4.Y-2.1
X4.Y-2.2
X4.Y-2.3
X4.Y-2.4
X4.Y-2.5
X4.1Y-1.1
X4.1Y-1.2
X4.1Y-1.3
X4.1Y-1.4
X4.1Y-1.5
X4.1Y-1.6
X4.1Y-1.7
X4.1Y-1.8
X4.1Y-1.9
X4.1Y-2.
X4.1Y-2.1
X4.1Y-2.2
X4.1Y-2.3
X4.1Y-2.4
X4.1Y-2.5
X4.2Y-1.1
X4.2Y-1.2
X4.2Y-1.3
X4.2Y-1.4
X4.2Y-1.5
X4.2Y-1.6
X4.2Y-1.7
X4.2Y-1.8
X4.2Y-1.9
X4.2Y-2.
X4.2Y-2.1
X4.2Y-2.2
X4.2Y-2.3
X4.2Y-2.4
X4.2Y-2.5
X4.3Y-1.1
X4.3Y-1.2
X4.3Y-1.3
X4.3Y-1.4
X4.3Y-1.5
X4.3Y-1.6
X4.3Y-1.7
X4.3Y-1.8
X4.3Y-1.9
X4.3Y-2.
X4.3Y-2.1
X4.3Y-2.2
X4.3Y-2.3
X4.3Y-2.4
X4.3Y-2.5
X4.4Y-1.1
X4.4Y-1.2
X4.4Y-1.3
X4.4Y-1.4
X4.4Y-1.5
X4.4Y-1.6
X4.4Y-1.7
X4.4Y-1.8
X4.4Y-1.9
X4.4Y-2.
X4.4Y-2.1
X4.4Y-2.2
X4.4Y-2.3
X4.4Y-2.4
X4.4Y-2.5
X4.5Y-1.1
X4.5Y-1.2
X4.5Y-1.3
X4.5Y-1.4
X4.5Y-1.5
X4.5Y-1.6
X4.5Y-1.7
X4.5Y-1.8
X4.5Y-1.9
X4.5Y-2.
X4.5Y-2.1
X4.5Y-2.2
X4.5Y-2.3
X4.5Y-2.4
X4.5Y-2.5
X2.9331Y-1.5142
X2.9331Y-1.6142
X3.5236Y-1.0811
X3.5236Y-1.1811
X2.1244Y-1.063
X2.2244Y-1.063
X1.1008Y-1.122
X1.2008Y-1.122
X1.4354Y-1.122
X1.5354Y-1.122
X1.6535Y-1.9079
X1.6535Y-2.0079
T3
X1.9094Y-2.0472
X1.9094Y-2.441
X2.0276Y-1.5354
X2.0276Y-1.9292
X1.0354Y-1.2795
X1.4292Y-1.2795
X1.3582Y-1.4567
X1.752Y-1.4567
X1.0629Y-1.6732
X1.4567Y-1.6732
X1.0629Y-2.3031
X1.4567Y-2.3031
X3.1496Y-1.2008
X3.1496Y-1.5946
X1.063Y-1.9882
X1.4568Y-1.9882
X2.0472Y-2.4016
X2.441Y-2.4016
X3.1496Y-1.7716
X3.1496Y-2.1654
X2.5786Y-2.4016
X2.9724Y-2.4016
X2.0275Y-1.378
X2.4213Y-1.378
T4
X0.7874Y-1.6685
X0.7874Y-1.8185
X0.7874Y-1.9685
X3.5827Y-2.0079
X3.5827Y-2.1579
X3.5827Y-2.3079
X3.5827Y-1.437
X3.5827Y-1.587
X3.5827Y-1.737
X0.7874Y-1.0902
X0.7874Y-1.2402
X0.7874Y-1.3902
T0
M30
