G04 #@! TF.GenerationSoftware,KiCad,Pcbnew,(5.0.0)*
G04 #@! TF.CreationDate,2019-09-28T10:14:36+02:00*
G04 #@! TF.ProjectId,opampprotopcb,6F70616D7070726F746F7063622E6B69,rev?*
G04 #@! TF.SameCoordinates,Original*
G04 #@! TF.FileFunction,Legend,Top*
G04 #@! TF.FilePolarity,Positive*
%FSLAX46Y46*%
G04 Gerber Fmt 4.6, Leading zero omitted, Abs format (unit mm)*
G04 Created by KiCad (PCBNEW (5.0.0)) date 09/28/19 10:14:36*
%MOMM*%
%LPD*%
G01*
G04 APERTURE LIST*
%ADD10C,0.200000*%
%ADD11C,0.250000*%
%ADD12C,0.150000*%
%ADD13C,0.120000*%
G04 APERTURE END LIST*
D10*
X59500000Y-42500000D02*
G75*
G03X59500000Y-42500000I-500000J0D01*
G01*
X53000000Y-47000000D02*
X53000000Y-50500000D01*
X54500000Y-47000000D02*
X53000000Y-47000000D01*
X54500000Y-44000000D02*
X54500000Y-47000000D01*
D11*
X19119047Y-55428571D02*
X19119047Y-53928571D01*
X19500000Y-53928571D01*
X19595238Y-54000000D01*
X19642857Y-54071428D01*
X19690476Y-54214285D01*
X19690476Y-54428571D01*
X19642857Y-54571428D01*
X19595238Y-54642857D01*
X19500000Y-54714285D01*
X19119047Y-54714285D01*
X20928571Y-55428571D02*
X20880952Y-55428571D01*
X20785714Y-55357142D01*
X20642857Y-55142857D01*
X20404761Y-54714285D01*
X20309523Y-54500000D01*
X20261904Y-54285714D01*
X20261904Y-54142857D01*
X20309523Y-54000000D01*
X20404761Y-53928571D01*
X20452380Y-53928571D01*
X20547619Y-54000000D01*
X20595238Y-54142857D01*
X20595238Y-54214285D01*
X20547619Y-54357142D01*
X20500000Y-54428571D01*
X20214285Y-54714285D01*
X20166666Y-54785714D01*
X20119047Y-54928571D01*
X20119047Y-55142857D01*
X20166666Y-55285714D01*
X20214285Y-55357142D01*
X20309523Y-55428571D01*
X20452380Y-55428571D01*
X20547619Y-55357142D01*
X20595238Y-55285714D01*
X20738095Y-55000000D01*
X20785714Y-54785714D01*
X20785714Y-54642857D01*
X21357142Y-55428571D02*
X21357142Y-53928571D01*
X21928571Y-55428571D02*
X21500000Y-54571428D01*
X21928571Y-53928571D02*
X21357142Y-54785714D01*
X17595238Y-56428571D02*
X17785714Y-56428571D01*
X17880952Y-56500000D01*
X17976190Y-56642857D01*
X18023809Y-56928571D01*
X18023809Y-57428571D01*
X17976190Y-57714285D01*
X17880952Y-57857142D01*
X17785714Y-57928571D01*
X17595238Y-57928571D01*
X17500000Y-57857142D01*
X17404761Y-57714285D01*
X17357142Y-57428571D01*
X17357142Y-56928571D01*
X17404761Y-56642857D01*
X17500000Y-56500000D01*
X17595238Y-56428571D01*
X18452380Y-57928571D02*
X18452380Y-56428571D01*
X18833333Y-56428571D01*
X18928571Y-56500000D01*
X18976190Y-56571428D01*
X19023809Y-56714285D01*
X19023809Y-56928571D01*
X18976190Y-57071428D01*
X18928571Y-57142857D01*
X18833333Y-57214285D01*
X18452380Y-57214285D01*
X20166666Y-57500000D02*
X20642857Y-57500000D01*
X20071428Y-57928571D02*
X20404761Y-56428571D01*
X20738095Y-57928571D01*
X21071428Y-57928571D02*
X21071428Y-56928571D01*
X21071428Y-57071428D02*
X21119047Y-57000000D01*
X21214285Y-56928571D01*
X21357142Y-56928571D01*
X21452380Y-57000000D01*
X21500000Y-57142857D01*
X21500000Y-57928571D01*
X21500000Y-57142857D02*
X21547619Y-57000000D01*
X21642857Y-56928571D01*
X21785714Y-56928571D01*
X21880952Y-57000000D01*
X21928571Y-57142857D01*
X21928571Y-57928571D01*
X22404761Y-56928571D02*
X22404761Y-58428571D01*
X22404761Y-57000000D02*
X22500000Y-56928571D01*
X22690476Y-56928571D01*
X22785714Y-57000000D01*
X22833333Y-57071428D01*
X22880952Y-57214285D01*
X22880952Y-57642857D01*
X22833333Y-57785714D01*
X22785714Y-57857142D01*
X22690476Y-57928571D01*
X22500000Y-57928571D01*
X22404761Y-57857142D01*
X16880952Y-60428571D02*
X16880952Y-58928571D01*
X17261904Y-58928571D01*
X17357142Y-59000000D01*
X17404761Y-59071428D01*
X17452380Y-59214285D01*
X17452380Y-59428571D01*
X17404761Y-59571428D01*
X17357142Y-59642857D01*
X17261904Y-59714285D01*
X16880952Y-59714285D01*
X17880952Y-60428571D02*
X17880952Y-59428571D01*
X17880952Y-59714285D02*
X17928571Y-59571428D01*
X17976190Y-59500000D01*
X18071428Y-59428571D01*
X18166666Y-59428571D01*
X18642857Y-60428571D02*
X18547619Y-60357142D01*
X18500000Y-60285714D01*
X18452380Y-60142857D01*
X18452380Y-59714285D01*
X18500000Y-59571428D01*
X18547619Y-59500000D01*
X18642857Y-59428571D01*
X18785714Y-59428571D01*
X18880952Y-59500000D01*
X18928571Y-59571428D01*
X18976190Y-59714285D01*
X18976190Y-60142857D01*
X18928571Y-60285714D01*
X18880952Y-60357142D01*
X18785714Y-60428571D01*
X18642857Y-60428571D01*
X19261904Y-59428571D02*
X19642857Y-59428571D01*
X19404761Y-58928571D02*
X19404761Y-60214285D01*
X19452380Y-60357142D01*
X19547619Y-60428571D01*
X19642857Y-60428571D01*
X20119047Y-60428571D02*
X20023809Y-60357142D01*
X19976190Y-60285714D01*
X19928571Y-60142857D01*
X19928571Y-59714285D01*
X19976190Y-59571428D01*
X20023809Y-59500000D01*
X20119047Y-59428571D01*
X20261904Y-59428571D01*
X20357142Y-59500000D01*
X20404761Y-59571428D01*
X20452380Y-59714285D01*
X20452380Y-60142857D01*
X20404761Y-60285714D01*
X20357142Y-60357142D01*
X20261904Y-60428571D01*
X20119047Y-60428571D01*
X20738095Y-59428571D02*
X21119047Y-59428571D01*
X20880952Y-58928571D02*
X20880952Y-60214285D01*
X20928571Y-60357142D01*
X21023809Y-60428571D01*
X21119047Y-60428571D01*
X21357142Y-59428571D02*
X21595238Y-60428571D01*
X21833333Y-59428571D02*
X21595238Y-60428571D01*
X21500000Y-60785714D01*
X21452380Y-60857142D01*
X21357142Y-60928571D01*
X22214285Y-59428571D02*
X22214285Y-60928571D01*
X22214285Y-59500000D02*
X22309523Y-59428571D01*
X22500000Y-59428571D01*
X22595238Y-59500000D01*
X22642857Y-59571428D01*
X22690476Y-59714285D01*
X22690476Y-60142857D01*
X22642857Y-60285714D01*
X22595238Y-60357142D01*
X22500000Y-60428571D01*
X22309523Y-60428571D01*
X22214285Y-60357142D01*
X23500000Y-60357142D02*
X23404761Y-60428571D01*
X23214285Y-60428571D01*
X23119047Y-60357142D01*
X23071428Y-60214285D01*
X23071428Y-59642857D01*
X23119047Y-59500000D01*
X23214285Y-59428571D01*
X23404761Y-59428571D01*
X23500000Y-59500000D01*
X23547619Y-59642857D01*
X23547619Y-59785714D01*
X23071428Y-59928571D01*
X23976190Y-60428571D02*
X23976190Y-59428571D01*
X23976190Y-59714285D02*
X24023809Y-59571428D01*
X24071428Y-59500000D01*
X24166666Y-59428571D01*
X24261904Y-59428571D01*
X18976190Y-61428571D02*
X19309523Y-62928571D01*
X19642857Y-61428571D01*
X20500000Y-62928571D02*
X19928571Y-62928571D01*
X20214285Y-62928571D02*
X20214285Y-61428571D01*
X20119047Y-61642857D01*
X20023809Y-61785714D01*
X19928571Y-61857142D01*
X20928571Y-62785714D02*
X20976190Y-62857142D01*
X20928571Y-62928571D01*
X20880952Y-62857142D01*
X20928571Y-62785714D01*
X20928571Y-62928571D01*
X21595238Y-61428571D02*
X21690476Y-61428571D01*
X21785714Y-61500000D01*
X21833333Y-61571428D01*
X21880952Y-61714285D01*
X21928571Y-62000000D01*
X21928571Y-62357142D01*
X21880952Y-62642857D01*
X21833333Y-62785714D01*
X21785714Y-62857142D01*
X21690476Y-62928571D01*
X21595238Y-62928571D01*
X21500000Y-62857142D01*
X21452380Y-62785714D01*
X21404761Y-62642857D01*
X21357142Y-62357142D01*
X21357142Y-62000000D01*
X21404761Y-61714285D01*
X21452380Y-61571428D01*
X21500000Y-61500000D01*
X21595238Y-61428571D01*
X84666666Y-29452380D02*
X85000000Y-30452380D01*
X85333333Y-29452380D01*
X86238095Y-30357142D02*
X86190476Y-30404761D01*
X86047619Y-30452380D01*
X85952380Y-30452380D01*
X85809523Y-30404761D01*
X85714285Y-30309523D01*
X85666666Y-30214285D01*
X85619047Y-30023809D01*
X85619047Y-29880952D01*
X85666666Y-29690476D01*
X85714285Y-29595238D01*
X85809523Y-29500000D01*
X85952380Y-29452380D01*
X86047619Y-29452380D01*
X86190476Y-29500000D01*
X86238095Y-29547619D01*
X87238095Y-30357142D02*
X87190476Y-30404761D01*
X87047619Y-30452380D01*
X86952380Y-30452380D01*
X86809523Y-30404761D01*
X86714285Y-30309523D01*
X86666666Y-30214285D01*
X86619047Y-30023809D01*
X86619047Y-29880952D01*
X86666666Y-29690476D01*
X86714285Y-29595238D01*
X86809523Y-29500000D01*
X86952380Y-29452380D01*
X87047619Y-29452380D01*
X87190476Y-29500000D01*
X87238095Y-29547619D01*
X84761904Y-26452380D02*
X85095238Y-27452380D01*
X85428571Y-26452380D01*
X85761904Y-26928571D02*
X86095238Y-26928571D01*
X86238095Y-27452380D02*
X85761904Y-27452380D01*
X85761904Y-26452380D01*
X86238095Y-26452380D01*
X86666666Y-26928571D02*
X87000000Y-26928571D01*
X87142857Y-27452380D02*
X86666666Y-27452380D01*
X86666666Y-26452380D01*
X87142857Y-26452380D01*
X86452380Y-59738095D02*
X87452380Y-59404761D01*
X86452380Y-59071428D01*
X86928571Y-58738095D02*
X86928571Y-58404761D01*
X87452380Y-58261904D02*
X87452380Y-58738095D01*
X86452380Y-58738095D01*
X86452380Y-58261904D01*
X86928571Y-57833333D02*
X86928571Y-57500000D01*
X87452380Y-57357142D02*
X87452380Y-57833333D01*
X86452380Y-57833333D01*
X86452380Y-57357142D01*
X86500000Y-55261904D02*
X86452380Y-55357142D01*
X86452380Y-55500000D01*
X86500000Y-55642857D01*
X86595238Y-55738095D01*
X86690476Y-55785714D01*
X86880952Y-55833333D01*
X87023809Y-55833333D01*
X87214285Y-55785714D01*
X87309523Y-55738095D01*
X87404761Y-55642857D01*
X87452380Y-55500000D01*
X87452380Y-55404761D01*
X87404761Y-55261904D01*
X87357142Y-55214285D01*
X87023809Y-55214285D01*
X87023809Y-55404761D01*
X87452380Y-54785714D02*
X86452380Y-54785714D01*
X87452380Y-54214285D01*
X86452380Y-54214285D01*
X87452380Y-53738095D02*
X86452380Y-53738095D01*
X86452380Y-53500000D01*
X86500000Y-53357142D01*
X86595238Y-53261904D01*
X86690476Y-53214285D01*
X86880952Y-53166666D01*
X87023809Y-53166666D01*
X87214285Y-53214285D01*
X87309523Y-53261904D01*
X87404761Y-53357142D01*
X87452380Y-53500000D01*
X87452380Y-53738095D01*
X86452380Y-52333333D02*
X87452380Y-52000000D01*
X86452380Y-51666666D01*
X87357142Y-50761904D02*
X87404761Y-50809523D01*
X87452380Y-50952380D01*
X87452380Y-51047619D01*
X87404761Y-51190476D01*
X87309523Y-51285714D01*
X87214285Y-51333333D01*
X87023809Y-51380952D01*
X86880952Y-51380952D01*
X86690476Y-51333333D01*
X86595238Y-51285714D01*
X86500000Y-51190476D01*
X86452380Y-51047619D01*
X86452380Y-50952380D01*
X86500000Y-50809523D01*
X86547619Y-50761904D01*
X87357142Y-49761904D02*
X87404761Y-49809523D01*
X87452380Y-49952380D01*
X87452380Y-50047619D01*
X87404761Y-50190476D01*
X87309523Y-50285714D01*
X87214285Y-50333333D01*
X87023809Y-50380952D01*
X86880952Y-50380952D01*
X86690476Y-50333333D01*
X86595238Y-50285714D01*
X86500000Y-50190476D01*
X86452380Y-50047619D01*
X86452380Y-49952380D01*
X86500000Y-49809523D01*
X86547619Y-49761904D01*
X86452380Y-45238095D02*
X87452380Y-44904761D01*
X86452380Y-44571428D01*
X86928571Y-44238095D02*
X86928571Y-43904761D01*
X87452380Y-43761904D02*
X87452380Y-44238095D01*
X86452380Y-44238095D01*
X86452380Y-43761904D01*
X86928571Y-43333333D02*
X86928571Y-43000000D01*
X87452380Y-42857142D02*
X87452380Y-43333333D01*
X86452380Y-43333333D01*
X86452380Y-42857142D01*
X86452380Y-37500000D02*
X86452380Y-37309523D01*
X86500000Y-37214285D01*
X86595238Y-37119047D01*
X86785714Y-37071428D01*
X87119047Y-37071428D01*
X87309523Y-37119047D01*
X87404761Y-37214285D01*
X87452380Y-37309523D01*
X87452380Y-37500000D01*
X87404761Y-37595238D01*
X87309523Y-37690476D01*
X87119047Y-37738095D01*
X86785714Y-37738095D01*
X86595238Y-37690476D01*
X86500000Y-37595238D01*
X86452380Y-37500000D01*
X86452380Y-36642857D02*
X87261904Y-36642857D01*
X87357142Y-36595238D01*
X87404761Y-36547619D01*
X87452380Y-36452380D01*
X87452380Y-36261904D01*
X87404761Y-36166666D01*
X87357142Y-36119047D01*
X87261904Y-36071428D01*
X86452380Y-36071428D01*
X86452380Y-35738095D02*
X86452380Y-35166666D01*
X87452380Y-35452380D02*
X86452380Y-35452380D01*
X86500000Y-41261904D02*
X86452380Y-41357142D01*
X86452380Y-41500000D01*
X86500000Y-41642857D01*
X86595238Y-41738095D01*
X86690476Y-41785714D01*
X86880952Y-41833333D01*
X87023809Y-41833333D01*
X87214285Y-41785714D01*
X87309523Y-41738095D01*
X87404761Y-41642857D01*
X87452380Y-41500000D01*
X87452380Y-41404761D01*
X87404761Y-41261904D01*
X87357142Y-41214285D01*
X87023809Y-41214285D01*
X87023809Y-41404761D01*
X87452380Y-40785714D02*
X86452380Y-40785714D01*
X87452380Y-40214285D01*
X86452380Y-40214285D01*
X87452380Y-39738095D02*
X86452380Y-39738095D01*
X86452380Y-39500000D01*
X86500000Y-39357142D01*
X86595238Y-39261904D01*
X86690476Y-39214285D01*
X86880952Y-39166666D01*
X87023809Y-39166666D01*
X87214285Y-39214285D01*
X87309523Y-39261904D01*
X87404761Y-39357142D01*
X87452380Y-39500000D01*
X87452380Y-39738095D01*
X24452380Y-47619047D02*
X23452380Y-47619047D01*
X24452380Y-47142857D02*
X23452380Y-47142857D01*
X24452380Y-46571428D01*
X23452380Y-46571428D01*
X24071428Y-46095238D02*
X24071428Y-45333333D01*
X23547619Y-44904761D02*
X23500000Y-44857142D01*
X23452380Y-44761904D01*
X23452380Y-44523809D01*
X23500000Y-44428571D01*
X23547619Y-44380952D01*
X23642857Y-44333333D01*
X23738095Y-44333333D01*
X23880952Y-44380952D01*
X24452380Y-44952380D01*
X24452380Y-44333333D01*
X24577380Y-52619047D02*
X23577380Y-52619047D01*
X24577380Y-52142857D02*
X23577380Y-52142857D01*
X24577380Y-51571428D01*
X23577380Y-51571428D01*
X24196428Y-51095238D02*
X24196428Y-50333333D01*
X24577380Y-49333333D02*
X24577380Y-49904761D01*
X24577380Y-49619047D02*
X23577380Y-49619047D01*
X23720238Y-49714285D01*
X23815476Y-49809523D01*
X23863095Y-49904761D01*
X24452380Y-38642857D02*
X23452380Y-38642857D01*
X24452380Y-38166666D02*
X23452380Y-38166666D01*
X24452380Y-37595238D01*
X23452380Y-37595238D01*
X24071428Y-37119047D02*
X24071428Y-36357142D01*
X24452380Y-36738095D02*
X23690476Y-36738095D01*
X23452380Y-28619047D02*
X24452380Y-28285714D01*
X23452380Y-27952380D01*
X24547619Y-27857142D02*
X24547619Y-27095238D01*
X23928571Y-26857142D02*
X23928571Y-26523809D01*
X24452380Y-26380952D02*
X24452380Y-26857142D01*
X23452380Y-26857142D01*
X23452380Y-26380952D01*
X23928571Y-25952380D02*
X23928571Y-25619047D01*
X24452380Y-25476190D02*
X24452380Y-25952380D01*
X23452380Y-25952380D01*
X23452380Y-25476190D01*
X23500000Y-32261904D02*
X23452380Y-32357142D01*
X23452380Y-32500000D01*
X23500000Y-32642857D01*
X23595238Y-32738095D01*
X23690476Y-32785714D01*
X23880952Y-32833333D01*
X24023809Y-32833333D01*
X24214285Y-32785714D01*
X24309523Y-32738095D01*
X24404761Y-32642857D01*
X24452380Y-32500000D01*
X24452380Y-32404761D01*
X24404761Y-32261904D01*
X24357142Y-32214285D01*
X24023809Y-32214285D01*
X24023809Y-32404761D01*
X24452380Y-31785714D02*
X23452380Y-31785714D01*
X24452380Y-31214285D01*
X23452380Y-31214285D01*
X24452380Y-30738095D02*
X23452380Y-30738095D01*
X23452380Y-30500000D01*
X23500000Y-30357142D01*
X23595238Y-30261904D01*
X23690476Y-30214285D01*
X23880952Y-30166666D01*
X24023809Y-30166666D01*
X24214285Y-30214285D01*
X24309523Y-30261904D01*
X24404761Y-30357142D01*
X24452380Y-30500000D01*
X24452380Y-30738095D01*
D10*
X39500000Y-45000000D02*
G75*
G03X39500000Y-45000000I-500000J0D01*
G01*
X39000000Y-56500000D02*
X39000000Y-45000000D01*
X74500000Y-56500000D02*
X39000000Y-56500000D01*
X74500000Y-45000000D02*
X74500000Y-56500000D01*
X77500000Y-45000000D02*
X74500000Y-45000000D01*
X76500000Y-54000000D02*
X78500000Y-54000000D01*
X77500000Y-50500000D02*
X77500000Y-54000000D01*
X77500000Y-41000000D02*
X77500000Y-46500000D01*
X77500000Y-35000000D02*
X77500000Y-37000000D01*
X70000000Y-35000000D02*
X77500000Y-35000000D01*
X70000000Y-42500000D02*
X70000000Y-35000000D01*
X59000000Y-42500000D02*
X70000000Y-42500000D01*
X49500000Y-44000000D02*
G75*
G03X49500000Y-44000000I-500000J0D01*
G01*
X52000000Y-55000000D02*
X54000000Y-55000000D01*
X53000000Y-53000000D02*
X53000000Y-55000000D01*
X54500000Y-42000000D02*
X54500000Y-44000000D01*
X54500000Y-37000000D02*
X54500000Y-39000000D01*
X54500000Y-37000000D02*
X55000000Y-38000000D01*
X54000000Y-38000000D02*
X54500000Y-37000000D01*
X55000000Y-44000000D02*
G75*
G03X55000000Y-44000000I-500000J0D01*
G01*
X49000000Y-36000000D02*
X49000000Y-44000000D01*
X63000000Y-25500000D02*
X46500000Y-25500000D01*
X63000000Y-36000000D02*
X63000000Y-25500000D01*
X46500000Y-36000000D02*
X63000000Y-36000000D01*
X46500000Y-25500000D02*
X46500000Y-36000000D01*
X39000000Y-45000000D02*
X35500000Y-45000000D01*
X25000000Y-64000000D02*
X25000000Y-48000000D01*
X35500000Y-64000000D02*
X25000000Y-64000000D01*
X35500000Y-41000000D02*
X35500000Y-64000000D01*
X25000000Y-41000000D02*
X35500000Y-41000000D01*
X25000000Y-43000000D02*
X25000000Y-41000000D01*
X25000000Y-43000000D02*
X21000000Y-43000000D01*
D12*
X46000000Y-40000000D02*
X42500000Y-40000000D01*
X46000000Y-26500000D02*
X46000000Y-40000000D01*
X25000000Y-26500000D02*
X46000000Y-26500000D01*
X25000000Y-35500000D02*
X25000000Y-26500000D01*
D10*
X39000000Y-45000000D02*
X56000000Y-45000000D01*
X25000000Y-43000000D02*
X25000000Y-48000000D01*
X42500000Y-44000000D02*
X56000000Y-44000000D01*
X42500000Y-40000000D02*
X42500000Y-44000000D01*
X25000000Y-40000000D02*
X42500000Y-40000000D01*
X25000000Y-35500000D02*
X25000000Y-40000000D01*
X20000000Y-35500000D02*
X25000000Y-35500000D01*
X59000000Y-44500000D02*
X59000000Y-36000000D01*
X58500000Y-44500000D02*
X59000000Y-44500000D01*
X56500000Y-43500000D02*
X56500000Y-44500000D01*
X56000000Y-45500000D02*
X57000000Y-45500000D01*
X56000000Y-44000000D02*
X57000000Y-44000000D01*
X56000000Y-46500000D02*
X58500000Y-44500000D01*
X56000000Y-43000000D02*
X56000000Y-46500000D01*
X58500000Y-44500000D02*
X56000000Y-43000000D01*
D13*
G04 #@! TO.C,J1*
X88750155Y-51749647D02*
G75*
G03X88750000Y-50250000I-1700155J749647D01*
G01*
X88750155Y-55559647D02*
G75*
G03X88750000Y-54060000I-1700155J749647D01*
G01*
X88750155Y-59369647D02*
G75*
G03X88750000Y-57870000I-1700155J749647D01*
G01*
X95330000Y-48320000D02*
X87920000Y-48320000D01*
X87920000Y-48320000D02*
X87920000Y-61300000D01*
X87920000Y-61300000D02*
X95330000Y-61300000D01*
X95330000Y-61300000D02*
X95330000Y-48320000D01*
X88750000Y-50250000D02*
X88750000Y-49500000D01*
X88750000Y-49500000D02*
X93050000Y-49500000D01*
X93050000Y-49500000D02*
X93050000Y-50250000D01*
X93050000Y-50250000D02*
X93400000Y-50250000D01*
X93400000Y-50250000D02*
X93400000Y-49750000D01*
X93400000Y-49750000D02*
X94400000Y-49500000D01*
X94400000Y-49500000D02*
X94400000Y-52500000D01*
X94400000Y-52500000D02*
X93400000Y-52250000D01*
X93400000Y-52250000D02*
X93400000Y-51750000D01*
X93400000Y-51750000D02*
X93050000Y-51750000D01*
X93050000Y-51750000D02*
X93050000Y-52500000D01*
X93050000Y-52500000D02*
X88750000Y-52500000D01*
X88750000Y-52500000D02*
X88750000Y-51750000D01*
X88750000Y-54060000D02*
X88750000Y-53310000D01*
X88750000Y-53310000D02*
X93050000Y-53310000D01*
X93050000Y-53310000D02*
X93050000Y-54060000D01*
X93050000Y-54060000D02*
X93400000Y-54060000D01*
X93400000Y-54060000D02*
X93400000Y-53560000D01*
X93400000Y-53560000D02*
X94400000Y-53310000D01*
X94400000Y-53310000D02*
X94400000Y-56310000D01*
X94400000Y-56310000D02*
X93400000Y-56060000D01*
X93400000Y-56060000D02*
X93400000Y-55560000D01*
X93400000Y-55560000D02*
X93050000Y-55560000D01*
X93050000Y-55560000D02*
X93050000Y-56310000D01*
X93050000Y-56310000D02*
X88750000Y-56310000D01*
X88750000Y-56310000D02*
X88750000Y-55560000D01*
X88750000Y-57870000D02*
X88750000Y-57120000D01*
X88750000Y-57120000D02*
X93050000Y-57120000D01*
X93050000Y-57120000D02*
X93050000Y-57870000D01*
X93050000Y-57870000D02*
X93400000Y-57870000D01*
X93400000Y-57870000D02*
X93400000Y-57370000D01*
X93400000Y-57370000D02*
X94400000Y-57120000D01*
X94400000Y-57120000D02*
X94400000Y-60120000D01*
X94400000Y-60120000D02*
X93400000Y-59870000D01*
X93400000Y-59870000D02*
X93400000Y-59370000D01*
X93400000Y-59370000D02*
X93050000Y-59370000D01*
X93050000Y-59370000D02*
X93050000Y-60120000D01*
X93050000Y-60120000D02*
X88750000Y-60120000D01*
X88750000Y-60120000D02*
X88750000Y-59370000D01*
X94500000Y-47900000D02*
X95750000Y-47900000D01*
X95750000Y-47900000D02*
X95750000Y-49900000D01*
G04 #@! TO.C,J2*
X22249845Y-49250353D02*
G75*
G03X22250000Y-50750000I1700155J-749647D01*
G01*
X22249845Y-45440353D02*
G75*
G03X22250000Y-46940000I1700155J-749647D01*
G01*
X22249845Y-41630353D02*
G75*
G03X22250000Y-43130000I1700155J-749647D01*
G01*
X15670000Y-52680000D02*
X23080000Y-52680000D01*
X23080000Y-52680000D02*
X23080000Y-39700000D01*
X23080000Y-39700000D02*
X15670000Y-39700000D01*
X15670000Y-39700000D02*
X15670000Y-52680000D01*
X22250000Y-50750000D02*
X22250000Y-51500000D01*
X22250000Y-51500000D02*
X17950000Y-51500000D01*
X17950000Y-51500000D02*
X17950000Y-50750000D01*
X17950000Y-50750000D02*
X17600000Y-50750000D01*
X17600000Y-50750000D02*
X17600000Y-51250000D01*
X17600000Y-51250000D02*
X16600000Y-51500000D01*
X16600000Y-51500000D02*
X16600000Y-48500000D01*
X16600000Y-48500000D02*
X17600000Y-48750000D01*
X17600000Y-48750000D02*
X17600000Y-49250000D01*
X17600000Y-49250000D02*
X17950000Y-49250000D01*
X17950000Y-49250000D02*
X17950000Y-48500000D01*
X17950000Y-48500000D02*
X22250000Y-48500000D01*
X22250000Y-48500000D02*
X22250000Y-49250000D01*
X22250000Y-46940000D02*
X22250000Y-47690000D01*
X22250000Y-47690000D02*
X17950000Y-47690000D01*
X17950000Y-47690000D02*
X17950000Y-46940000D01*
X17950000Y-46940000D02*
X17600000Y-46940000D01*
X17600000Y-46940000D02*
X17600000Y-47440000D01*
X17600000Y-47440000D02*
X16600000Y-47690000D01*
X16600000Y-47690000D02*
X16600000Y-44690000D01*
X16600000Y-44690000D02*
X17600000Y-44940000D01*
X17600000Y-44940000D02*
X17600000Y-45440000D01*
X17600000Y-45440000D02*
X17950000Y-45440000D01*
X17950000Y-45440000D02*
X17950000Y-44690000D01*
X17950000Y-44690000D02*
X22250000Y-44690000D01*
X22250000Y-44690000D02*
X22250000Y-45440000D01*
X22250000Y-43130000D02*
X22250000Y-43880000D01*
X22250000Y-43880000D02*
X17950000Y-43880000D01*
X17950000Y-43880000D02*
X17950000Y-43130000D01*
X17950000Y-43130000D02*
X17600000Y-43130000D01*
X17600000Y-43130000D02*
X17600000Y-43630000D01*
X17600000Y-43630000D02*
X16600000Y-43880000D01*
X16600000Y-43880000D02*
X16600000Y-40880000D01*
X16600000Y-40880000D02*
X17600000Y-41130000D01*
X17600000Y-41130000D02*
X17600000Y-41630000D01*
X17600000Y-41630000D02*
X17950000Y-41630000D01*
X17950000Y-41630000D02*
X17950000Y-40880000D01*
X17950000Y-40880000D02*
X22250000Y-40880000D01*
X22250000Y-40880000D02*
X22250000Y-41630000D01*
X16500000Y-53100000D02*
X15250000Y-53100000D01*
X15250000Y-53100000D02*
X15250000Y-51100000D01*
G04 #@! TO.C,J3*
X15250000Y-38410000D02*
X15250000Y-36410000D01*
X16500000Y-38410000D02*
X15250000Y-38410000D01*
X22250000Y-26190000D02*
X22250000Y-26940000D01*
X17950000Y-26190000D02*
X22250000Y-26190000D01*
X17950000Y-26940000D02*
X17950000Y-26190000D01*
X17600000Y-26940000D02*
X17950000Y-26940000D01*
X17600000Y-26440000D02*
X17600000Y-26940000D01*
X16600000Y-26190000D02*
X17600000Y-26440000D01*
X16600000Y-29190000D02*
X16600000Y-26190000D01*
X17600000Y-28940000D02*
X16600000Y-29190000D01*
X17600000Y-28440000D02*
X17600000Y-28940000D01*
X17950000Y-28440000D02*
X17600000Y-28440000D01*
X17950000Y-29190000D02*
X17950000Y-28440000D01*
X22250000Y-29190000D02*
X17950000Y-29190000D01*
X22250000Y-28440000D02*
X22250000Y-29190000D01*
X22250000Y-30000000D02*
X22250000Y-30750000D01*
X17950000Y-30000000D02*
X22250000Y-30000000D01*
X17950000Y-30750000D02*
X17950000Y-30000000D01*
X17600000Y-30750000D02*
X17950000Y-30750000D01*
X17600000Y-30250000D02*
X17600000Y-30750000D01*
X16600000Y-30000000D02*
X17600000Y-30250000D01*
X16600000Y-33000000D02*
X16600000Y-30000000D01*
X17600000Y-32750000D02*
X16600000Y-33000000D01*
X17600000Y-32250000D02*
X17600000Y-32750000D01*
X17950000Y-32250000D02*
X17600000Y-32250000D01*
X17950000Y-33000000D02*
X17950000Y-32250000D01*
X22250000Y-33000000D02*
X17950000Y-33000000D01*
X22250000Y-32250000D02*
X22250000Y-33000000D01*
X22250000Y-33810000D02*
X22250000Y-34560000D01*
X17950000Y-33810000D02*
X22250000Y-33810000D01*
X17950000Y-34560000D02*
X17950000Y-33810000D01*
X17600000Y-34560000D02*
X17950000Y-34560000D01*
X17600000Y-34060000D02*
X17600000Y-34560000D01*
X16600000Y-33810000D02*
X17600000Y-34060000D01*
X16600000Y-36810000D02*
X16600000Y-33810000D01*
X17600000Y-36560000D02*
X16600000Y-36810000D01*
X17600000Y-36060000D02*
X17600000Y-36560000D01*
X17950000Y-36060000D02*
X17600000Y-36060000D01*
X17950000Y-36810000D02*
X17950000Y-36060000D01*
X22250000Y-36810000D02*
X17950000Y-36810000D01*
X22250000Y-36060000D02*
X22250000Y-36810000D01*
X15670000Y-25010000D02*
X15670000Y-37990000D01*
X23080000Y-25010000D02*
X15670000Y-25010000D01*
X23080000Y-37990000D02*
X23080000Y-25010000D01*
X15670000Y-37990000D02*
X23080000Y-37990000D01*
X22249845Y-26940353D02*
G75*
G03X22250000Y-28440000I1700155J-749647D01*
G01*
X22249845Y-30750353D02*
G75*
G03X22250000Y-32250000I1700155J-749647D01*
G01*
X22249845Y-34560353D02*
G75*
G03X22250000Y-36060000I1700155J-749647D01*
G01*
G04 #@! TO.C,J4*
X26630000Y-27170000D02*
X26630000Y-29830000D01*
X29230000Y-27170000D02*
X26630000Y-27170000D01*
X29230000Y-29830000D02*
X26630000Y-29830000D01*
X29230000Y-27170000D02*
X29230000Y-29830000D01*
X30500000Y-27170000D02*
X31830000Y-27170000D01*
X31830000Y-27170000D02*
X31830000Y-28500000D01*
G04 #@! TO.C,J5*
X40670000Y-52330000D02*
X43330000Y-52330000D01*
X40670000Y-49730000D02*
X40670000Y-52330000D01*
X43330000Y-49730000D02*
X43330000Y-52330000D01*
X40670000Y-49730000D02*
X43330000Y-49730000D01*
X40670000Y-48460000D02*
X40670000Y-47130000D01*
X40670000Y-47130000D02*
X42000000Y-47130000D01*
G04 #@! TO.C,J6*
X35130000Y-27170000D02*
X35130000Y-29830000D01*
X37730000Y-27170000D02*
X35130000Y-27170000D01*
X37730000Y-29830000D02*
X35130000Y-29830000D01*
X37730000Y-27170000D02*
X37730000Y-29830000D01*
X39000000Y-27170000D02*
X40330000Y-27170000D01*
X40330000Y-27170000D02*
X40330000Y-28500000D01*
G04 #@! TO.C,J7*
X57830000Y-25670000D02*
X57830000Y-27000000D01*
X56500000Y-25670000D02*
X57830000Y-25670000D01*
X55230000Y-25670000D02*
X55230000Y-28330000D01*
X55230000Y-28330000D02*
X52630000Y-28330000D01*
X55230000Y-25670000D02*
X52630000Y-25670000D01*
X52630000Y-25670000D02*
X52630000Y-28330000D01*
G04 #@! TO.C,J8*
X75830000Y-37130000D02*
X73170000Y-37130000D01*
X75830000Y-39730000D02*
X75830000Y-37130000D01*
X73170000Y-39730000D02*
X73170000Y-37130000D01*
X75830000Y-39730000D02*
X73170000Y-39730000D01*
X75830000Y-41000000D02*
X75830000Y-42330000D01*
X75830000Y-42330000D02*
X74500000Y-42330000D01*
G04 #@! TO.C,J9*
X95750000Y-33400000D02*
X95750000Y-35400000D01*
X94500000Y-33400000D02*
X95750000Y-33400000D01*
X88750000Y-45620000D02*
X88750000Y-44870000D01*
X93050000Y-45620000D02*
X88750000Y-45620000D01*
X93050000Y-44870000D02*
X93050000Y-45620000D01*
X93400000Y-44870000D02*
X93050000Y-44870000D01*
X93400000Y-45370000D02*
X93400000Y-44870000D01*
X94400000Y-45620000D02*
X93400000Y-45370000D01*
X94400000Y-42620000D02*
X94400000Y-45620000D01*
X93400000Y-42870000D02*
X94400000Y-42620000D01*
X93400000Y-43370000D02*
X93400000Y-42870000D01*
X93050000Y-43370000D02*
X93400000Y-43370000D01*
X93050000Y-42620000D02*
X93050000Y-43370000D01*
X88750000Y-42620000D02*
X93050000Y-42620000D01*
X88750000Y-43370000D02*
X88750000Y-42620000D01*
X88750000Y-41810000D02*
X88750000Y-41060000D01*
X93050000Y-41810000D02*
X88750000Y-41810000D01*
X93050000Y-41060000D02*
X93050000Y-41810000D01*
X93400000Y-41060000D02*
X93050000Y-41060000D01*
X93400000Y-41560000D02*
X93400000Y-41060000D01*
X94400000Y-41810000D02*
X93400000Y-41560000D01*
X94400000Y-38810000D02*
X94400000Y-41810000D01*
X93400000Y-39060000D02*
X94400000Y-38810000D01*
X93400000Y-39560000D02*
X93400000Y-39060000D01*
X93050000Y-39560000D02*
X93400000Y-39560000D01*
X93050000Y-38810000D02*
X93050000Y-39560000D01*
X88750000Y-38810000D02*
X93050000Y-38810000D01*
X88750000Y-39560000D02*
X88750000Y-38810000D01*
X88750000Y-38000000D02*
X88750000Y-37250000D01*
X93050000Y-38000000D02*
X88750000Y-38000000D01*
X93050000Y-37250000D02*
X93050000Y-38000000D01*
X93400000Y-37250000D02*
X93050000Y-37250000D01*
X93400000Y-37750000D02*
X93400000Y-37250000D01*
X94400000Y-38000000D02*
X93400000Y-37750000D01*
X94400000Y-35000000D02*
X94400000Y-38000000D01*
X93400000Y-35250000D02*
X94400000Y-35000000D01*
X93400000Y-35750000D02*
X93400000Y-35250000D01*
X93050000Y-35750000D02*
X93400000Y-35750000D01*
X93050000Y-35000000D02*
X93050000Y-35750000D01*
X88750000Y-35000000D02*
X93050000Y-35000000D01*
X88750000Y-35750000D02*
X88750000Y-35000000D01*
X95330000Y-46800000D02*
X95330000Y-33820000D01*
X87920000Y-46800000D02*
X95330000Y-46800000D01*
X87920000Y-33820000D02*
X87920000Y-46800000D01*
X95330000Y-33820000D02*
X87920000Y-33820000D01*
X88750155Y-44869647D02*
G75*
G03X88750000Y-43370000I-1700155J749647D01*
G01*
X88750155Y-41059647D02*
G75*
G03X88750000Y-39560000I-1700155J749647D01*
G01*
X88750155Y-37249647D02*
G75*
G03X88750000Y-35750000I-1700155J749647D01*
G01*
G04 #@! TO.C,J10*
X90830000Y-31330000D02*
X89500000Y-31330000D01*
X90830000Y-30000000D02*
X90830000Y-31330000D01*
X90830000Y-28730000D02*
X88170000Y-28730000D01*
X88170000Y-28730000D02*
X88170000Y-26130000D01*
X90830000Y-28730000D02*
X90830000Y-26130000D01*
X90830000Y-26130000D02*
X88170000Y-26130000D01*
G04 #@! TO.C,U1*
X71940000Y-44530000D02*
X61440000Y-44530000D01*
X71940000Y-54930000D02*
X71940000Y-44530000D01*
X61440000Y-54930000D02*
X71940000Y-54930000D01*
X61440000Y-44530000D02*
X61440000Y-54930000D01*
X68940000Y-44590000D02*
X67690000Y-44590000D01*
X68940000Y-54870000D02*
X68940000Y-44590000D01*
X64440000Y-54870000D02*
X68940000Y-54870000D01*
X64440000Y-44590000D02*
X64440000Y-54870000D01*
X65690000Y-44590000D02*
X64440000Y-44590000D01*
X67690000Y-44590000D02*
G75*
G02X65690000Y-44590000I-1000000J0D01*
G01*
D12*
G04 #@! TO.C,R1*
X31300400Y-33742060D02*
X29649400Y-33742060D01*
X31300400Y-33742060D02*
X32951400Y-33742060D01*
X29649400Y-31257940D02*
X32951400Y-31257940D01*
G04 #@! TO.C,R2*
X30347700Y-57257940D02*
X33649700Y-57257940D01*
X31998700Y-59742060D02*
X33649700Y-59742060D01*
X31998700Y-59742060D02*
X30347700Y-59742060D01*
G04 #@! TO.C,R3*
X30350300Y-49257940D02*
X33652300Y-49257940D01*
X32001300Y-51742060D02*
X33652300Y-51742060D01*
X32001300Y-51742060D02*
X30350300Y-51742060D01*
G04 #@! TO.C,R4*
X31998700Y-43742060D02*
X30347700Y-43742060D01*
X31998700Y-43742060D02*
X33649700Y-43742060D01*
X30347700Y-41257940D02*
X33649700Y-41257940D01*
G04 #@! TO.C,R5*
X37849000Y-35757940D02*
X41151000Y-35757940D01*
X39500000Y-38242060D02*
X41151000Y-38242060D01*
X39500000Y-38242060D02*
X37849000Y-38242060D01*
G04 #@! TO.C,R6*
X50257940Y-44000000D02*
X50257940Y-42349000D01*
X50257940Y-44000000D02*
X50257940Y-45651000D01*
X52742060Y-42349000D02*
X52742060Y-45651000D01*
G04 #@! TO.C,R7*
X47257940Y-57001300D02*
X47257940Y-55350300D01*
X47257940Y-57001300D02*
X47257940Y-58652300D01*
X49742060Y-55350300D02*
X49742060Y-58652300D01*
G04 #@! TO.C,R8*
X54849000Y-33757940D02*
X58151000Y-33757940D01*
X56500000Y-36242060D02*
X58151000Y-36242060D01*
X56500000Y-36242060D02*
X54849000Y-36242060D01*
G04 #@! TO.C,R9*
X57000000Y-62242060D02*
X55349000Y-62242060D01*
X57000000Y-62242060D02*
X58651000Y-62242060D01*
X55349000Y-59757940D02*
X58651000Y-59757940D01*
G04 #@! TO.C,R10*
X72149700Y-62242060D02*
X68847700Y-62242060D01*
X70498700Y-59757940D02*
X68847700Y-59757940D01*
X70498700Y-59757940D02*
X72149700Y-59757940D01*
G04 #@! TO.C,R11*
X81242060Y-33850300D02*
X81242060Y-37152300D01*
X78757940Y-35501300D02*
X78757940Y-37152300D01*
X78757940Y-35501300D02*
X78757940Y-33850300D01*
G04 #@! TO.C,R12*
X78757940Y-50000000D02*
X78757940Y-48349000D01*
X78757940Y-50000000D02*
X78757940Y-51651000D01*
X81242060Y-48349000D02*
X81242060Y-51651000D01*
D13*
G04 #@! TO.C,C1*
X25440000Y-34690000D02*
X32560000Y-34690000D01*
X25440000Y-39310000D02*
X32560000Y-39310000D01*
X25440000Y-34690000D02*
X25440000Y-39310000D01*
X32560000Y-34690000D02*
X32560000Y-39310000D01*
G04 #@! TO.C,C2*
X26940000Y-64810000D02*
X26940000Y-60190000D01*
X34060000Y-64810000D02*
X34060000Y-60190000D01*
X34060000Y-60190000D02*
X26940000Y-60190000D01*
X34060000Y-64810000D02*
X26940000Y-64810000D01*
G04 #@! TO.C,C3*
X26940000Y-56810000D02*
X26940000Y-52190000D01*
X34060000Y-56810000D02*
X34060000Y-52190000D01*
X34060000Y-52190000D02*
X26940000Y-52190000D01*
X34060000Y-56810000D02*
X26940000Y-56810000D01*
G04 #@! TO.C,C4*
X26940000Y-48810000D02*
X26940000Y-44190000D01*
X34060000Y-48810000D02*
X34060000Y-44190000D01*
X34060000Y-44190000D02*
X26940000Y-44190000D01*
X34060000Y-48810000D02*
X26940000Y-48810000D01*
G04 #@! TO.C,C5*
X45560000Y-30690000D02*
X45560000Y-35310000D01*
X38440000Y-30690000D02*
X38440000Y-35310000D01*
X38440000Y-35310000D02*
X45560000Y-35310000D01*
X38440000Y-30690000D02*
X45560000Y-30690000D01*
G04 #@! TO.C,C6*
X54690000Y-48940000D02*
X59310000Y-48940000D01*
X54690000Y-56060000D02*
X59310000Y-56060000D01*
X59310000Y-56060000D02*
X59310000Y-48940000D01*
X54690000Y-56060000D02*
X54690000Y-48940000D01*
G04 #@! TO.C,C7*
X51440000Y-28690000D02*
X58560000Y-28690000D01*
X51440000Y-33310000D02*
X58560000Y-33310000D01*
X51440000Y-28690000D02*
X51440000Y-33310000D01*
X58560000Y-28690000D02*
X58560000Y-33310000D01*
G04 #@! TO.C,C8*
X86810000Y-37440000D02*
X86810000Y-44560000D01*
X82190000Y-37440000D02*
X82190000Y-44560000D01*
X86810000Y-37440000D02*
X82190000Y-37440000D01*
X86810000Y-44560000D02*
X82190000Y-44560000D01*
G04 #@! TO.C,C9*
X86810000Y-46940000D02*
X86810000Y-54060000D01*
X82190000Y-46940000D02*
X82190000Y-54060000D01*
X86810000Y-46940000D02*
X82190000Y-46940000D01*
X86810000Y-54060000D02*
X82190000Y-54060000D01*
G04 #@! TO.C,C10*
X61440000Y-37190000D02*
X68560000Y-37190000D01*
X61440000Y-41810000D02*
X68560000Y-41810000D01*
X61440000Y-37190000D02*
X61440000Y-41810000D01*
X68560000Y-37190000D02*
X68560000Y-41810000D01*
G04 #@! TO.C,J1*
D12*
X86452380Y-61833333D02*
X87166666Y-61833333D01*
X87309523Y-61880952D01*
X87404761Y-61976190D01*
X87452380Y-62119047D01*
X87452380Y-62214285D01*
X87452380Y-60833333D02*
X87452380Y-61404761D01*
X87452380Y-61119047D02*
X86452380Y-61119047D01*
X86595238Y-61214285D01*
X86690476Y-61309523D01*
X86738095Y-61404761D01*
G04 #@! TO.C,J2*
X15952380Y-54833333D02*
X16666666Y-54833333D01*
X16809523Y-54880952D01*
X16904761Y-54976190D01*
X16952380Y-55119047D01*
X16952380Y-55214285D01*
X16047619Y-54404761D02*
X16000000Y-54357142D01*
X15952380Y-54261904D01*
X15952380Y-54023809D01*
X16000000Y-53928571D01*
X16047619Y-53880952D01*
X16142857Y-53833333D01*
X16238095Y-53833333D01*
X16380952Y-53880952D01*
X16952380Y-54452380D01*
X16952380Y-53833333D01*
G04 #@! TO.C,J3*
X15952380Y-39333333D02*
X16666666Y-39333333D01*
X16809523Y-39380952D01*
X16904761Y-39476190D01*
X16952380Y-39619047D01*
X16952380Y-39714285D01*
X15952380Y-38952380D02*
X15952380Y-38333333D01*
X16333333Y-38666666D01*
X16333333Y-38523809D01*
X16380952Y-38428571D01*
X16428571Y-38380952D01*
X16523809Y-38333333D01*
X16761904Y-38333333D01*
X16857142Y-38380952D01*
X16904761Y-38428571D01*
X16952380Y-38523809D01*
X16952380Y-38809523D01*
X16904761Y-38904761D01*
X16857142Y-38952380D01*
G04 #@! TO.C,J4*
X32282380Y-28833333D02*
X32996666Y-28833333D01*
X33139523Y-28880952D01*
X33234761Y-28976190D01*
X33282380Y-29119047D01*
X33282380Y-29214285D01*
X32615714Y-27928571D02*
X33282380Y-27928571D01*
X32234761Y-28166666D02*
X32949047Y-28404761D01*
X32949047Y-27785714D01*
G04 #@! TO.C,J5*
X41666666Y-53452380D02*
X41666666Y-54166666D01*
X41619047Y-54309523D01*
X41523809Y-54404761D01*
X41380952Y-54452380D01*
X41285714Y-54452380D01*
X42619047Y-53452380D02*
X42142857Y-53452380D01*
X42095238Y-53928571D01*
X42142857Y-53880952D01*
X42238095Y-53833333D01*
X42476190Y-53833333D01*
X42571428Y-53880952D01*
X42619047Y-53928571D01*
X42666666Y-54023809D01*
X42666666Y-54261904D01*
X42619047Y-54357142D01*
X42571428Y-54404761D01*
X42476190Y-54452380D01*
X42238095Y-54452380D01*
X42142857Y-54404761D01*
X42095238Y-54357142D01*
G04 #@! TO.C,J6*
X40782380Y-28833333D02*
X41496666Y-28833333D01*
X41639523Y-28880952D01*
X41734761Y-28976190D01*
X41782380Y-29119047D01*
X41782380Y-29214285D01*
X40782380Y-27928571D02*
X40782380Y-28119047D01*
X40830000Y-28214285D01*
X40877619Y-28261904D01*
X41020476Y-28357142D01*
X41210952Y-28404761D01*
X41591904Y-28404761D01*
X41687142Y-28357142D01*
X41734761Y-28309523D01*
X41782380Y-28214285D01*
X41782380Y-28023809D01*
X41734761Y-27928571D01*
X41687142Y-27880952D01*
X41591904Y-27833333D01*
X41353809Y-27833333D01*
X41258571Y-27880952D01*
X41210952Y-27928571D01*
X41163333Y-28023809D01*
X41163333Y-28214285D01*
X41210952Y-28309523D01*
X41258571Y-28357142D01*
X41353809Y-28404761D01*
G04 #@! TO.C,J7*
X58952380Y-27333333D02*
X59666666Y-27333333D01*
X59809523Y-27380952D01*
X59904761Y-27476190D01*
X59952380Y-27619047D01*
X59952380Y-27714285D01*
X58952380Y-26952380D02*
X58952380Y-26285714D01*
X59952380Y-26714285D01*
G04 #@! TO.C,J8*
X73666666Y-42952380D02*
X73666666Y-43666666D01*
X73619047Y-43809523D01*
X73523809Y-43904761D01*
X73380952Y-43952380D01*
X73285714Y-43952380D01*
X74285714Y-43380952D02*
X74190476Y-43333333D01*
X74142857Y-43285714D01*
X74095238Y-43190476D01*
X74095238Y-43142857D01*
X74142857Y-43047619D01*
X74190476Y-43000000D01*
X74285714Y-42952380D01*
X74476190Y-42952380D01*
X74571428Y-43000000D01*
X74619047Y-43047619D01*
X74666666Y-43142857D01*
X74666666Y-43190476D01*
X74619047Y-43285714D01*
X74571428Y-43333333D01*
X74476190Y-43380952D01*
X74285714Y-43380952D01*
X74190476Y-43428571D01*
X74142857Y-43476190D01*
X74095238Y-43571428D01*
X74095238Y-43761904D01*
X74142857Y-43857142D01*
X74190476Y-43904761D01*
X74285714Y-43952380D01*
X74476190Y-43952380D01*
X74571428Y-43904761D01*
X74619047Y-43857142D01*
X74666666Y-43761904D01*
X74666666Y-43571428D01*
X74619047Y-43476190D01*
X74571428Y-43428571D01*
X74476190Y-43380952D01*
G04 #@! TO.C,J9*
X92952380Y-32333333D02*
X93666666Y-32333333D01*
X93809523Y-32380952D01*
X93904761Y-32476190D01*
X93952380Y-32619047D01*
X93952380Y-32714285D01*
X93952380Y-31809523D02*
X93952380Y-31619047D01*
X93904761Y-31523809D01*
X93857142Y-31476190D01*
X93714285Y-31380952D01*
X93523809Y-31333333D01*
X93142857Y-31333333D01*
X93047619Y-31380952D01*
X93000000Y-31428571D01*
X92952380Y-31523809D01*
X92952380Y-31714285D01*
X93000000Y-31809523D01*
X93047619Y-31857142D01*
X93142857Y-31904761D01*
X93380952Y-31904761D01*
X93476190Y-31857142D01*
X93523809Y-31809523D01*
X93571428Y-31714285D01*
X93571428Y-31523809D01*
X93523809Y-31428571D01*
X93476190Y-31380952D01*
X93380952Y-31333333D01*
G04 #@! TO.C,J10*
X92190476Y-26952380D02*
X92190476Y-27666666D01*
X92142857Y-27809523D01*
X92047619Y-27904761D01*
X91904761Y-27952380D01*
X91809523Y-27952380D01*
X93190476Y-27952380D02*
X92619047Y-27952380D01*
X92904761Y-27952380D02*
X92904761Y-26952380D01*
X92809523Y-27095238D01*
X92714285Y-27190476D01*
X92619047Y-27238095D01*
X93809523Y-26952380D02*
X93904761Y-26952380D01*
X94000000Y-27000000D01*
X94047619Y-27047619D01*
X94095238Y-27142857D01*
X94142857Y-27333333D01*
X94142857Y-27571428D01*
X94095238Y-27761904D01*
X94047619Y-27857142D01*
X94000000Y-27904761D01*
X93904761Y-27952380D01*
X93809523Y-27952380D01*
X93714285Y-27904761D01*
X93666666Y-27857142D01*
X93619047Y-27761904D01*
X93571428Y-27571428D01*
X93571428Y-27333333D01*
X93619047Y-27142857D01*
X93666666Y-27047619D01*
X93714285Y-27000000D01*
X93809523Y-26952380D01*
G04 #@! TO.C,U1*
X65928095Y-43042380D02*
X65928095Y-43851904D01*
X65975714Y-43947142D01*
X66023333Y-43994761D01*
X66118571Y-44042380D01*
X66309047Y-44042380D01*
X66404285Y-43994761D01*
X66451904Y-43947142D01*
X66499523Y-43851904D01*
X66499523Y-43042380D01*
X67499523Y-44042380D02*
X66928095Y-44042380D01*
X67213809Y-44042380D02*
X67213809Y-43042380D01*
X67118571Y-43185238D01*
X67023333Y-43280476D01*
X66928095Y-43328095D01*
G04 #@! TO.C,R1*
X33833333Y-30952380D02*
X33500000Y-30476190D01*
X33261904Y-30952380D02*
X33261904Y-29952380D01*
X33642857Y-29952380D01*
X33738095Y-30000000D01*
X33785714Y-30047619D01*
X33833333Y-30142857D01*
X33833333Y-30285714D01*
X33785714Y-30380952D01*
X33738095Y-30428571D01*
X33642857Y-30476190D01*
X33261904Y-30476190D01*
X34785714Y-30952380D02*
X34214285Y-30952380D01*
X34500000Y-30952380D02*
X34500000Y-29952380D01*
X34404761Y-30095238D01*
X34309523Y-30190476D01*
X34214285Y-30238095D01*
G04 #@! TO.C,R2*
X36833333Y-56952380D02*
X36500000Y-56476190D01*
X36261904Y-56952380D02*
X36261904Y-55952380D01*
X36642857Y-55952380D01*
X36738095Y-56000000D01*
X36785714Y-56047619D01*
X36833333Y-56142857D01*
X36833333Y-56285714D01*
X36785714Y-56380952D01*
X36738095Y-56428571D01*
X36642857Y-56476190D01*
X36261904Y-56476190D01*
X37214285Y-56047619D02*
X37261904Y-56000000D01*
X37357142Y-55952380D01*
X37595238Y-55952380D01*
X37690476Y-56000000D01*
X37738095Y-56047619D01*
X37785714Y-56142857D01*
X37785714Y-56238095D01*
X37738095Y-56380952D01*
X37166666Y-56952380D01*
X37785714Y-56952380D01*
G04 #@! TO.C,R3*
X36833333Y-48952380D02*
X36500000Y-48476190D01*
X36261904Y-48952380D02*
X36261904Y-47952380D01*
X36642857Y-47952380D01*
X36738095Y-48000000D01*
X36785714Y-48047619D01*
X36833333Y-48142857D01*
X36833333Y-48285714D01*
X36785714Y-48380952D01*
X36738095Y-48428571D01*
X36642857Y-48476190D01*
X36261904Y-48476190D01*
X37166666Y-47952380D02*
X37785714Y-47952380D01*
X37452380Y-48333333D01*
X37595238Y-48333333D01*
X37690476Y-48380952D01*
X37738095Y-48428571D01*
X37785714Y-48523809D01*
X37785714Y-48761904D01*
X37738095Y-48857142D01*
X37690476Y-48904761D01*
X37595238Y-48952380D01*
X37309523Y-48952380D01*
X37214285Y-48904761D01*
X37166666Y-48857142D01*
G04 #@! TO.C,R4*
X39833333Y-42452380D02*
X39500000Y-41976190D01*
X39261904Y-42452380D02*
X39261904Y-41452380D01*
X39642857Y-41452380D01*
X39738095Y-41500000D01*
X39785714Y-41547619D01*
X39833333Y-41642857D01*
X39833333Y-41785714D01*
X39785714Y-41880952D01*
X39738095Y-41928571D01*
X39642857Y-41976190D01*
X39261904Y-41976190D01*
X40690476Y-41785714D02*
X40690476Y-42452380D01*
X40452380Y-41404761D02*
X40214285Y-42119047D01*
X40833333Y-42119047D01*
G04 #@! TO.C,R5*
X44833333Y-39952380D02*
X44500000Y-39476190D01*
X44261904Y-39952380D02*
X44261904Y-38952380D01*
X44642857Y-38952380D01*
X44738095Y-39000000D01*
X44785714Y-39047619D01*
X44833333Y-39142857D01*
X44833333Y-39285714D01*
X44785714Y-39380952D01*
X44738095Y-39428571D01*
X44642857Y-39476190D01*
X44261904Y-39476190D01*
X45738095Y-38952380D02*
X45261904Y-38952380D01*
X45214285Y-39428571D01*
X45261904Y-39380952D01*
X45357142Y-39333333D01*
X45595238Y-39333333D01*
X45690476Y-39380952D01*
X45738095Y-39428571D01*
X45785714Y-39523809D01*
X45785714Y-39761904D01*
X45738095Y-39857142D01*
X45690476Y-39904761D01*
X45595238Y-39952380D01*
X45357142Y-39952380D01*
X45261904Y-39904761D01*
X45214285Y-39857142D01*
G04 #@! TO.C,R6*
X54952380Y-40666666D02*
X54476190Y-41000000D01*
X54952380Y-41238095D02*
X53952380Y-41238095D01*
X53952380Y-40857142D01*
X54000000Y-40761904D01*
X54047619Y-40714285D01*
X54142857Y-40666666D01*
X54285714Y-40666666D01*
X54380952Y-40714285D01*
X54428571Y-40761904D01*
X54476190Y-40857142D01*
X54476190Y-41238095D01*
X53952380Y-39809523D02*
X53952380Y-40000000D01*
X54000000Y-40095238D01*
X54047619Y-40142857D01*
X54190476Y-40238095D01*
X54380952Y-40285714D01*
X54761904Y-40285714D01*
X54857142Y-40238095D01*
X54904761Y-40190476D01*
X54952380Y-40095238D01*
X54952380Y-39904761D01*
X54904761Y-39809523D01*
X54857142Y-39761904D01*
X54761904Y-39714285D01*
X54523809Y-39714285D01*
X54428571Y-39761904D01*
X54380952Y-39809523D01*
X54333333Y-39904761D01*
X54333333Y-40095238D01*
X54380952Y-40190476D01*
X54428571Y-40238095D01*
X54523809Y-40285714D01*
G04 #@! TO.C,R7*
X53452380Y-51666706D02*
X52976190Y-52000040D01*
X53452380Y-52238135D02*
X52452380Y-52238135D01*
X52452380Y-51857182D01*
X52500000Y-51761944D01*
X52547619Y-51714325D01*
X52642857Y-51666706D01*
X52785714Y-51666706D01*
X52880952Y-51714325D01*
X52928571Y-51761944D01*
X52976190Y-51857182D01*
X52976190Y-52238135D01*
X52452380Y-51333373D02*
X52452380Y-50666706D01*
X53452380Y-51095278D01*
G04 #@! TO.C,R8*
X61333333Y-33452380D02*
X61000000Y-32976190D01*
X60761904Y-33452380D02*
X60761904Y-32452380D01*
X61142857Y-32452380D01*
X61238095Y-32500000D01*
X61285714Y-32547619D01*
X61333333Y-32642857D01*
X61333333Y-32785714D01*
X61285714Y-32880952D01*
X61238095Y-32928571D01*
X61142857Y-32976190D01*
X60761904Y-32976190D01*
X61904761Y-32880952D02*
X61809523Y-32833333D01*
X61761904Y-32785714D01*
X61714285Y-32690476D01*
X61714285Y-32642857D01*
X61761904Y-32547619D01*
X61809523Y-32500000D01*
X61904761Y-32452380D01*
X62095238Y-32452380D01*
X62190476Y-32500000D01*
X62238095Y-32547619D01*
X62285714Y-32642857D01*
X62285714Y-32690476D01*
X62238095Y-32785714D01*
X62190476Y-32833333D01*
X62095238Y-32880952D01*
X61904761Y-32880952D01*
X61809523Y-32928571D01*
X61761904Y-32976190D01*
X61714285Y-33071428D01*
X61714285Y-33261904D01*
X61761904Y-33357142D01*
X61809523Y-33404761D01*
X61904761Y-33452380D01*
X62095238Y-33452380D01*
X62190476Y-33404761D01*
X62238095Y-33357142D01*
X62285714Y-33261904D01*
X62285714Y-33071428D01*
X62238095Y-32976190D01*
X62190476Y-32928571D01*
X62095238Y-32880952D01*
G04 #@! TO.C,R9*
X56734273Y-63852680D02*
X56400940Y-63376490D01*
X56162844Y-63852680D02*
X56162844Y-62852680D01*
X56543797Y-62852680D01*
X56639035Y-62900300D01*
X56686654Y-62947919D01*
X56734273Y-63043157D01*
X56734273Y-63186014D01*
X56686654Y-63281252D01*
X56639035Y-63328871D01*
X56543797Y-63376490D01*
X56162844Y-63376490D01*
X57210463Y-63852680D02*
X57400940Y-63852680D01*
X57496178Y-63805061D01*
X57543797Y-63757442D01*
X57639035Y-63614585D01*
X57686654Y-63424109D01*
X57686654Y-63043157D01*
X57639035Y-62947919D01*
X57591416Y-62900300D01*
X57496178Y-62852680D01*
X57305701Y-62852680D01*
X57210463Y-62900300D01*
X57162844Y-62947919D01*
X57115225Y-63043157D01*
X57115225Y-63281252D01*
X57162844Y-63376490D01*
X57210463Y-63424109D01*
X57305701Y-63471728D01*
X57496178Y-63471728D01*
X57591416Y-63424109D01*
X57639035Y-63376490D01*
X57686654Y-63281252D01*
G04 #@! TO.C,R10*
X70357102Y-63952380D02*
X70023769Y-63476190D01*
X69785674Y-63952380D02*
X69785674Y-62952380D01*
X70166626Y-62952380D01*
X70261864Y-63000000D01*
X70309483Y-63047619D01*
X70357102Y-63142857D01*
X70357102Y-63285714D01*
X70309483Y-63380952D01*
X70261864Y-63428571D01*
X70166626Y-63476190D01*
X69785674Y-63476190D01*
X71309483Y-63952380D02*
X70738055Y-63952380D01*
X71023769Y-63952380D02*
X71023769Y-62952380D01*
X70928531Y-63095238D01*
X70833293Y-63190476D01*
X70738055Y-63238095D01*
X71928531Y-62952380D02*
X72023769Y-62952380D01*
X72119007Y-63000000D01*
X72166626Y-63047619D01*
X72214245Y-63142857D01*
X72261864Y-63333333D01*
X72261864Y-63571428D01*
X72214245Y-63761904D01*
X72166626Y-63857142D01*
X72119007Y-63904761D01*
X72023769Y-63952380D01*
X71928531Y-63952380D01*
X71833293Y-63904761D01*
X71785674Y-63857142D01*
X71738055Y-63761904D01*
X71690436Y-63571428D01*
X71690436Y-63333333D01*
X71738055Y-63142857D01*
X71785674Y-63047619D01*
X71833293Y-63000000D01*
X71928531Y-62952380D01*
G04 #@! TO.C,R11*
X78052080Y-39642857D02*
X77575890Y-39976190D01*
X78052080Y-40214285D02*
X77052080Y-40214285D01*
X77052080Y-39833333D01*
X77099700Y-39738095D01*
X77147319Y-39690476D01*
X77242557Y-39642857D01*
X77385414Y-39642857D01*
X77480652Y-39690476D01*
X77528271Y-39738095D01*
X77575890Y-39833333D01*
X77575890Y-40214285D01*
X78052080Y-38690476D02*
X78052080Y-39261904D01*
X78052080Y-38976190D02*
X77052080Y-38976190D01*
X77194938Y-39071428D01*
X77290176Y-39166666D01*
X77337795Y-39261904D01*
X78052080Y-37738095D02*
X78052080Y-38309523D01*
X78052080Y-38023809D02*
X77052080Y-38023809D01*
X77194938Y-38119047D01*
X77290176Y-38214285D01*
X77337795Y-38309523D01*
G04 #@! TO.C,R12*
X77952380Y-49642857D02*
X77476190Y-49976190D01*
X77952380Y-50214285D02*
X76952380Y-50214285D01*
X76952380Y-49833333D01*
X77000000Y-49738095D01*
X77047619Y-49690476D01*
X77142857Y-49642857D01*
X77285714Y-49642857D01*
X77380952Y-49690476D01*
X77428571Y-49738095D01*
X77476190Y-49833333D01*
X77476190Y-50214285D01*
X77952380Y-48690476D02*
X77952380Y-49261904D01*
X77952380Y-48976190D02*
X76952380Y-48976190D01*
X77095238Y-49071428D01*
X77190476Y-49166666D01*
X77238095Y-49261904D01*
X77047619Y-48309523D02*
X77000000Y-48261904D01*
X76952380Y-48166666D01*
X76952380Y-47928571D01*
X77000000Y-47833333D01*
X77047619Y-47785714D01*
X77142857Y-47738095D01*
X77238095Y-47738095D01*
X77380952Y-47785714D01*
X77952380Y-48357142D01*
X77952380Y-47738095D01*
G04 #@! TO.C,C1*
X33833333Y-39857142D02*
X33785714Y-39904761D01*
X33642857Y-39952380D01*
X33547619Y-39952380D01*
X33404761Y-39904761D01*
X33309523Y-39809523D01*
X33261904Y-39714285D01*
X33214285Y-39523809D01*
X33214285Y-39380952D01*
X33261904Y-39190476D01*
X33309523Y-39095238D01*
X33404761Y-39000000D01*
X33547619Y-38952380D01*
X33642857Y-38952380D01*
X33785714Y-39000000D01*
X33833333Y-39047619D01*
X34785714Y-39952380D02*
X34214285Y-39952380D01*
X34500000Y-39952380D02*
X34500000Y-38952380D01*
X34404761Y-39095238D01*
X34309523Y-39190476D01*
X34214285Y-39238095D01*
G04 #@! TO.C,C2*
X36333333Y-62357142D02*
X36285714Y-62404761D01*
X36142857Y-62452380D01*
X36047619Y-62452380D01*
X35904761Y-62404761D01*
X35809523Y-62309523D01*
X35761904Y-62214285D01*
X35714285Y-62023809D01*
X35714285Y-61880952D01*
X35761904Y-61690476D01*
X35809523Y-61595238D01*
X35904761Y-61500000D01*
X36047619Y-61452380D01*
X36142857Y-61452380D01*
X36285714Y-61500000D01*
X36333333Y-61547619D01*
X36714285Y-61547619D02*
X36761904Y-61500000D01*
X36857142Y-61452380D01*
X37095238Y-61452380D01*
X37190476Y-61500000D01*
X37238095Y-61547619D01*
X37285714Y-61642857D01*
X37285714Y-61738095D01*
X37238095Y-61880952D01*
X36666666Y-62452380D01*
X37285714Y-62452380D01*
G04 #@! TO.C,C3*
X36333333Y-54357142D02*
X36285714Y-54404761D01*
X36142857Y-54452380D01*
X36047619Y-54452380D01*
X35904761Y-54404761D01*
X35809523Y-54309523D01*
X35761904Y-54214285D01*
X35714285Y-54023809D01*
X35714285Y-53880952D01*
X35761904Y-53690476D01*
X35809523Y-53595238D01*
X35904761Y-53500000D01*
X36047619Y-53452380D01*
X36142857Y-53452380D01*
X36285714Y-53500000D01*
X36333333Y-53547619D01*
X36666666Y-53452380D02*
X37285714Y-53452380D01*
X36952380Y-53833333D01*
X37095238Y-53833333D01*
X37190476Y-53880952D01*
X37238095Y-53928571D01*
X37285714Y-54023809D01*
X37285714Y-54261904D01*
X37238095Y-54357142D01*
X37190476Y-54404761D01*
X37095238Y-54452380D01*
X36809523Y-54452380D01*
X36714285Y-54404761D01*
X36666666Y-54357142D01*
G04 #@! TO.C,C4*
X36333333Y-46857142D02*
X36285714Y-46904761D01*
X36142857Y-46952380D01*
X36047619Y-46952380D01*
X35904761Y-46904761D01*
X35809523Y-46809523D01*
X35761904Y-46714285D01*
X35714285Y-46523809D01*
X35714285Y-46380952D01*
X35761904Y-46190476D01*
X35809523Y-46095238D01*
X35904761Y-46000000D01*
X36047619Y-45952380D01*
X36142857Y-45952380D01*
X36285714Y-46000000D01*
X36333333Y-46047619D01*
X37190476Y-46285714D02*
X37190476Y-46952380D01*
X36952380Y-45904761D02*
X36714285Y-46619047D01*
X37333333Y-46619047D01*
G04 #@! TO.C,C5*
X44833333Y-30357142D02*
X44785714Y-30404761D01*
X44642857Y-30452380D01*
X44547619Y-30452380D01*
X44404761Y-30404761D01*
X44309523Y-30309523D01*
X44261904Y-30214285D01*
X44214285Y-30023809D01*
X44214285Y-29880952D01*
X44261904Y-29690476D01*
X44309523Y-29595238D01*
X44404761Y-29500000D01*
X44547619Y-29452380D01*
X44642857Y-29452380D01*
X44785714Y-29500000D01*
X44833333Y-29547619D01*
X45738095Y-29452380D02*
X45261904Y-29452380D01*
X45214285Y-29928571D01*
X45261904Y-29880952D01*
X45357142Y-29833333D01*
X45595238Y-29833333D01*
X45690476Y-29880952D01*
X45738095Y-29928571D01*
X45785714Y-30023809D01*
X45785714Y-30261904D01*
X45738095Y-30357142D01*
X45690476Y-30404761D01*
X45595238Y-30452380D01*
X45357142Y-30452380D01*
X45261904Y-30404761D01*
X45214285Y-30357142D01*
G04 #@! TO.C,C6*
X60857142Y-53166666D02*
X60904761Y-53214285D01*
X60952380Y-53357142D01*
X60952380Y-53452380D01*
X60904761Y-53595238D01*
X60809523Y-53690476D01*
X60714285Y-53738095D01*
X60523809Y-53785714D01*
X60380952Y-53785714D01*
X60190476Y-53738095D01*
X60095238Y-53690476D01*
X60000000Y-53595238D01*
X59952380Y-53452380D01*
X59952380Y-53357142D01*
X60000000Y-53214285D01*
X60047619Y-53166666D01*
X59952380Y-52309523D02*
X59952380Y-52500000D01*
X60000000Y-52595238D01*
X60047619Y-52642857D01*
X60190476Y-52738095D01*
X60380952Y-52785714D01*
X60761904Y-52785714D01*
X60857142Y-52738095D01*
X60904761Y-52690476D01*
X60952380Y-52595238D01*
X60952380Y-52404761D01*
X60904761Y-52309523D01*
X60857142Y-52261904D01*
X60761904Y-52214285D01*
X60523809Y-52214285D01*
X60428571Y-52261904D01*
X60380952Y-52309523D01*
X60333333Y-52404761D01*
X60333333Y-52595238D01*
X60380952Y-52690476D01*
X60428571Y-52738095D01*
X60523809Y-52785714D01*
G04 #@! TO.C,C7*
X60333333Y-30857142D02*
X60285714Y-30904761D01*
X60142857Y-30952380D01*
X60047619Y-30952380D01*
X59904761Y-30904761D01*
X59809523Y-30809523D01*
X59761904Y-30714285D01*
X59714285Y-30523809D01*
X59714285Y-30380952D01*
X59761904Y-30190476D01*
X59809523Y-30095238D01*
X59904761Y-30000000D01*
X60047619Y-29952380D01*
X60142857Y-29952380D01*
X60285714Y-30000000D01*
X60333333Y-30047619D01*
X60666666Y-29952380D02*
X61333333Y-29952380D01*
X60904761Y-30952380D01*
G04 #@! TO.C,C8*
X88417142Y-41166666D02*
X88464761Y-41214285D01*
X88512380Y-41357142D01*
X88512380Y-41452380D01*
X88464761Y-41595238D01*
X88369523Y-41690476D01*
X88274285Y-41738095D01*
X88083809Y-41785714D01*
X87940952Y-41785714D01*
X87750476Y-41738095D01*
X87655238Y-41690476D01*
X87560000Y-41595238D01*
X87512380Y-41452380D01*
X87512380Y-41357142D01*
X87560000Y-41214285D01*
X87607619Y-41166666D01*
X87940952Y-40595238D02*
X87893333Y-40690476D01*
X87845714Y-40738095D01*
X87750476Y-40785714D01*
X87702857Y-40785714D01*
X87607619Y-40738095D01*
X87560000Y-40690476D01*
X87512380Y-40595238D01*
X87512380Y-40404761D01*
X87560000Y-40309523D01*
X87607619Y-40261904D01*
X87702857Y-40214285D01*
X87750476Y-40214285D01*
X87845714Y-40261904D01*
X87893333Y-40309523D01*
X87940952Y-40404761D01*
X87940952Y-40595238D01*
X87988571Y-40690476D01*
X88036190Y-40738095D01*
X88131428Y-40785714D01*
X88321904Y-40785714D01*
X88417142Y-40738095D01*
X88464761Y-40690476D01*
X88512380Y-40595238D01*
X88512380Y-40404761D01*
X88464761Y-40309523D01*
X88417142Y-40261904D01*
X88321904Y-40214285D01*
X88131428Y-40214285D01*
X88036190Y-40261904D01*
X87988571Y-40309523D01*
X87940952Y-40404761D01*
G04 #@! TO.C,C9*
X88417142Y-50666666D02*
X88464761Y-50714285D01*
X88512380Y-50857142D01*
X88512380Y-50952380D01*
X88464761Y-51095238D01*
X88369523Y-51190476D01*
X88274285Y-51238095D01*
X88083809Y-51285714D01*
X87940952Y-51285714D01*
X87750476Y-51238095D01*
X87655238Y-51190476D01*
X87560000Y-51095238D01*
X87512380Y-50952380D01*
X87512380Y-50857142D01*
X87560000Y-50714285D01*
X87607619Y-50666666D01*
X88512380Y-50190476D02*
X88512380Y-50000000D01*
X88464761Y-49904761D01*
X88417142Y-49857142D01*
X88274285Y-49761904D01*
X88083809Y-49714285D01*
X87702857Y-49714285D01*
X87607619Y-49761904D01*
X87560000Y-49809523D01*
X87512380Y-49904761D01*
X87512380Y-50095238D01*
X87560000Y-50190476D01*
X87607619Y-50238095D01*
X87702857Y-50285714D01*
X87940952Y-50285714D01*
X88036190Y-50238095D01*
X88083809Y-50190476D01*
X88131428Y-50095238D01*
X88131428Y-49904761D01*
X88083809Y-49809523D01*
X88036190Y-49761904D01*
X87940952Y-49714285D01*
G04 #@! TO.C,C10*
X64357142Y-36297142D02*
X64309523Y-36344761D01*
X64166666Y-36392380D01*
X64071428Y-36392380D01*
X63928571Y-36344761D01*
X63833333Y-36249523D01*
X63785714Y-36154285D01*
X63738095Y-35963809D01*
X63738095Y-35820952D01*
X63785714Y-35630476D01*
X63833333Y-35535238D01*
X63928571Y-35440000D01*
X64071428Y-35392380D01*
X64166666Y-35392380D01*
X64309523Y-35440000D01*
X64357142Y-35487619D01*
X65309523Y-36392380D02*
X64738095Y-36392380D01*
X65023809Y-36392380D02*
X65023809Y-35392380D01*
X64928571Y-35535238D01*
X64833333Y-35630476D01*
X64738095Y-35678095D01*
X65928571Y-35392380D02*
X66023809Y-35392380D01*
X66119047Y-35440000D01*
X66166666Y-35487619D01*
X66214285Y-35582857D01*
X66261904Y-35773333D01*
X66261904Y-36011428D01*
X66214285Y-36201904D01*
X66166666Y-36297142D01*
X66119047Y-36344761D01*
X66023809Y-36392380D01*
X65928571Y-36392380D01*
X65833333Y-36344761D01*
X65785714Y-36297142D01*
X65738095Y-36201904D01*
X65690476Y-36011428D01*
X65690476Y-35773333D01*
X65738095Y-35582857D01*
X65785714Y-35487619D01*
X65833333Y-35440000D01*
X65928571Y-35392380D01*
G04 #@! TD*
M02*
