G04 #@! TF.GenerationSoftware,KiCad,Pcbnew,(5.0.0)*
G04 #@! TF.CreationDate,2019-09-20T20:16:55+02:00*
G04 #@! TF.ProjectId,opampprotopcb,6F70616D7070726F746F7063622E6B69,rev?*
G04 #@! TF.SameCoordinates,Original*
G04 #@! TF.FileFunction,Copper,L1,Top,Signal*
G04 #@! TF.FilePolarity,Positive*
%FSLAX46Y46*%
G04 Gerber Fmt 4.6, Leading zero omitted, Abs format (unit mm)*
G04 Created by KiCad (PCBNEW (5.0.0)) date 09/20/19 20:16:55*
%MOMM*%
%LPD*%
G01*
G04 APERTURE LIST*
G04 #@! TA.AperFunction,NonConductor*
%ADD10C,0.300000*%
G04 #@! TD*
G04 #@! TA.AperFunction,SMDPad,CuDef*
%ADD11R,2.000000X1.600000*%
G04 #@! TD*
G04 #@! TA.AperFunction,SMDPad,CuDef*
%ADD12R,1.600000X2.000000*%
G04 #@! TD*
G04 #@! TA.AperFunction,ComponentPad*
%ADD13R,3.600000X1.800000*%
G04 #@! TD*
G04 #@! TA.AperFunction,ComponentPad*
%ADD14O,3.600000X1.800000*%
G04 #@! TD*
G04 #@! TA.AperFunction,ComponentPad*
%ADD15R,1.700000X1.700000*%
G04 #@! TD*
G04 #@! TA.AperFunction,ComponentPad*
%ADD16O,1.700000X1.700000*%
G04 #@! TD*
G04 #@! TA.AperFunction,SMDPad,CuDef*
%ADD17R,2.000000X1.700000*%
G04 #@! TD*
G04 #@! TA.AperFunction,SMDPad,CuDef*
%ADD18R,1.700000X2.000000*%
G04 #@! TD*
G04 #@! TA.AperFunction,SMDPad,CuDef*
%ADD19R,1.550000X0.600000*%
G04 #@! TD*
G04 #@! TA.AperFunction,ViaPad*
%ADD20C,2.000000*%
G04 #@! TD*
G04 #@! TA.AperFunction,Conductor*
%ADD21C,0.350000*%
G04 #@! TD*
G04 #@! TA.AperFunction,Conductor*
%ADD22C,0.650000*%
G04 #@! TD*
G04 APERTURE END LIST*
D10*
X85178571Y-62892857D02*
X84678571Y-62892857D01*
X84678571Y-63678571D02*
X84678571Y-62178571D01*
X85392857Y-62178571D01*
X85964285Y-63678571D02*
X85964285Y-62678571D01*
X85964285Y-62964285D02*
X86035714Y-62821428D01*
X86107142Y-62750000D01*
X86250000Y-62678571D01*
X86392857Y-62678571D01*
X87107142Y-63678571D02*
X86964285Y-63607142D01*
X86892857Y-63535714D01*
X86821428Y-63392857D01*
X86821428Y-62964285D01*
X86892857Y-62821428D01*
X86964285Y-62750000D01*
X87107142Y-62678571D01*
X87321428Y-62678571D01*
X87464285Y-62750000D01*
X87535714Y-62821428D01*
X87607142Y-62964285D01*
X87607142Y-63392857D01*
X87535714Y-63535714D01*
X87464285Y-63607142D01*
X87321428Y-63678571D01*
X87107142Y-63678571D01*
X88250000Y-62678571D02*
X88250000Y-63678571D01*
X88250000Y-62821428D02*
X88321428Y-62750000D01*
X88464285Y-62678571D01*
X88678571Y-62678571D01*
X88821428Y-62750000D01*
X88892857Y-62892857D01*
X88892857Y-63678571D01*
X89392857Y-62678571D02*
X89964285Y-62678571D01*
X89607142Y-62178571D02*
X89607142Y-63464285D01*
X89678571Y-63607142D01*
X89821428Y-63678571D01*
X89964285Y-63678571D01*
X90392857Y-63607142D02*
X90535714Y-63678571D01*
X90821428Y-63678571D01*
X90964285Y-63607142D01*
X91035714Y-63464285D01*
X91035714Y-63392857D01*
X90964285Y-63250000D01*
X90821428Y-63178571D01*
X90607142Y-63178571D01*
X90464285Y-63107142D01*
X90392857Y-62964285D01*
X90392857Y-62892857D01*
X90464285Y-62750000D01*
X90607142Y-62678571D01*
X90821428Y-62678571D01*
X90964285Y-62750000D01*
X91678571Y-63678571D02*
X91678571Y-62678571D01*
X91678571Y-62178571D02*
X91607142Y-62250000D01*
X91678571Y-62321428D01*
X91750000Y-62250000D01*
X91678571Y-62178571D01*
X91678571Y-62321428D01*
X93035714Y-63678571D02*
X93035714Y-62178571D01*
X93035714Y-63607142D02*
X92892857Y-63678571D01*
X92607142Y-63678571D01*
X92464285Y-63607142D01*
X92392857Y-63535714D01*
X92321428Y-63392857D01*
X92321428Y-62964285D01*
X92392857Y-62821428D01*
X92464285Y-62750000D01*
X92607142Y-62678571D01*
X92892857Y-62678571D01*
X93035714Y-62750000D01*
X94321428Y-63607142D02*
X94178571Y-63678571D01*
X93892857Y-63678571D01*
X93750000Y-63607142D01*
X93678571Y-63464285D01*
X93678571Y-62892857D01*
X93750000Y-62750000D01*
X93892857Y-62678571D01*
X94178571Y-62678571D01*
X94321428Y-62750000D01*
X94392857Y-62892857D01*
X94392857Y-63035714D01*
X93678571Y-63178571D01*
D11*
G04 #@! TO.P,C1,2*
G04 #@! TO.N,Net-(C1-Pad2)*
X31500000Y-37000000D03*
G04 #@! TO.P,C1,1*
G04 #@! TO.N,N_INV_In*
X27500000Y-37000000D03*
G04 #@! TD*
G04 #@! TO.P,C2,1*
G04 #@! TO.N,Net-(C2-Pad1)*
X31000000Y-62500000D03*
G04 #@! TO.P,C2,2*
G04 #@! TO.N,INV_In1*
X27000000Y-62500000D03*
G04 #@! TD*
G04 #@! TO.P,C3,2*
G04 #@! TO.N,Net-(C3-Pad2)*
X27000000Y-54500000D03*
G04 #@! TO.P,C3,1*
G04 #@! TO.N,Net-(C2-Pad1)*
X31000000Y-54500000D03*
G04 #@! TD*
G04 #@! TO.P,C4,1*
G04 #@! TO.N,Net-(C2-Pad1)*
X31000000Y-45500000D03*
G04 #@! TO.P,C4,2*
G04 #@! TO.N,Net-(C4-Pad2)*
X27000000Y-45500000D03*
G04 #@! TD*
G04 #@! TO.P,C5,2*
G04 #@! TO.N,Net-(C5-Pad2)*
X41000000Y-34000000D03*
G04 #@! TO.P,C5,1*
G04 #@! TO.N,Net-(C1-Pad2)*
X37000000Y-34000000D03*
G04 #@! TD*
D12*
G04 #@! TO.P,C6,2*
G04 #@! TO.N,Net-(C5-Pad2)*
X51000000Y-47500000D03*
G04 #@! TO.P,C6,1*
G04 #@! TO.N,GND*
X51000000Y-51500000D03*
G04 #@! TD*
D11*
G04 #@! TO.P,C7,1*
G04 #@! TO.N,Net-(C1-Pad2)*
X47500000Y-30500000D03*
G04 #@! TO.P,C7,2*
G04 #@! TO.N,OUTPUT*
X51500000Y-30500000D03*
G04 #@! TD*
D12*
G04 #@! TO.P,C8,1*
G04 #@! TO.N,OUTPUT*
X84500000Y-36500000D03*
G04 #@! TO.P,C8,2*
G04 #@! TO.N,Net-(C2-Pad1)*
X84500000Y-40500000D03*
G04 #@! TD*
G04 #@! TO.P,C9,1*
G04 #@! TO.N,Net-(C2-Pad1)*
X84500000Y-46000000D03*
G04 #@! TO.P,C9,2*
G04 #@! TO.N,GND*
X84500000Y-50000000D03*
G04 #@! TD*
D11*
G04 #@! TO.P,C10,2*
G04 #@! TO.N,VCC*
X61500000Y-37000000D03*
G04 #@! TO.P,C10,1*
G04 #@! TO.N,VEE*
X57500000Y-37000000D03*
G04 #@! TD*
D13*
G04 #@! TO.P,J1,1*
G04 #@! TO.N,VCC*
X91000000Y-51000000D03*
D14*
G04 #@! TO.P,J1,2*
G04 #@! TO.N,GND*
X91000000Y-54810000D03*
G04 #@! TO.P,J1,3*
G04 #@! TO.N,VEE*
X91000000Y-58620000D03*
G04 #@! TD*
D13*
G04 #@! TO.P,J2,1*
G04 #@! TO.N,INV_In1*
X20000000Y-50000000D03*
D14*
G04 #@! TO.P,J2,2*
G04 #@! TO.N,Net-(C3-Pad2)*
X20000000Y-46190000D03*
G04 #@! TO.P,J2,3*
G04 #@! TO.N,Net-(C4-Pad2)*
X20000000Y-42380000D03*
G04 #@! TD*
G04 #@! TO.P,J3,3*
G04 #@! TO.N,VEE*
X20000000Y-27690000D03*
G04 #@! TO.P,J3,2*
G04 #@! TO.N,GND*
X20000000Y-31500000D03*
D13*
G04 #@! TO.P,J3,1*
G04 #@! TO.N,N_INV_In*
X20000000Y-35310000D03*
G04 #@! TD*
D15*
G04 #@! TO.P,J4,1*
G04 #@! TO.N,Net-(C1-Pad2)*
X30500000Y-29500000D03*
D16*
G04 #@! TO.P,J4,2*
G04 #@! TO.N,N_INV_In*
X27960000Y-29500000D03*
G04 #@! TD*
D15*
G04 #@! TO.P,J5,1*
G04 #@! TO.N,Net-(C5-Pad2)*
X42500000Y-47460000D03*
D16*
G04 #@! TO.P,J5,2*
G04 #@! TO.N,GND*
X42500000Y-50000000D03*
G04 #@! TD*
D15*
G04 #@! TO.P,J6,1*
G04 #@! TO.N,Net-(C5-Pad2)*
X40500000Y-29500000D03*
D16*
G04 #@! TO.P,J6,2*
G04 #@! TO.N,Net-(C1-Pad2)*
X37960000Y-29500000D03*
G04 #@! TD*
G04 #@! TO.P,J7,2*
G04 #@! TO.N,Net-(C1-Pad2)*
X47960000Y-27000000D03*
D15*
G04 #@! TO.P,J7,1*
G04 #@! TO.N,OUTPUT*
X50500000Y-27000000D03*
G04 #@! TD*
G04 #@! TO.P,J8,1*
G04 #@! TO.N,GND*
X74500000Y-41000000D03*
D16*
G04 #@! TO.P,J8,2*
G04 #@! TO.N,Net-(J8-Pad2)*
X74500000Y-38460000D03*
G04 #@! TD*
D14*
G04 #@! TO.P,J9,3*
G04 #@! TO.N,VEE*
X91000000Y-44120000D03*
G04 #@! TO.P,J9,2*
G04 #@! TO.N,GND*
X91000000Y-40310000D03*
D13*
G04 #@! TO.P,J9,1*
G04 #@! TO.N,OUTPUT*
X91000000Y-36500000D03*
G04 #@! TD*
D17*
G04 #@! TO.P,R1,2*
G04 #@! TO.N,N_INV_In*
X27500000Y-34000000D03*
G04 #@! TO.P,R1,1*
G04 #@! TO.N,Net-(C1-Pad2)*
X31500000Y-34000000D03*
G04 #@! TD*
G04 #@! TO.P,R2,1*
G04 #@! TO.N,Net-(C2-Pad1)*
X31000000Y-59500000D03*
G04 #@! TO.P,R2,2*
G04 #@! TO.N,INV_In1*
X27000000Y-59500000D03*
G04 #@! TD*
G04 #@! TO.P,R3,1*
G04 #@! TO.N,Net-(C2-Pad1)*
X31000000Y-51500000D03*
G04 #@! TO.P,R3,2*
G04 #@! TO.N,Net-(C3-Pad2)*
X27000000Y-51500000D03*
G04 #@! TD*
G04 #@! TO.P,R4,2*
G04 #@! TO.N,Net-(C4-Pad2)*
X27000000Y-42500000D03*
G04 #@! TO.P,R4,1*
G04 #@! TO.N,Net-(C2-Pad1)*
X31000000Y-42500000D03*
G04 #@! TD*
G04 #@! TO.P,R5,1*
G04 #@! TO.N,Net-(C5-Pad2)*
X41000000Y-37000000D03*
G04 #@! TO.P,R5,2*
G04 #@! TO.N,Net-(C1-Pad2)*
X37000000Y-37000000D03*
G04 #@! TD*
D18*
G04 #@! TO.P,R6,2*
G04 #@! TO.N,VCC*
X47500000Y-38500000D03*
G04 #@! TO.P,R6,1*
G04 #@! TO.N,Net-(C5-Pad2)*
X47500000Y-42500000D03*
G04 #@! TD*
G04 #@! TO.P,R7,1*
G04 #@! TO.N,GND*
X47500000Y-51500000D03*
G04 #@! TO.P,R7,2*
G04 #@! TO.N,Net-(C5-Pad2)*
X47500000Y-47500000D03*
G04 #@! TD*
D17*
G04 #@! TO.P,R8,2*
G04 #@! TO.N,Net-(C1-Pad2)*
X47500000Y-34000000D03*
G04 #@! TO.P,R8,1*
G04 #@! TO.N,OUTPUT*
X51500000Y-34000000D03*
G04 #@! TD*
G04 #@! TO.P,R9,2*
G04 #@! TO.N,VCC*
X56860700Y-52021500D03*
G04 #@! TO.P,R9,1*
G04 #@! TO.N,Net-(R10-Pad2)*
X60860700Y-52021500D03*
G04 #@! TD*
G04 #@! TO.P,R10,1*
G04 #@! TO.N,VEE*
X66360700Y-52021500D03*
G04 #@! TO.P,R10,2*
G04 #@! TO.N,Net-(R10-Pad2)*
X70360700Y-52021500D03*
G04 #@! TD*
D18*
G04 #@! TO.P,R11,1*
G04 #@! TO.N,Net-(C2-Pad1)*
X81500000Y-40500000D03*
G04 #@! TO.P,R11,2*
G04 #@! TO.N,OUTPUT*
X81500000Y-36500000D03*
G04 #@! TD*
G04 #@! TO.P,R12,2*
G04 #@! TO.N,Net-(C2-Pad1)*
X81500000Y-46000000D03*
G04 #@! TO.P,R12,1*
G04 #@! TO.N,GND*
X81500000Y-50000000D03*
G04 #@! TD*
D19*
G04 #@! TO.P,U1,8*
G04 #@! TO.N,VCC*
X62700000Y-42095000D03*
G04 #@! TO.P,U1,7*
G04 #@! TO.N,Net-(J8-Pad2)*
X62700000Y-43365000D03*
G04 #@! TO.P,U1,6*
X62700000Y-44635000D03*
G04 #@! TO.P,U1,5*
G04 #@! TO.N,Net-(R10-Pad2)*
X62700000Y-45905000D03*
G04 #@! TO.P,U1,4*
G04 #@! TO.N,VEE*
X57300000Y-45905000D03*
G04 #@! TO.P,U1,3*
G04 #@! TO.N,Net-(C5-Pad2)*
X57300000Y-44635000D03*
G04 #@! TO.P,U1,2*
G04 #@! TO.N,Net-(C2-Pad1)*
X57300000Y-43365000D03*
G04 #@! TO.P,U1,1*
G04 #@! TO.N,OUTPUT*
X57300000Y-42095000D03*
G04 #@! TD*
D16*
G04 #@! TO.P,J10,2*
G04 #@! TO.N,VEE*
X89500000Y-27460000D03*
D15*
G04 #@! TO.P,J10,1*
G04 #@! TO.N,VCC*
X89500000Y-30000000D03*
G04 #@! TD*
D20*
G04 #@! TO.N,*
X55880000Y-27940000D03*
X58420000Y-27940000D03*
X55880000Y-30480000D03*
X58420000Y-30480000D03*
X55880000Y-33020000D03*
X58420000Y-33020000D03*
X60960000Y-33020000D03*
X60960000Y-30480000D03*
X60960000Y-27940000D03*
X63500000Y-27940000D03*
X63500000Y-30480000D03*
X63500000Y-33020000D03*
X66040000Y-33020000D03*
X66040000Y-30480000D03*
X66040000Y-27940000D03*
X68580000Y-27940000D03*
X68580000Y-30480000D03*
X68580000Y-33020000D03*
X71120000Y-33020000D03*
X71120000Y-30480000D03*
X71120000Y-27940000D03*
X73660000Y-27940000D03*
X73660000Y-30480000D03*
X73660000Y-33020000D03*
X76200000Y-33020000D03*
X76200000Y-30480000D03*
X76200000Y-27940000D03*
X78740000Y-27940000D03*
X78740000Y-30480000D03*
X78740000Y-33020000D03*
X38100000Y-58420000D03*
X38100000Y-60960000D03*
X38100000Y-63500000D03*
X40640000Y-63500000D03*
X40640000Y-60960000D03*
X40640000Y-58420000D03*
X43180000Y-58420000D03*
X43180000Y-60960000D03*
X43180000Y-63500000D03*
X45720000Y-63500000D03*
X48260000Y-63500000D03*
X50800000Y-63500000D03*
X53340000Y-60960000D03*
X53340000Y-63500000D03*
X55880000Y-63500000D03*
X58420000Y-63500000D03*
X55880000Y-60960000D03*
X58420000Y-60960000D03*
X58420000Y-58420000D03*
X55880000Y-58420000D03*
X53340000Y-58420000D03*
X50800000Y-58420000D03*
X48260000Y-58420000D03*
X45720000Y-58420000D03*
X45720000Y-60960000D03*
X48260000Y-60960000D03*
X50800000Y-60960000D03*
X60960000Y-58420000D03*
X60960000Y-60960000D03*
X60960000Y-63500000D03*
X66040000Y-63500000D03*
X63500000Y-63500000D03*
X63500000Y-60960000D03*
X66040000Y-58420000D03*
X66040000Y-60960000D03*
X63500000Y-58420000D03*
X68580000Y-58420000D03*
X68580000Y-60960000D03*
X68580000Y-63500000D03*
X71120000Y-63500000D03*
X71120000Y-60960000D03*
X71120000Y-58420000D03*
X73660000Y-58420000D03*
X73660000Y-60960000D03*
X73660000Y-63500000D03*
X76200000Y-63500000D03*
X76200000Y-60960000D03*
X76200000Y-58420000D03*
X78740000Y-58420000D03*
X78740000Y-60960000D03*
X78740000Y-63500000D03*
X81280000Y-63500000D03*
X81280000Y-60960000D03*
X81280000Y-58420000D03*
G04 #@! TO.N,GND*
X77500000Y-50000000D03*
G04 #@! TO.N,VCC*
X83500000Y-43500000D03*
X64000000Y-37000000D03*
G04 #@! TO.N,VEE*
X55000000Y-38500000D03*
G04 #@! TD*
D21*
G04 #@! TO.N,Net-(C1-Pad2)*
X37000000Y-34000000D02*
X37000000Y-31785300D01*
X37000000Y-31785300D02*
X37960000Y-30825300D01*
X37000000Y-35500000D02*
X37000000Y-34000000D01*
X37000000Y-35500000D02*
X31500000Y-35500000D01*
X37960000Y-29500000D02*
X37960000Y-30825300D01*
X31500000Y-34000000D02*
X31500000Y-32674700D01*
X31500000Y-32674700D02*
X30500000Y-31674700D01*
X30500000Y-31674700D02*
X30500000Y-29500000D01*
X31500000Y-34000000D02*
X31500000Y-35500000D01*
X31500000Y-35500000D02*
X31500000Y-37000000D01*
X37000000Y-37000000D02*
X37000000Y-35500000D01*
X47960000Y-27000000D02*
X46634700Y-27000000D01*
X46449900Y-28174600D02*
X46634700Y-27989800D01*
X46634700Y-27989800D02*
X46634700Y-27000000D01*
X46449900Y-28174600D02*
X47500000Y-29224700D01*
X47500000Y-30500000D02*
X47500000Y-29224700D01*
X47500000Y-34000000D02*
X47500000Y-30500000D01*
X46400299Y-28124999D02*
X46449900Y-28174600D01*
X39335001Y-28124999D02*
X46400299Y-28124999D01*
X37960000Y-29500000D02*
X39335001Y-28124999D01*
G04 #@! TO.N,Net-(C2-Pad1)*
X31000000Y-51500000D02*
X31000000Y-54500000D01*
X31000000Y-50837300D02*
X31000000Y-51500000D01*
X33197800Y-46222500D02*
X32475300Y-45500000D01*
X57300000Y-43365000D02*
X49445100Y-43365000D01*
X49445100Y-43365000D02*
X48174900Y-44635200D01*
X48174900Y-44635200D02*
X42761900Y-44635200D01*
X31000000Y-45500000D02*
X32475300Y-45500000D01*
X81500000Y-46000000D02*
X83224700Y-46000000D01*
X81500000Y-40500000D02*
X81500000Y-46000000D01*
X84500000Y-46000000D02*
X83224700Y-46000000D01*
X81500000Y-40500000D02*
X83224700Y-40500000D01*
X84500000Y-40500000D02*
X83224700Y-40500000D01*
X31000000Y-45500000D02*
X31000000Y-50174700D01*
X31000000Y-50837300D02*
X31000000Y-50174700D01*
X31000000Y-59500000D02*
X31000000Y-54500000D01*
X31000000Y-62500000D02*
X31000000Y-59500000D01*
X31000000Y-42500000D02*
X31000000Y-45500000D01*
X40000000Y-46222500D02*
X33197800Y-46222500D01*
X41174600Y-46222500D02*
X42761900Y-44635200D01*
X40000000Y-46222500D02*
X41174600Y-46222500D01*
X85775300Y-46000000D02*
X84500000Y-46000000D01*
X86500000Y-46724700D02*
X85775300Y-46000000D01*
X86500000Y-50745002D02*
X86500000Y-46724700D01*
X58785000Y-53500000D02*
X59949400Y-54664400D01*
X58785000Y-51150798D02*
X58785000Y-53500000D01*
X59949400Y-54664400D02*
X82580602Y-54664400D01*
X58280701Y-50646499D02*
X58785000Y-51150798D01*
X40000000Y-46222500D02*
X40000000Y-49535002D01*
X55440699Y-50646499D02*
X58280701Y-50646499D01*
X43448598Y-52983600D02*
X43483600Y-52983600D01*
X82580602Y-54664400D02*
X86500000Y-50745002D01*
X43525001Y-53025001D02*
X53062197Y-53025001D01*
X40000000Y-49535002D02*
X43448598Y-52983600D01*
X43483600Y-52983600D02*
X43525001Y-53025001D01*
X53062197Y-53025001D02*
X55440699Y-50646499D01*
G04 #@! TO.N,Net-(C3-Pad2)*
X27000000Y-51500000D02*
X27000000Y-50174700D01*
X20000000Y-46190000D02*
X22275300Y-46190000D01*
X22275300Y-46190000D02*
X26260000Y-50174700D01*
X26260000Y-50174700D02*
X27000000Y-50174700D01*
X27000000Y-51500000D02*
X27000000Y-54500000D01*
G04 #@! TO.N,Net-(C4-Pad2)*
X27000000Y-42500000D02*
X25524700Y-42500000D01*
X20000000Y-42380000D02*
X25404700Y-42380000D01*
X25404700Y-42380000D02*
X25524700Y-42500000D01*
X27000000Y-42500000D02*
X27000000Y-45500000D01*
G04 #@! TO.N,Net-(C5-Pad2)*
X41000000Y-34000000D02*
X41000000Y-37000000D01*
X40500000Y-30825300D02*
X41000000Y-31325300D01*
X41000000Y-31325300D02*
X41000000Y-34000000D01*
X41000000Y-37000000D02*
X41000000Y-38325300D01*
X41000000Y-38325300D02*
X42000000Y-38325300D01*
X42000000Y-38325300D02*
X46174700Y-42500000D01*
X47500000Y-42500000D02*
X46174700Y-42500000D01*
X47500000Y-47500000D02*
X51000000Y-47500000D01*
X52275300Y-47500000D02*
X55140300Y-44635000D01*
X55140300Y-44635000D02*
X57300000Y-44635000D01*
X47500000Y-47500000D02*
X46174700Y-47500000D01*
X42500000Y-47460000D02*
X46134700Y-47460000D01*
X46134700Y-47460000D02*
X46174700Y-47500000D01*
X51000000Y-47500000D02*
X52275300Y-47500000D01*
X40500000Y-29500000D02*
X40500000Y-30825300D01*
G04 #@! TO.N,GND*
X47500000Y-51500000D02*
X51000000Y-51500000D01*
X42500000Y-50000000D02*
X43825300Y-50000000D01*
X47500000Y-51500000D02*
X45325300Y-51500000D01*
X45325300Y-51500000D02*
X43825300Y-50000000D01*
D22*
X74500000Y-41000000D02*
X76000000Y-41000000D01*
X76000000Y-41000000D02*
X77500000Y-42500000D01*
X77500000Y-42500000D02*
X77500000Y-50500000D01*
X77500000Y-50500000D02*
X77500000Y-50500000D01*
X77500000Y-50000000D02*
X81500000Y-50000000D01*
X81500000Y-50000000D02*
X84500000Y-50000000D01*
D21*
G04 #@! TO.N,VCC*
X61500000Y-37134600D02*
X61500000Y-37000000D01*
X61500000Y-37229900D02*
X61500000Y-37134600D01*
D22*
X91000000Y-30000000D02*
X89500000Y-30000000D01*
X93475001Y-32475001D02*
X91000000Y-30000000D01*
X93475001Y-46974999D02*
X93475001Y-32475001D01*
X91000000Y-49450000D02*
X93475001Y-46974999D01*
X91000000Y-51000000D02*
X91000000Y-49450000D01*
X91000000Y-49450000D02*
X85050000Y-43500000D01*
X85050000Y-43500000D02*
X83500000Y-43500000D01*
X83500000Y-43500000D02*
X83500000Y-43500000D01*
X61500000Y-37000000D02*
X64000000Y-37000000D01*
X61500000Y-37000000D02*
X61500000Y-39500000D01*
X62700000Y-40700000D02*
X62700000Y-42095000D01*
X61500000Y-39500000D02*
X62700000Y-40700000D01*
X58853610Y-55514410D02*
X83985590Y-55514410D01*
X56860700Y-52021500D02*
X56860700Y-53521500D01*
X56860700Y-53521500D02*
X58853610Y-55514410D01*
X88500000Y-51000000D02*
X91000000Y-51000000D01*
X83985590Y-55514410D02*
X88500000Y-51000000D01*
X52520998Y-38500000D02*
X47500000Y-38500000D01*
X55495999Y-35524999D02*
X52520998Y-38500000D01*
X61474999Y-35524999D02*
X55495999Y-35524999D01*
X61500000Y-37000000D02*
X61500000Y-35550000D01*
X61500000Y-35550000D02*
X61474999Y-35524999D01*
G04 #@! TO.N,VEE*
X57500000Y-37000000D02*
X57300000Y-37000000D01*
X56500000Y-37000000D02*
X55000000Y-38500000D01*
X57500000Y-37000000D02*
X56500000Y-37000000D01*
X57300000Y-45905000D02*
X58550300Y-45905000D01*
X58750001Y-45705299D02*
X58550300Y-45905000D01*
X58750001Y-39700001D02*
X58750001Y-45705299D01*
X57500000Y-38450000D02*
X58750001Y-39700001D01*
X57500000Y-37000000D02*
X57500000Y-38450000D01*
X66360700Y-50521500D02*
X66360700Y-52021500D01*
X66150000Y-50310800D02*
X66360700Y-50521500D01*
X64500000Y-50310800D02*
X66150000Y-50310800D01*
X59894499Y-45705299D02*
X64500000Y-50310800D01*
X58750001Y-45705299D02*
X59894499Y-45705299D01*
D21*
G04 #@! TO.N,Net-(J8-Pad2)*
X63950300Y-43365000D02*
X68855300Y-38460000D01*
X68855300Y-38460000D02*
X74500000Y-38460000D01*
X63787700Y-43365000D02*
X63950300Y-43365000D01*
X62700000Y-43365000D02*
X63787700Y-43365000D01*
X62700000Y-44635000D02*
X63950300Y-44635000D01*
X63950300Y-44635000D02*
X63950300Y-43365000D01*
G04 #@! TO.N,Net-(R10-Pad2)*
X70360700Y-52021500D02*
X70360700Y-50696200D01*
X62700000Y-45905000D02*
X65569500Y-45905000D01*
X65569500Y-45905000D02*
X70360700Y-50696200D01*
X60860700Y-52021500D02*
X60860700Y-53346800D01*
X70360700Y-52021500D02*
X70360700Y-53346800D01*
X61013900Y-53500000D02*
X60860700Y-53346800D01*
X70207500Y-53500000D02*
X61013900Y-53500000D01*
X70360700Y-53346800D02*
X70207500Y-53500000D01*
G04 #@! TO.N,N_INV_In*
X27500000Y-35310000D02*
X27500000Y-37000000D01*
X27500000Y-34000000D02*
X27500000Y-35310000D01*
X20000000Y-35310000D02*
X27500000Y-35310000D01*
X27960000Y-30825300D02*
X27500000Y-31285300D01*
X27500000Y-31285300D02*
X27500000Y-34000000D01*
X27960000Y-29500000D02*
X27960000Y-30825300D01*
G04 #@! TO.N,INV_In1*
X20000000Y-50000000D02*
X20000000Y-51375300D01*
X27000000Y-59500000D02*
X27000000Y-58174700D01*
X27000000Y-58174700D02*
X20200600Y-51375300D01*
X20200600Y-51375300D02*
X20000000Y-51375300D01*
X27000000Y-62500000D02*
X27000000Y-59500000D01*
G04 #@! TO.N,OUTPUT*
X57300000Y-42095000D02*
X56049700Y-42095000D01*
X81500000Y-36500000D02*
X80174700Y-36500000D01*
X51500000Y-34662600D02*
X78337300Y-34662600D01*
X78337300Y-34662600D02*
X80174700Y-36500000D01*
X51500000Y-34000000D02*
X51500000Y-34662600D01*
X84500000Y-36500000D02*
X81500000Y-36500000D01*
X50500000Y-27000000D02*
X50500000Y-28325300D01*
X51500000Y-30500000D02*
X51500000Y-29224700D01*
X51500000Y-29224700D02*
X50600600Y-28325300D01*
X50600600Y-28325300D02*
X50500000Y-28325300D01*
X51500000Y-34000000D02*
X51500000Y-30500000D01*
X91000000Y-36500000D02*
X84500000Y-36500000D01*
X51500000Y-34000000D02*
X51500000Y-35200000D01*
X51500000Y-35200000D02*
X49725001Y-36974999D01*
X46229999Y-36974999D02*
X46000000Y-37204998D01*
X49725001Y-36974999D02*
X46229999Y-36974999D01*
X54929699Y-40974999D02*
X56049700Y-42095000D01*
X47179997Y-40974999D02*
X54929699Y-40974999D01*
X46000000Y-39795002D02*
X47179997Y-40974999D01*
X46000000Y-37204998D02*
X46000000Y-39795002D01*
G04 #@! TD*
M02*
