M48
;DRILL file {KiCad (5.0.0)} date 09/20/19 20:16:51
;FORMAT={-:-/ absolute / inch / decimal}
FMAT,2
INCH,TZ
T1C0.0394
T2C0.0472
%
G90
G05
M72
T1
X1.5Y-2.3
X1.5Y-2.4
X1.5Y-2.5
X1.6Y-2.3
X1.6Y-2.4
X1.6Y-2.5
X1.7Y-2.3
X1.7Y-2.4
X1.7Y-2.5
X1.8Y-2.3
X1.8Y-2.4
X1.8Y-2.5
X1.9Y-2.3
X1.9Y-2.4
X1.9Y-2.5
X2.Y-2.3
X2.Y-2.4
X2.Y-2.5
X2.1Y-2.3
X2.1Y-2.4
X2.1Y-2.5
X2.1654Y-1.5157
X2.2Y-1.1
X2.2Y-1.2
X2.2Y-1.3
X2.2Y-2.3
X2.2Y-2.4
X2.2Y-2.5
X2.3Y-1.1
X2.3Y-1.2
X2.3Y-1.3
X2.3Y-2.3
X2.3Y-2.4
X2.3Y-2.5
X2.4Y-1.1
X2.4Y-1.2
X2.4Y-1.3
X2.4Y-2.3
X2.4Y-2.4
X2.4Y-2.5
X2.5Y-1.1
X2.5Y-1.2
X2.5Y-1.3
X2.5Y-2.3
X2.5Y-2.4
X2.5Y-2.5
X2.5197Y-1.4567
X2.6Y-1.1
X2.6Y-1.2
X2.6Y-1.3
X2.6Y-2.3
X2.6Y-2.4
X2.6Y-2.5
X2.7Y-1.1
X2.7Y-1.2
X2.7Y-1.3
X2.7Y-2.3
X2.7Y-2.4
X2.7Y-2.5
X2.8Y-1.1
X2.8Y-1.2
X2.8Y-1.3
X2.8Y-2.3
X2.8Y-2.4
X2.8Y-2.5
X2.9Y-1.1
X2.9Y-1.2
X2.9Y-1.3
X2.9Y-2.3
X2.9Y-2.4
X2.9Y-2.5
X3.Y-1.1
X3.Y-1.2
X3.Y-1.3
X3.Y-2.3
X3.Y-2.4
X3.Y-2.5
X3.0512Y-1.9685
X3.1Y-1.1
X3.1Y-1.2
X3.1Y-1.3
X3.1Y-2.3
X3.1Y-2.4
X3.1Y-2.5
X3.2Y-2.3
X3.2Y-2.4
X3.2Y-2.5
X3.2874Y-1.7126
X1.8882Y-1.063
X1.9882Y-1.063
X1.6732Y-1.8685
X1.6732Y-1.9685
X3.5236Y-1.0811
X3.5236Y-1.1811
X2.9331Y-1.5142
X2.9331Y-1.6142
X1.4945Y-1.1614
X1.5945Y-1.1614
X1.1008Y-1.1614
X1.2008Y-1.1614
T2
X0.7874Y-1.0902
X0.7874Y-1.2402
X0.7874Y-1.3902
X0.7874Y-1.6685
X0.7874Y-1.8185
X0.7874Y-1.9685
X3.5827Y-2.0079
X3.5827Y-2.1579
X3.5827Y-2.3079
X3.5827Y-1.437
X3.5827Y-1.587
X3.5827Y-1.737
T0
M30
