G04 #@! TF.GenerationSoftware,KiCad,Pcbnew,(5.0.0)*
G04 #@! TF.CreationDate,2019-09-20T20:16:55+02:00*
G04 #@! TF.ProjectId,opampprotopcb,6F70616D7070726F746F7063622E6B69,rev?*
G04 #@! TF.SameCoordinates,Original*
G04 #@! TF.FileFunction,Legend,Top*
G04 #@! TF.FilePolarity,Positive*
%FSLAX46Y46*%
G04 Gerber Fmt 4.6, Leading zero omitted, Abs format (unit mm)*
G04 Created by KiCad (PCBNEW (5.0.0)) date 09/20/19 20:16:55*
%MOMM*%
%LPD*%
G01*
G04 APERTURE LIST*
%ADD10C,0.250000*%
%ADD11C,0.200000*%
%ADD12C,0.150000*%
%ADD13C,0.120000*%
G04 APERTURE END LIST*
D10*
X19119047Y-55428571D02*
X19119047Y-53928571D01*
X19500000Y-53928571D01*
X19595238Y-54000000D01*
X19642857Y-54071428D01*
X19690476Y-54214285D01*
X19690476Y-54428571D01*
X19642857Y-54571428D01*
X19595238Y-54642857D01*
X19500000Y-54714285D01*
X19119047Y-54714285D01*
X20928571Y-55428571D02*
X20880952Y-55428571D01*
X20785714Y-55357142D01*
X20642857Y-55142857D01*
X20404761Y-54714285D01*
X20309523Y-54500000D01*
X20261904Y-54285714D01*
X20261904Y-54142857D01*
X20309523Y-54000000D01*
X20404761Y-53928571D01*
X20452380Y-53928571D01*
X20547619Y-54000000D01*
X20595238Y-54142857D01*
X20595238Y-54214285D01*
X20547619Y-54357142D01*
X20500000Y-54428571D01*
X20214285Y-54714285D01*
X20166666Y-54785714D01*
X20119047Y-54928571D01*
X20119047Y-55142857D01*
X20166666Y-55285714D01*
X20214285Y-55357142D01*
X20309523Y-55428571D01*
X20452380Y-55428571D01*
X20547619Y-55357142D01*
X20595238Y-55285714D01*
X20738095Y-55000000D01*
X20785714Y-54785714D01*
X20785714Y-54642857D01*
X21357142Y-55428571D02*
X21357142Y-53928571D01*
X21928571Y-55428571D02*
X21500000Y-54571428D01*
X21928571Y-53928571D02*
X21357142Y-54785714D01*
X17595238Y-56428571D02*
X17785714Y-56428571D01*
X17880952Y-56500000D01*
X17976190Y-56642857D01*
X18023809Y-56928571D01*
X18023809Y-57428571D01*
X17976190Y-57714285D01*
X17880952Y-57857142D01*
X17785714Y-57928571D01*
X17595238Y-57928571D01*
X17500000Y-57857142D01*
X17404761Y-57714285D01*
X17357142Y-57428571D01*
X17357142Y-56928571D01*
X17404761Y-56642857D01*
X17500000Y-56500000D01*
X17595238Y-56428571D01*
X18452380Y-57928571D02*
X18452380Y-56428571D01*
X18833333Y-56428571D01*
X18928571Y-56500000D01*
X18976190Y-56571428D01*
X19023809Y-56714285D01*
X19023809Y-56928571D01*
X18976190Y-57071428D01*
X18928571Y-57142857D01*
X18833333Y-57214285D01*
X18452380Y-57214285D01*
X20166666Y-57500000D02*
X20642857Y-57500000D01*
X20071428Y-57928571D02*
X20404761Y-56428571D01*
X20738095Y-57928571D01*
X21071428Y-57928571D02*
X21071428Y-56928571D01*
X21071428Y-57071428D02*
X21119047Y-57000000D01*
X21214285Y-56928571D01*
X21357142Y-56928571D01*
X21452380Y-57000000D01*
X21500000Y-57142857D01*
X21500000Y-57928571D01*
X21500000Y-57142857D02*
X21547619Y-57000000D01*
X21642857Y-56928571D01*
X21785714Y-56928571D01*
X21880952Y-57000000D01*
X21928571Y-57142857D01*
X21928571Y-57928571D01*
X22404761Y-56928571D02*
X22404761Y-58428571D01*
X22404761Y-57000000D02*
X22500000Y-56928571D01*
X22690476Y-56928571D01*
X22785714Y-57000000D01*
X22833333Y-57071428D01*
X22880952Y-57214285D01*
X22880952Y-57642857D01*
X22833333Y-57785714D01*
X22785714Y-57857142D01*
X22690476Y-57928571D01*
X22500000Y-57928571D01*
X22404761Y-57857142D01*
X16880952Y-60428571D02*
X16880952Y-58928571D01*
X17261904Y-58928571D01*
X17357142Y-59000000D01*
X17404761Y-59071428D01*
X17452380Y-59214285D01*
X17452380Y-59428571D01*
X17404761Y-59571428D01*
X17357142Y-59642857D01*
X17261904Y-59714285D01*
X16880952Y-59714285D01*
X17880952Y-60428571D02*
X17880952Y-59428571D01*
X17880952Y-59714285D02*
X17928571Y-59571428D01*
X17976190Y-59500000D01*
X18071428Y-59428571D01*
X18166666Y-59428571D01*
X18642857Y-60428571D02*
X18547619Y-60357142D01*
X18500000Y-60285714D01*
X18452380Y-60142857D01*
X18452380Y-59714285D01*
X18500000Y-59571428D01*
X18547619Y-59500000D01*
X18642857Y-59428571D01*
X18785714Y-59428571D01*
X18880952Y-59500000D01*
X18928571Y-59571428D01*
X18976190Y-59714285D01*
X18976190Y-60142857D01*
X18928571Y-60285714D01*
X18880952Y-60357142D01*
X18785714Y-60428571D01*
X18642857Y-60428571D01*
X19261904Y-59428571D02*
X19642857Y-59428571D01*
X19404761Y-58928571D02*
X19404761Y-60214285D01*
X19452380Y-60357142D01*
X19547619Y-60428571D01*
X19642857Y-60428571D01*
X20119047Y-60428571D02*
X20023809Y-60357142D01*
X19976190Y-60285714D01*
X19928571Y-60142857D01*
X19928571Y-59714285D01*
X19976190Y-59571428D01*
X20023809Y-59500000D01*
X20119047Y-59428571D01*
X20261904Y-59428571D01*
X20357142Y-59500000D01*
X20404761Y-59571428D01*
X20452380Y-59714285D01*
X20452380Y-60142857D01*
X20404761Y-60285714D01*
X20357142Y-60357142D01*
X20261904Y-60428571D01*
X20119047Y-60428571D01*
X20738095Y-59428571D02*
X21119047Y-59428571D01*
X20880952Y-58928571D02*
X20880952Y-60214285D01*
X20928571Y-60357142D01*
X21023809Y-60428571D01*
X21119047Y-60428571D01*
X21357142Y-59428571D02*
X21595238Y-60428571D01*
X21833333Y-59428571D02*
X21595238Y-60428571D01*
X21500000Y-60785714D01*
X21452380Y-60857142D01*
X21357142Y-60928571D01*
X22214285Y-59428571D02*
X22214285Y-60928571D01*
X22214285Y-59500000D02*
X22309523Y-59428571D01*
X22500000Y-59428571D01*
X22595238Y-59500000D01*
X22642857Y-59571428D01*
X22690476Y-59714285D01*
X22690476Y-60142857D01*
X22642857Y-60285714D01*
X22595238Y-60357142D01*
X22500000Y-60428571D01*
X22309523Y-60428571D01*
X22214285Y-60357142D01*
X23500000Y-60357142D02*
X23404761Y-60428571D01*
X23214285Y-60428571D01*
X23119047Y-60357142D01*
X23071428Y-60214285D01*
X23071428Y-59642857D01*
X23119047Y-59500000D01*
X23214285Y-59428571D01*
X23404761Y-59428571D01*
X23500000Y-59500000D01*
X23547619Y-59642857D01*
X23547619Y-59785714D01*
X23071428Y-59928571D01*
X23976190Y-60428571D02*
X23976190Y-59428571D01*
X23976190Y-59714285D02*
X24023809Y-59571428D01*
X24071428Y-59500000D01*
X24166666Y-59428571D01*
X24261904Y-59428571D01*
X18976190Y-61428571D02*
X19309523Y-62928571D01*
X19642857Y-61428571D01*
X20500000Y-62928571D02*
X19928571Y-62928571D01*
X20214285Y-62928571D02*
X20214285Y-61428571D01*
X20119047Y-61642857D01*
X20023809Y-61785714D01*
X19928571Y-61857142D01*
X20928571Y-62785714D02*
X20976190Y-62857142D01*
X20928571Y-62928571D01*
X20880952Y-62857142D01*
X20928571Y-62785714D01*
X20928571Y-62928571D01*
X21595238Y-61428571D02*
X21690476Y-61428571D01*
X21785714Y-61500000D01*
X21833333Y-61571428D01*
X21880952Y-61714285D01*
X21928571Y-62000000D01*
X21928571Y-62357142D01*
X21880952Y-62642857D01*
X21833333Y-62785714D01*
X21785714Y-62857142D01*
X21690476Y-62928571D01*
X21595238Y-62928571D01*
X21500000Y-62857142D01*
X21452380Y-62785714D01*
X21404761Y-62642857D01*
X21357142Y-62357142D01*
X21357142Y-62000000D01*
X21404761Y-61714285D01*
X21452380Y-61571428D01*
X21500000Y-61500000D01*
X21595238Y-61428571D01*
X84666666Y-29452380D02*
X85000000Y-30452380D01*
X85333333Y-29452380D01*
X86238095Y-30357142D02*
X86190476Y-30404761D01*
X86047619Y-30452380D01*
X85952380Y-30452380D01*
X85809523Y-30404761D01*
X85714285Y-30309523D01*
X85666666Y-30214285D01*
X85619047Y-30023809D01*
X85619047Y-29880952D01*
X85666666Y-29690476D01*
X85714285Y-29595238D01*
X85809523Y-29500000D01*
X85952380Y-29452380D01*
X86047619Y-29452380D01*
X86190476Y-29500000D01*
X86238095Y-29547619D01*
X87238095Y-30357142D02*
X87190476Y-30404761D01*
X87047619Y-30452380D01*
X86952380Y-30452380D01*
X86809523Y-30404761D01*
X86714285Y-30309523D01*
X86666666Y-30214285D01*
X86619047Y-30023809D01*
X86619047Y-29880952D01*
X86666666Y-29690476D01*
X86714285Y-29595238D01*
X86809523Y-29500000D01*
X86952380Y-29452380D01*
X87047619Y-29452380D01*
X87190476Y-29500000D01*
X87238095Y-29547619D01*
X84761904Y-26452380D02*
X85095238Y-27452380D01*
X85428571Y-26452380D01*
X85761904Y-26928571D02*
X86095238Y-26928571D01*
X86238095Y-27452380D02*
X85761904Y-27452380D01*
X85761904Y-26452380D01*
X86238095Y-26452380D01*
X86666666Y-26928571D02*
X87000000Y-26928571D01*
X87142857Y-27452380D02*
X86666666Y-27452380D01*
X86666666Y-26452380D01*
X87142857Y-26452380D01*
X86452380Y-59738095D02*
X87452380Y-59404761D01*
X86452380Y-59071428D01*
X86928571Y-58738095D02*
X86928571Y-58404761D01*
X87452380Y-58261904D02*
X87452380Y-58738095D01*
X86452380Y-58738095D01*
X86452380Y-58261904D01*
X86928571Y-57833333D02*
X86928571Y-57500000D01*
X87452380Y-57357142D02*
X87452380Y-57833333D01*
X86452380Y-57833333D01*
X86452380Y-57357142D01*
X86500000Y-55261904D02*
X86452380Y-55357142D01*
X86452380Y-55500000D01*
X86500000Y-55642857D01*
X86595238Y-55738095D01*
X86690476Y-55785714D01*
X86880952Y-55833333D01*
X87023809Y-55833333D01*
X87214285Y-55785714D01*
X87309523Y-55738095D01*
X87404761Y-55642857D01*
X87452380Y-55500000D01*
X87452380Y-55404761D01*
X87404761Y-55261904D01*
X87357142Y-55214285D01*
X87023809Y-55214285D01*
X87023809Y-55404761D01*
X87452380Y-54785714D02*
X86452380Y-54785714D01*
X87452380Y-54214285D01*
X86452380Y-54214285D01*
X87452380Y-53738095D02*
X86452380Y-53738095D01*
X86452380Y-53500000D01*
X86500000Y-53357142D01*
X86595238Y-53261904D01*
X86690476Y-53214285D01*
X86880952Y-53166666D01*
X87023809Y-53166666D01*
X87214285Y-53214285D01*
X87309523Y-53261904D01*
X87404761Y-53357142D01*
X87452380Y-53500000D01*
X87452380Y-53738095D01*
X86452380Y-52333333D02*
X87452380Y-52000000D01*
X86452380Y-51666666D01*
X87357142Y-50761904D02*
X87404761Y-50809523D01*
X87452380Y-50952380D01*
X87452380Y-51047619D01*
X87404761Y-51190476D01*
X87309523Y-51285714D01*
X87214285Y-51333333D01*
X87023809Y-51380952D01*
X86880952Y-51380952D01*
X86690476Y-51333333D01*
X86595238Y-51285714D01*
X86500000Y-51190476D01*
X86452380Y-51047619D01*
X86452380Y-50952380D01*
X86500000Y-50809523D01*
X86547619Y-50761904D01*
X87357142Y-49761904D02*
X87404761Y-49809523D01*
X87452380Y-49952380D01*
X87452380Y-50047619D01*
X87404761Y-50190476D01*
X87309523Y-50285714D01*
X87214285Y-50333333D01*
X87023809Y-50380952D01*
X86880952Y-50380952D01*
X86690476Y-50333333D01*
X86595238Y-50285714D01*
X86500000Y-50190476D01*
X86452380Y-50047619D01*
X86452380Y-49952380D01*
X86500000Y-49809523D01*
X86547619Y-49761904D01*
X86452380Y-45238095D02*
X87452380Y-44904761D01*
X86452380Y-44571428D01*
X86928571Y-44238095D02*
X86928571Y-43904761D01*
X87452380Y-43761904D02*
X87452380Y-44238095D01*
X86452380Y-44238095D01*
X86452380Y-43761904D01*
X86928571Y-43333333D02*
X86928571Y-43000000D01*
X87452380Y-42857142D02*
X87452380Y-43333333D01*
X86452380Y-43333333D01*
X86452380Y-42857142D01*
X86452380Y-37500000D02*
X86452380Y-37309523D01*
X86500000Y-37214285D01*
X86595238Y-37119047D01*
X86785714Y-37071428D01*
X87119047Y-37071428D01*
X87309523Y-37119047D01*
X87404761Y-37214285D01*
X87452380Y-37309523D01*
X87452380Y-37500000D01*
X87404761Y-37595238D01*
X87309523Y-37690476D01*
X87119047Y-37738095D01*
X86785714Y-37738095D01*
X86595238Y-37690476D01*
X86500000Y-37595238D01*
X86452380Y-37500000D01*
X86452380Y-36642857D02*
X87261904Y-36642857D01*
X87357142Y-36595238D01*
X87404761Y-36547619D01*
X87452380Y-36452380D01*
X87452380Y-36261904D01*
X87404761Y-36166666D01*
X87357142Y-36119047D01*
X87261904Y-36071428D01*
X86452380Y-36071428D01*
X86452380Y-35738095D02*
X86452380Y-35166666D01*
X87452380Y-35452380D02*
X86452380Y-35452380D01*
X86500000Y-41261904D02*
X86452380Y-41357142D01*
X86452380Y-41500000D01*
X86500000Y-41642857D01*
X86595238Y-41738095D01*
X86690476Y-41785714D01*
X86880952Y-41833333D01*
X87023809Y-41833333D01*
X87214285Y-41785714D01*
X87309523Y-41738095D01*
X87404761Y-41642857D01*
X87452380Y-41500000D01*
X87452380Y-41404761D01*
X87404761Y-41261904D01*
X87357142Y-41214285D01*
X87023809Y-41214285D01*
X87023809Y-41404761D01*
X87452380Y-40785714D02*
X86452380Y-40785714D01*
X87452380Y-40214285D01*
X86452380Y-40214285D01*
X87452380Y-39738095D02*
X86452380Y-39738095D01*
X86452380Y-39500000D01*
X86500000Y-39357142D01*
X86595238Y-39261904D01*
X86690476Y-39214285D01*
X86880952Y-39166666D01*
X87023809Y-39166666D01*
X87214285Y-39214285D01*
X87309523Y-39261904D01*
X87404761Y-39357142D01*
X87452380Y-39500000D01*
X87452380Y-39738095D01*
X24452380Y-47619047D02*
X23452380Y-47619047D01*
X24452380Y-47142857D02*
X23452380Y-47142857D01*
X24452380Y-46571428D01*
X23452380Y-46571428D01*
X24071428Y-46095238D02*
X24071428Y-45333333D01*
X23547619Y-44904761D02*
X23500000Y-44857142D01*
X23452380Y-44761904D01*
X23452380Y-44523809D01*
X23500000Y-44428571D01*
X23547619Y-44380952D01*
X23642857Y-44333333D01*
X23738095Y-44333333D01*
X23880952Y-44380952D01*
X24452380Y-44952380D01*
X24452380Y-44333333D01*
X24577380Y-52619047D02*
X23577380Y-52619047D01*
X24577380Y-52142857D02*
X23577380Y-52142857D01*
X24577380Y-51571428D01*
X23577380Y-51571428D01*
X24196428Y-51095238D02*
X24196428Y-50333333D01*
X24577380Y-49333333D02*
X24577380Y-49904761D01*
X24577380Y-49619047D02*
X23577380Y-49619047D01*
X23720238Y-49714285D01*
X23815476Y-49809523D01*
X23863095Y-49904761D01*
X24452380Y-38642857D02*
X23452380Y-38642857D01*
X24452380Y-38166666D02*
X23452380Y-38166666D01*
X24452380Y-37595238D01*
X23452380Y-37595238D01*
X24071428Y-37119047D02*
X24071428Y-36357142D01*
X24452380Y-36738095D02*
X23690476Y-36738095D01*
X23452380Y-28619047D02*
X24452380Y-28285714D01*
X23452380Y-27952380D01*
X24547619Y-27857142D02*
X24547619Y-27095238D01*
X23928571Y-26857142D02*
X23928571Y-26523809D01*
X24452380Y-26380952D02*
X24452380Y-26857142D01*
X23452380Y-26857142D01*
X23452380Y-26380952D01*
X23928571Y-25952380D02*
X23928571Y-25619047D01*
X24452380Y-25476190D02*
X24452380Y-25952380D01*
X23452380Y-25952380D01*
X23452380Y-25476190D01*
X23500000Y-32261904D02*
X23452380Y-32357142D01*
X23452380Y-32500000D01*
X23500000Y-32642857D01*
X23595238Y-32738095D01*
X23690476Y-32785714D01*
X23880952Y-32833333D01*
X24023809Y-32833333D01*
X24214285Y-32785714D01*
X24309523Y-32738095D01*
X24404761Y-32642857D01*
X24452380Y-32500000D01*
X24452380Y-32404761D01*
X24404761Y-32261904D01*
X24357142Y-32214285D01*
X24023809Y-32214285D01*
X24023809Y-32404761D01*
X24452380Y-31785714D02*
X23452380Y-31785714D01*
X24452380Y-31214285D01*
X23452380Y-31214285D01*
X24452380Y-30738095D02*
X23452380Y-30738095D01*
X23452380Y-30500000D01*
X23500000Y-30357142D01*
X23595238Y-30261904D01*
X23690476Y-30214285D01*
X23880952Y-30166666D01*
X24023809Y-30166666D01*
X24214285Y-30214285D01*
X24309523Y-30261904D01*
X24404761Y-30357142D01*
X24452380Y-30500000D01*
X24452380Y-30738095D01*
D11*
X39500000Y-45000000D02*
G75*
G03X39500000Y-45000000I-500000J0D01*
G01*
X39000000Y-56500000D02*
X39000000Y-45000000D01*
X74500000Y-56500000D02*
X39000000Y-56500000D01*
X74500000Y-45000000D02*
X74500000Y-56500000D01*
X79500000Y-45000000D02*
X74500000Y-45000000D01*
X78500000Y-53500000D02*
X80500000Y-53500000D01*
X79500000Y-50000000D02*
X79500000Y-53500000D01*
X79500000Y-40500000D02*
X79500000Y-46000000D01*
X79500000Y-35000000D02*
X79500000Y-37000000D01*
X68000000Y-35000000D02*
X79500000Y-35000000D01*
X68000000Y-39500000D02*
X68000000Y-35000000D01*
X55500000Y-39500000D02*
X68000000Y-39500000D01*
X49500000Y-44000000D02*
G75*
G03X49500000Y-44000000I-500000J0D01*
G01*
X48000000Y-54000000D02*
X50000000Y-54000000D01*
X49000000Y-51000000D02*
X49000000Y-54000000D01*
X49000000Y-43500000D02*
X49000000Y-48500000D01*
X49000000Y-42000000D02*
X49000000Y-44000000D01*
X49000000Y-37000000D02*
X49000000Y-39000000D01*
X49000000Y-37000000D02*
X49500000Y-38000000D01*
X48500000Y-38000000D02*
X49000000Y-37000000D01*
X46000000Y-44000000D02*
G75*
G03X46000000Y-44000000I-500000J0D01*
G01*
X45500000Y-36000000D02*
X45500000Y-44000000D01*
X55500000Y-25000000D02*
X45000000Y-25000000D01*
X55500000Y-36000000D02*
X55500000Y-25000000D01*
X45000000Y-36000000D02*
X55500000Y-36000000D01*
X45000000Y-25000000D02*
X45000000Y-36000000D01*
X38000000Y-45000000D02*
X35500000Y-45000000D01*
X25000000Y-64000000D02*
X25000000Y-48000000D01*
X35500000Y-64000000D02*
X25000000Y-64000000D01*
X35500000Y-41000000D02*
X35500000Y-64000000D01*
X25000000Y-41000000D02*
X35500000Y-41000000D01*
X25000000Y-43000000D02*
X25000000Y-41000000D01*
X25000000Y-43000000D02*
X21000000Y-43000000D01*
D12*
X43500000Y-39000000D02*
X42500000Y-39000000D01*
X43500000Y-27000000D02*
X43500000Y-39000000D01*
X25500000Y-27000000D02*
X43500000Y-27000000D01*
X25500000Y-35500000D02*
X25500000Y-27000000D01*
D11*
X38000000Y-45000000D02*
X52500000Y-45000000D01*
X25000000Y-43000000D02*
X25000000Y-48000000D01*
X43000000Y-44000000D02*
X52500000Y-44000000D01*
X43000000Y-39000000D02*
X43000000Y-44000000D01*
X25500000Y-39000000D02*
X43000000Y-39000000D01*
X25500000Y-35500000D02*
X25500000Y-39000000D01*
X20000000Y-35500000D02*
X25500000Y-35500000D01*
X55500000Y-44000000D02*
X55500000Y-35500000D01*
X55000000Y-44000000D02*
X55500000Y-44000000D01*
X53000000Y-43000000D02*
X53000000Y-44000000D01*
X52500000Y-45000000D02*
X53500000Y-45000000D01*
X52500000Y-43500000D02*
X53500000Y-43500000D01*
X52500000Y-46000000D02*
X55000000Y-44000000D01*
X52500000Y-42500000D02*
X52500000Y-46000000D01*
X55000000Y-44000000D02*
X52500000Y-42500000D01*
D13*
G04 #@! TO.C,C1*
X28500000Y-38020000D02*
X30500000Y-38020000D01*
X30500000Y-35980000D02*
X28500000Y-35980000D01*
G04 #@! TO.C,C2*
X28000000Y-63520000D02*
X30000000Y-63520000D01*
X30000000Y-61480000D02*
X28000000Y-61480000D01*
G04 #@! TO.C,C3*
X30000000Y-53480000D02*
X28000000Y-53480000D01*
X28000000Y-55520000D02*
X30000000Y-55520000D01*
G04 #@! TO.C,C4*
X28000000Y-46520000D02*
X30000000Y-46520000D01*
X30000000Y-44480000D02*
X28000000Y-44480000D01*
G04 #@! TO.C,C5*
X38000000Y-35020000D02*
X40000000Y-35020000D01*
X40000000Y-32980000D02*
X38000000Y-32980000D01*
G04 #@! TO.C,C6*
X52020000Y-50500000D02*
X52020000Y-48500000D01*
X49980000Y-48500000D02*
X49980000Y-50500000D01*
G04 #@! TO.C,C7*
X50500000Y-29480000D02*
X48500000Y-29480000D01*
X48500000Y-31520000D02*
X50500000Y-31520000D01*
G04 #@! TO.C,C8*
X85520000Y-39500000D02*
X85520000Y-37500000D01*
X83480000Y-37500000D02*
X83480000Y-39500000D01*
G04 #@! TO.C,C9*
X85520000Y-49000000D02*
X85520000Y-47000000D01*
X83480000Y-47000000D02*
X83480000Y-49000000D01*
G04 #@! TO.C,C10*
X58500000Y-38020000D02*
X60500000Y-38020000D01*
X60500000Y-35980000D02*
X58500000Y-35980000D01*
G04 #@! TO.C,J1*
X88750155Y-51749647D02*
G75*
G03X88750000Y-50250000I-1700155J749647D01*
G01*
X88750155Y-55559647D02*
G75*
G03X88750000Y-54060000I-1700155J749647D01*
G01*
X88750155Y-59369647D02*
G75*
G03X88750000Y-57870000I-1700155J749647D01*
G01*
X95330000Y-48320000D02*
X87920000Y-48320000D01*
X87920000Y-48320000D02*
X87920000Y-61300000D01*
X87920000Y-61300000D02*
X95330000Y-61300000D01*
X95330000Y-61300000D02*
X95330000Y-48320000D01*
X88750000Y-50250000D02*
X88750000Y-49500000D01*
X88750000Y-49500000D02*
X93050000Y-49500000D01*
X93050000Y-49500000D02*
X93050000Y-50250000D01*
X93050000Y-50250000D02*
X93400000Y-50250000D01*
X93400000Y-50250000D02*
X93400000Y-49750000D01*
X93400000Y-49750000D02*
X94400000Y-49500000D01*
X94400000Y-49500000D02*
X94400000Y-52500000D01*
X94400000Y-52500000D02*
X93400000Y-52250000D01*
X93400000Y-52250000D02*
X93400000Y-51750000D01*
X93400000Y-51750000D02*
X93050000Y-51750000D01*
X93050000Y-51750000D02*
X93050000Y-52500000D01*
X93050000Y-52500000D02*
X88750000Y-52500000D01*
X88750000Y-52500000D02*
X88750000Y-51750000D01*
X88750000Y-54060000D02*
X88750000Y-53310000D01*
X88750000Y-53310000D02*
X93050000Y-53310000D01*
X93050000Y-53310000D02*
X93050000Y-54060000D01*
X93050000Y-54060000D02*
X93400000Y-54060000D01*
X93400000Y-54060000D02*
X93400000Y-53560000D01*
X93400000Y-53560000D02*
X94400000Y-53310000D01*
X94400000Y-53310000D02*
X94400000Y-56310000D01*
X94400000Y-56310000D02*
X93400000Y-56060000D01*
X93400000Y-56060000D02*
X93400000Y-55560000D01*
X93400000Y-55560000D02*
X93050000Y-55560000D01*
X93050000Y-55560000D02*
X93050000Y-56310000D01*
X93050000Y-56310000D02*
X88750000Y-56310000D01*
X88750000Y-56310000D02*
X88750000Y-55560000D01*
X88750000Y-57870000D02*
X88750000Y-57120000D01*
X88750000Y-57120000D02*
X93050000Y-57120000D01*
X93050000Y-57120000D02*
X93050000Y-57870000D01*
X93050000Y-57870000D02*
X93400000Y-57870000D01*
X93400000Y-57870000D02*
X93400000Y-57370000D01*
X93400000Y-57370000D02*
X94400000Y-57120000D01*
X94400000Y-57120000D02*
X94400000Y-60120000D01*
X94400000Y-60120000D02*
X93400000Y-59870000D01*
X93400000Y-59870000D02*
X93400000Y-59370000D01*
X93400000Y-59370000D02*
X93050000Y-59370000D01*
X93050000Y-59370000D02*
X93050000Y-60120000D01*
X93050000Y-60120000D02*
X88750000Y-60120000D01*
X88750000Y-60120000D02*
X88750000Y-59370000D01*
X94500000Y-47900000D02*
X95750000Y-47900000D01*
X95750000Y-47900000D02*
X95750000Y-49900000D01*
G04 #@! TO.C,J2*
X22249845Y-49250353D02*
G75*
G03X22250000Y-50750000I1700155J-749647D01*
G01*
X22249845Y-45440353D02*
G75*
G03X22250000Y-46940000I1700155J-749647D01*
G01*
X22249845Y-41630353D02*
G75*
G03X22250000Y-43130000I1700155J-749647D01*
G01*
X15670000Y-52680000D02*
X23080000Y-52680000D01*
X23080000Y-52680000D02*
X23080000Y-39700000D01*
X23080000Y-39700000D02*
X15670000Y-39700000D01*
X15670000Y-39700000D02*
X15670000Y-52680000D01*
X22250000Y-50750000D02*
X22250000Y-51500000D01*
X22250000Y-51500000D02*
X17950000Y-51500000D01*
X17950000Y-51500000D02*
X17950000Y-50750000D01*
X17950000Y-50750000D02*
X17600000Y-50750000D01*
X17600000Y-50750000D02*
X17600000Y-51250000D01*
X17600000Y-51250000D02*
X16600000Y-51500000D01*
X16600000Y-51500000D02*
X16600000Y-48500000D01*
X16600000Y-48500000D02*
X17600000Y-48750000D01*
X17600000Y-48750000D02*
X17600000Y-49250000D01*
X17600000Y-49250000D02*
X17950000Y-49250000D01*
X17950000Y-49250000D02*
X17950000Y-48500000D01*
X17950000Y-48500000D02*
X22250000Y-48500000D01*
X22250000Y-48500000D02*
X22250000Y-49250000D01*
X22250000Y-46940000D02*
X22250000Y-47690000D01*
X22250000Y-47690000D02*
X17950000Y-47690000D01*
X17950000Y-47690000D02*
X17950000Y-46940000D01*
X17950000Y-46940000D02*
X17600000Y-46940000D01*
X17600000Y-46940000D02*
X17600000Y-47440000D01*
X17600000Y-47440000D02*
X16600000Y-47690000D01*
X16600000Y-47690000D02*
X16600000Y-44690000D01*
X16600000Y-44690000D02*
X17600000Y-44940000D01*
X17600000Y-44940000D02*
X17600000Y-45440000D01*
X17600000Y-45440000D02*
X17950000Y-45440000D01*
X17950000Y-45440000D02*
X17950000Y-44690000D01*
X17950000Y-44690000D02*
X22250000Y-44690000D01*
X22250000Y-44690000D02*
X22250000Y-45440000D01*
X22250000Y-43130000D02*
X22250000Y-43880000D01*
X22250000Y-43880000D02*
X17950000Y-43880000D01*
X17950000Y-43880000D02*
X17950000Y-43130000D01*
X17950000Y-43130000D02*
X17600000Y-43130000D01*
X17600000Y-43130000D02*
X17600000Y-43630000D01*
X17600000Y-43630000D02*
X16600000Y-43880000D01*
X16600000Y-43880000D02*
X16600000Y-40880000D01*
X16600000Y-40880000D02*
X17600000Y-41130000D01*
X17600000Y-41130000D02*
X17600000Y-41630000D01*
X17600000Y-41630000D02*
X17950000Y-41630000D01*
X17950000Y-41630000D02*
X17950000Y-40880000D01*
X17950000Y-40880000D02*
X22250000Y-40880000D01*
X22250000Y-40880000D02*
X22250000Y-41630000D01*
X16500000Y-53100000D02*
X15250000Y-53100000D01*
X15250000Y-53100000D02*
X15250000Y-51100000D01*
G04 #@! TO.C,J3*
X15250000Y-38410000D02*
X15250000Y-36410000D01*
X16500000Y-38410000D02*
X15250000Y-38410000D01*
X22250000Y-26190000D02*
X22250000Y-26940000D01*
X17950000Y-26190000D02*
X22250000Y-26190000D01*
X17950000Y-26940000D02*
X17950000Y-26190000D01*
X17600000Y-26940000D02*
X17950000Y-26940000D01*
X17600000Y-26440000D02*
X17600000Y-26940000D01*
X16600000Y-26190000D02*
X17600000Y-26440000D01*
X16600000Y-29190000D02*
X16600000Y-26190000D01*
X17600000Y-28940000D02*
X16600000Y-29190000D01*
X17600000Y-28440000D02*
X17600000Y-28940000D01*
X17950000Y-28440000D02*
X17600000Y-28440000D01*
X17950000Y-29190000D02*
X17950000Y-28440000D01*
X22250000Y-29190000D02*
X17950000Y-29190000D01*
X22250000Y-28440000D02*
X22250000Y-29190000D01*
X22250000Y-30000000D02*
X22250000Y-30750000D01*
X17950000Y-30000000D02*
X22250000Y-30000000D01*
X17950000Y-30750000D02*
X17950000Y-30000000D01*
X17600000Y-30750000D02*
X17950000Y-30750000D01*
X17600000Y-30250000D02*
X17600000Y-30750000D01*
X16600000Y-30000000D02*
X17600000Y-30250000D01*
X16600000Y-33000000D02*
X16600000Y-30000000D01*
X17600000Y-32750000D02*
X16600000Y-33000000D01*
X17600000Y-32250000D02*
X17600000Y-32750000D01*
X17950000Y-32250000D02*
X17600000Y-32250000D01*
X17950000Y-33000000D02*
X17950000Y-32250000D01*
X22250000Y-33000000D02*
X17950000Y-33000000D01*
X22250000Y-32250000D02*
X22250000Y-33000000D01*
X22250000Y-33810000D02*
X22250000Y-34560000D01*
X17950000Y-33810000D02*
X22250000Y-33810000D01*
X17950000Y-34560000D02*
X17950000Y-33810000D01*
X17600000Y-34560000D02*
X17950000Y-34560000D01*
X17600000Y-34060000D02*
X17600000Y-34560000D01*
X16600000Y-33810000D02*
X17600000Y-34060000D01*
X16600000Y-36810000D02*
X16600000Y-33810000D01*
X17600000Y-36560000D02*
X16600000Y-36810000D01*
X17600000Y-36060000D02*
X17600000Y-36560000D01*
X17950000Y-36060000D02*
X17600000Y-36060000D01*
X17950000Y-36810000D02*
X17950000Y-36060000D01*
X22250000Y-36810000D02*
X17950000Y-36810000D01*
X22250000Y-36060000D02*
X22250000Y-36810000D01*
X15670000Y-25010000D02*
X15670000Y-37990000D01*
X23080000Y-25010000D02*
X15670000Y-25010000D01*
X23080000Y-37990000D02*
X23080000Y-25010000D01*
X15670000Y-37990000D02*
X23080000Y-37990000D01*
X22249845Y-26940353D02*
G75*
G03X22250000Y-28440000I1700155J-749647D01*
G01*
X22249845Y-30750353D02*
G75*
G03X22250000Y-32250000I1700155J-749647D01*
G01*
X22249845Y-34560353D02*
G75*
G03X22250000Y-36060000I1700155J-749647D01*
G01*
G04 #@! TO.C,J4*
X26630000Y-28170000D02*
X26630000Y-30830000D01*
X29230000Y-28170000D02*
X26630000Y-28170000D01*
X29230000Y-30830000D02*
X26630000Y-30830000D01*
X29230000Y-28170000D02*
X29230000Y-30830000D01*
X30500000Y-28170000D02*
X31830000Y-28170000D01*
X31830000Y-28170000D02*
X31830000Y-29500000D01*
G04 #@! TO.C,J5*
X41170000Y-51330000D02*
X43830000Y-51330000D01*
X41170000Y-48730000D02*
X41170000Y-51330000D01*
X43830000Y-48730000D02*
X43830000Y-51330000D01*
X41170000Y-48730000D02*
X43830000Y-48730000D01*
X41170000Y-47460000D02*
X41170000Y-46130000D01*
X41170000Y-46130000D02*
X42500000Y-46130000D01*
G04 #@! TO.C,J6*
X36630000Y-28170000D02*
X36630000Y-30830000D01*
X39230000Y-28170000D02*
X36630000Y-28170000D01*
X39230000Y-30830000D02*
X36630000Y-30830000D01*
X39230000Y-28170000D02*
X39230000Y-30830000D01*
X40500000Y-28170000D02*
X41830000Y-28170000D01*
X41830000Y-28170000D02*
X41830000Y-29500000D01*
G04 #@! TO.C,J7*
X51830000Y-25670000D02*
X51830000Y-27000000D01*
X50500000Y-25670000D02*
X51830000Y-25670000D01*
X49230000Y-25670000D02*
X49230000Y-28330000D01*
X49230000Y-28330000D02*
X46630000Y-28330000D01*
X49230000Y-25670000D02*
X46630000Y-25670000D01*
X46630000Y-25670000D02*
X46630000Y-28330000D01*
G04 #@! TO.C,J8*
X75830000Y-37130000D02*
X73170000Y-37130000D01*
X75830000Y-39730000D02*
X75830000Y-37130000D01*
X73170000Y-39730000D02*
X73170000Y-37130000D01*
X75830000Y-39730000D02*
X73170000Y-39730000D01*
X75830000Y-41000000D02*
X75830000Y-42330000D01*
X75830000Y-42330000D02*
X74500000Y-42330000D01*
G04 #@! TO.C,J9*
X95750000Y-33400000D02*
X95750000Y-35400000D01*
X94500000Y-33400000D02*
X95750000Y-33400000D01*
X88750000Y-45620000D02*
X88750000Y-44870000D01*
X93050000Y-45620000D02*
X88750000Y-45620000D01*
X93050000Y-44870000D02*
X93050000Y-45620000D01*
X93400000Y-44870000D02*
X93050000Y-44870000D01*
X93400000Y-45370000D02*
X93400000Y-44870000D01*
X94400000Y-45620000D02*
X93400000Y-45370000D01*
X94400000Y-42620000D02*
X94400000Y-45620000D01*
X93400000Y-42870000D02*
X94400000Y-42620000D01*
X93400000Y-43370000D02*
X93400000Y-42870000D01*
X93050000Y-43370000D02*
X93400000Y-43370000D01*
X93050000Y-42620000D02*
X93050000Y-43370000D01*
X88750000Y-42620000D02*
X93050000Y-42620000D01*
X88750000Y-43370000D02*
X88750000Y-42620000D01*
X88750000Y-41810000D02*
X88750000Y-41060000D01*
X93050000Y-41810000D02*
X88750000Y-41810000D01*
X93050000Y-41060000D02*
X93050000Y-41810000D01*
X93400000Y-41060000D02*
X93050000Y-41060000D01*
X93400000Y-41560000D02*
X93400000Y-41060000D01*
X94400000Y-41810000D02*
X93400000Y-41560000D01*
X94400000Y-38810000D02*
X94400000Y-41810000D01*
X93400000Y-39060000D02*
X94400000Y-38810000D01*
X93400000Y-39560000D02*
X93400000Y-39060000D01*
X93050000Y-39560000D02*
X93400000Y-39560000D01*
X93050000Y-38810000D02*
X93050000Y-39560000D01*
X88750000Y-38810000D02*
X93050000Y-38810000D01*
X88750000Y-39560000D02*
X88750000Y-38810000D01*
X88750000Y-38000000D02*
X88750000Y-37250000D01*
X93050000Y-38000000D02*
X88750000Y-38000000D01*
X93050000Y-37250000D02*
X93050000Y-38000000D01*
X93400000Y-37250000D02*
X93050000Y-37250000D01*
X93400000Y-37750000D02*
X93400000Y-37250000D01*
X94400000Y-38000000D02*
X93400000Y-37750000D01*
X94400000Y-35000000D02*
X94400000Y-38000000D01*
X93400000Y-35250000D02*
X94400000Y-35000000D01*
X93400000Y-35750000D02*
X93400000Y-35250000D01*
X93050000Y-35750000D02*
X93400000Y-35750000D01*
X93050000Y-35000000D02*
X93050000Y-35750000D01*
X88750000Y-35000000D02*
X93050000Y-35000000D01*
X88750000Y-35750000D02*
X88750000Y-35000000D01*
X95330000Y-46800000D02*
X95330000Y-33820000D01*
X87920000Y-46800000D02*
X95330000Y-46800000D01*
X87920000Y-33820000D02*
X87920000Y-46800000D01*
X95330000Y-33820000D02*
X87920000Y-33820000D01*
X88750155Y-44869647D02*
G75*
G03X88750000Y-43370000I-1700155J749647D01*
G01*
X88750155Y-41059647D02*
G75*
G03X88750000Y-39560000I-1700155J749647D01*
G01*
X88750155Y-37249647D02*
G75*
G03X88750000Y-35750000I-1700155J749647D01*
G01*
G04 #@! TO.C,R1*
X30500000Y-35070000D02*
X28500000Y-35070000D01*
X28500000Y-32930000D02*
X30500000Y-32930000D01*
G04 #@! TO.C,R2*
X28000000Y-58430000D02*
X30000000Y-58430000D01*
X30000000Y-60570000D02*
X28000000Y-60570000D01*
G04 #@! TO.C,R3*
X28000000Y-50430000D02*
X30000000Y-50430000D01*
X30000000Y-52570000D02*
X28000000Y-52570000D01*
G04 #@! TO.C,R4*
X30000000Y-43570000D02*
X28000000Y-43570000D01*
X28000000Y-41430000D02*
X30000000Y-41430000D01*
G04 #@! TO.C,R5*
X38000000Y-35930000D02*
X40000000Y-35930000D01*
X40000000Y-38070000D02*
X38000000Y-38070000D01*
G04 #@! TO.C,R6*
X46430000Y-41500000D02*
X46430000Y-39500000D01*
X48570000Y-39500000D02*
X48570000Y-41500000D01*
G04 #@! TO.C,R7*
X48570000Y-48500000D02*
X48570000Y-50500000D01*
X46430000Y-50500000D02*
X46430000Y-48500000D01*
G04 #@! TO.C,R8*
X50500000Y-35070000D02*
X48500000Y-35070000D01*
X48500000Y-32930000D02*
X50500000Y-32930000D01*
G04 #@! TO.C,R9*
X59860700Y-53091500D02*
X57860700Y-53091500D01*
X57860700Y-50951500D02*
X59860700Y-50951500D01*
G04 #@! TO.C,R10*
X69360700Y-53091500D02*
X67360700Y-53091500D01*
X67360700Y-50951500D02*
X69360700Y-50951500D01*
G04 #@! TO.C,R11*
X82570000Y-37500000D02*
X82570000Y-39500000D01*
X80430000Y-39500000D02*
X80430000Y-37500000D01*
G04 #@! TO.C,R12*
X80430000Y-49000000D02*
X80430000Y-47000000D01*
X82570000Y-47000000D02*
X82570000Y-49000000D01*
D12*
G04 #@! TO.C,U1*
X57925000Y-41475000D02*
X56525000Y-41475000D01*
X57925000Y-46575000D02*
X62075000Y-46575000D01*
X57925000Y-41425000D02*
X62075000Y-41425000D01*
X57925000Y-46575000D02*
X57925000Y-46430000D01*
X62075000Y-46575000D02*
X62075000Y-46430000D01*
X62075000Y-41425000D02*
X62075000Y-41570000D01*
X57925000Y-41425000D02*
X57925000Y-41475000D01*
D13*
G04 #@! TO.C,J10*
X90830000Y-31330000D02*
X89500000Y-31330000D01*
X90830000Y-30000000D02*
X90830000Y-31330000D01*
X90830000Y-28730000D02*
X88170000Y-28730000D01*
X88170000Y-28730000D02*
X88170000Y-26130000D01*
X90830000Y-28730000D02*
X90830000Y-26130000D01*
X90830000Y-26130000D02*
X88170000Y-26130000D01*
G04 #@! TO.C,C1*
D12*
X33833333Y-37357142D02*
X33785714Y-37404761D01*
X33642857Y-37452380D01*
X33547619Y-37452380D01*
X33404761Y-37404761D01*
X33309523Y-37309523D01*
X33261904Y-37214285D01*
X33214285Y-37023809D01*
X33214285Y-36880952D01*
X33261904Y-36690476D01*
X33309523Y-36595238D01*
X33404761Y-36500000D01*
X33547619Y-36452380D01*
X33642857Y-36452380D01*
X33785714Y-36500000D01*
X33833333Y-36547619D01*
X34785714Y-37452380D02*
X34214285Y-37452380D01*
X34500000Y-37452380D02*
X34500000Y-36452380D01*
X34404761Y-36595238D01*
X34309523Y-36690476D01*
X34214285Y-36738095D01*
G04 #@! TO.C,C2*
X33333333Y-62857142D02*
X33285714Y-62904761D01*
X33142857Y-62952380D01*
X33047619Y-62952380D01*
X32904761Y-62904761D01*
X32809523Y-62809523D01*
X32761904Y-62714285D01*
X32714285Y-62523809D01*
X32714285Y-62380952D01*
X32761904Y-62190476D01*
X32809523Y-62095238D01*
X32904761Y-62000000D01*
X33047619Y-61952380D01*
X33142857Y-61952380D01*
X33285714Y-62000000D01*
X33333333Y-62047619D01*
X33714285Y-62047619D02*
X33761904Y-62000000D01*
X33857142Y-61952380D01*
X34095238Y-61952380D01*
X34190476Y-62000000D01*
X34238095Y-62047619D01*
X34285714Y-62142857D01*
X34285714Y-62238095D01*
X34238095Y-62380952D01*
X33666666Y-62952380D01*
X34285714Y-62952380D01*
G04 #@! TO.C,C3*
X33833333Y-54857142D02*
X33785714Y-54904761D01*
X33642857Y-54952380D01*
X33547619Y-54952380D01*
X33404761Y-54904761D01*
X33309523Y-54809523D01*
X33261904Y-54714285D01*
X33214285Y-54523809D01*
X33214285Y-54380952D01*
X33261904Y-54190476D01*
X33309523Y-54095238D01*
X33404761Y-54000000D01*
X33547619Y-53952380D01*
X33642857Y-53952380D01*
X33785714Y-54000000D01*
X33833333Y-54047619D01*
X34166666Y-53952380D02*
X34785714Y-53952380D01*
X34452380Y-54333333D01*
X34595238Y-54333333D01*
X34690476Y-54380952D01*
X34738095Y-54428571D01*
X34785714Y-54523809D01*
X34785714Y-54761904D01*
X34738095Y-54857142D01*
X34690476Y-54904761D01*
X34595238Y-54952380D01*
X34309523Y-54952380D01*
X34214285Y-54904761D01*
X34166666Y-54857142D01*
G04 #@! TO.C,C4*
X33333333Y-45857142D02*
X33285714Y-45904761D01*
X33142857Y-45952380D01*
X33047619Y-45952380D01*
X32904761Y-45904761D01*
X32809523Y-45809523D01*
X32761904Y-45714285D01*
X32714285Y-45523809D01*
X32714285Y-45380952D01*
X32761904Y-45190476D01*
X32809523Y-45095238D01*
X32904761Y-45000000D01*
X33047619Y-44952380D01*
X33142857Y-44952380D01*
X33285714Y-45000000D01*
X33333333Y-45047619D01*
X34190476Y-45285714D02*
X34190476Y-45952380D01*
X33952380Y-44904761D02*
X33714285Y-45619047D01*
X34333333Y-45619047D01*
G04 #@! TO.C,C5*
X43333333Y-34357142D02*
X43285714Y-34404761D01*
X43142857Y-34452380D01*
X43047619Y-34452380D01*
X42904761Y-34404761D01*
X42809523Y-34309523D01*
X42761904Y-34214285D01*
X42714285Y-34023809D01*
X42714285Y-33880952D01*
X42761904Y-33690476D01*
X42809523Y-33595238D01*
X42904761Y-33500000D01*
X43047619Y-33452380D01*
X43142857Y-33452380D01*
X43285714Y-33500000D01*
X43333333Y-33547619D01*
X44238095Y-33452380D02*
X43761904Y-33452380D01*
X43714285Y-33928571D01*
X43761904Y-33880952D01*
X43857142Y-33833333D01*
X44095238Y-33833333D01*
X44190476Y-33880952D01*
X44238095Y-33928571D01*
X44285714Y-34023809D01*
X44285714Y-34261904D01*
X44238095Y-34357142D01*
X44190476Y-34404761D01*
X44095238Y-34452380D01*
X43857142Y-34452380D01*
X43761904Y-34404761D01*
X43714285Y-34357142D01*
G04 #@! TO.C,C6*
X53357142Y-49666666D02*
X53404761Y-49714285D01*
X53452380Y-49857142D01*
X53452380Y-49952380D01*
X53404761Y-50095238D01*
X53309523Y-50190476D01*
X53214285Y-50238095D01*
X53023809Y-50285714D01*
X52880952Y-50285714D01*
X52690476Y-50238095D01*
X52595238Y-50190476D01*
X52500000Y-50095238D01*
X52452380Y-49952380D01*
X52452380Y-49857142D01*
X52500000Y-49714285D01*
X52547619Y-49666666D01*
X52452380Y-48809523D02*
X52452380Y-49000000D01*
X52500000Y-49095238D01*
X52547619Y-49142857D01*
X52690476Y-49238095D01*
X52880952Y-49285714D01*
X53261904Y-49285714D01*
X53357142Y-49238095D01*
X53404761Y-49190476D01*
X53452380Y-49095238D01*
X53452380Y-48904761D01*
X53404761Y-48809523D01*
X53357142Y-48761904D01*
X53261904Y-48714285D01*
X53023809Y-48714285D01*
X52928571Y-48761904D01*
X52880952Y-48809523D01*
X52833333Y-48904761D01*
X52833333Y-49095238D01*
X52880952Y-49190476D01*
X52928571Y-49238095D01*
X53023809Y-49285714D01*
G04 #@! TO.C,C7*
X53833333Y-30857142D02*
X53785714Y-30904761D01*
X53642857Y-30952380D01*
X53547619Y-30952380D01*
X53404761Y-30904761D01*
X53309523Y-30809523D01*
X53261904Y-30714285D01*
X53214285Y-30523809D01*
X53214285Y-30380952D01*
X53261904Y-30190476D01*
X53309523Y-30095238D01*
X53404761Y-30000000D01*
X53547619Y-29952380D01*
X53642857Y-29952380D01*
X53785714Y-30000000D01*
X53833333Y-30047619D01*
X54166666Y-29952380D02*
X54833333Y-29952380D01*
X54404761Y-30952380D01*
G04 #@! TO.C,C8*
X84857142Y-34166666D02*
X84904761Y-34214285D01*
X84952380Y-34357142D01*
X84952380Y-34452380D01*
X84904761Y-34595238D01*
X84809523Y-34690476D01*
X84714285Y-34738095D01*
X84523809Y-34785714D01*
X84380952Y-34785714D01*
X84190476Y-34738095D01*
X84095238Y-34690476D01*
X84000000Y-34595238D01*
X83952380Y-34452380D01*
X83952380Y-34357142D01*
X84000000Y-34214285D01*
X84047619Y-34166666D01*
X84380952Y-33595238D02*
X84333333Y-33690476D01*
X84285714Y-33738095D01*
X84190476Y-33785714D01*
X84142857Y-33785714D01*
X84047619Y-33738095D01*
X84000000Y-33690476D01*
X83952380Y-33595238D01*
X83952380Y-33404761D01*
X84000000Y-33309523D01*
X84047619Y-33261904D01*
X84142857Y-33214285D01*
X84190476Y-33214285D01*
X84285714Y-33261904D01*
X84333333Y-33309523D01*
X84380952Y-33404761D01*
X84380952Y-33595238D01*
X84428571Y-33690476D01*
X84476190Y-33738095D01*
X84571428Y-33785714D01*
X84761904Y-33785714D01*
X84857142Y-33738095D01*
X84904761Y-33690476D01*
X84952380Y-33595238D01*
X84952380Y-33404761D01*
X84904761Y-33309523D01*
X84857142Y-33261904D01*
X84761904Y-33214285D01*
X84571428Y-33214285D01*
X84476190Y-33261904D01*
X84428571Y-33309523D01*
X84380952Y-33404761D01*
G04 #@! TO.C,C9*
X84857142Y-53166666D02*
X84904761Y-53214285D01*
X84952380Y-53357142D01*
X84952380Y-53452380D01*
X84904761Y-53595238D01*
X84809523Y-53690476D01*
X84714285Y-53738095D01*
X84523809Y-53785714D01*
X84380952Y-53785714D01*
X84190476Y-53738095D01*
X84095238Y-53690476D01*
X84000000Y-53595238D01*
X83952380Y-53452380D01*
X83952380Y-53357142D01*
X84000000Y-53214285D01*
X84047619Y-53166666D01*
X84952380Y-52690476D02*
X84952380Y-52500000D01*
X84904761Y-52404761D01*
X84857142Y-52357142D01*
X84714285Y-52261904D01*
X84523809Y-52214285D01*
X84142857Y-52214285D01*
X84047619Y-52261904D01*
X84000000Y-52309523D01*
X83952380Y-52404761D01*
X83952380Y-52595238D01*
X84000000Y-52690476D01*
X84047619Y-52738095D01*
X84142857Y-52785714D01*
X84380952Y-52785714D01*
X84476190Y-52738095D01*
X84523809Y-52690476D01*
X84571428Y-52595238D01*
X84571428Y-52404761D01*
X84523809Y-52309523D01*
X84476190Y-52261904D01*
X84380952Y-52214285D01*
G04 #@! TO.C,C10*
X58857142Y-35607142D02*
X58809523Y-35654761D01*
X58666666Y-35702380D01*
X58571428Y-35702380D01*
X58428571Y-35654761D01*
X58333333Y-35559523D01*
X58285714Y-35464285D01*
X58238095Y-35273809D01*
X58238095Y-35130952D01*
X58285714Y-34940476D01*
X58333333Y-34845238D01*
X58428571Y-34750000D01*
X58571428Y-34702380D01*
X58666666Y-34702380D01*
X58809523Y-34750000D01*
X58857142Y-34797619D01*
X59809523Y-35702380D02*
X59238095Y-35702380D01*
X59523809Y-35702380D02*
X59523809Y-34702380D01*
X59428571Y-34845238D01*
X59333333Y-34940476D01*
X59238095Y-34988095D01*
X60428571Y-34702380D02*
X60523809Y-34702380D01*
X60619047Y-34750000D01*
X60666666Y-34797619D01*
X60714285Y-34892857D01*
X60761904Y-35083333D01*
X60761904Y-35321428D01*
X60714285Y-35511904D01*
X60666666Y-35607142D01*
X60619047Y-35654761D01*
X60523809Y-35702380D01*
X60428571Y-35702380D01*
X60333333Y-35654761D01*
X60285714Y-35607142D01*
X60238095Y-35511904D01*
X60190476Y-35321428D01*
X60190476Y-35083333D01*
X60238095Y-34892857D01*
X60285714Y-34797619D01*
X60333333Y-34750000D01*
X60428571Y-34702380D01*
G04 #@! TO.C,J1*
X86452380Y-61833333D02*
X87166666Y-61833333D01*
X87309523Y-61880952D01*
X87404761Y-61976190D01*
X87452380Y-62119047D01*
X87452380Y-62214285D01*
X87452380Y-60833333D02*
X87452380Y-61404761D01*
X87452380Y-61119047D02*
X86452380Y-61119047D01*
X86595238Y-61214285D01*
X86690476Y-61309523D01*
X86738095Y-61404761D01*
G04 #@! TO.C,J2*
X15952380Y-54833333D02*
X16666666Y-54833333D01*
X16809523Y-54880952D01*
X16904761Y-54976190D01*
X16952380Y-55119047D01*
X16952380Y-55214285D01*
X16047619Y-54404761D02*
X16000000Y-54357142D01*
X15952380Y-54261904D01*
X15952380Y-54023809D01*
X16000000Y-53928571D01*
X16047619Y-53880952D01*
X16142857Y-53833333D01*
X16238095Y-53833333D01*
X16380952Y-53880952D01*
X16952380Y-54452380D01*
X16952380Y-53833333D01*
G04 #@! TO.C,J3*
X15952380Y-39333333D02*
X16666666Y-39333333D01*
X16809523Y-39380952D01*
X16904761Y-39476190D01*
X16952380Y-39619047D01*
X16952380Y-39714285D01*
X15952380Y-38952380D02*
X15952380Y-38333333D01*
X16333333Y-38666666D01*
X16333333Y-38523809D01*
X16380952Y-38428571D01*
X16428571Y-38380952D01*
X16523809Y-38333333D01*
X16761904Y-38333333D01*
X16857142Y-38380952D01*
X16904761Y-38428571D01*
X16952380Y-38523809D01*
X16952380Y-38809523D01*
X16904761Y-38904761D01*
X16857142Y-38952380D01*
G04 #@! TO.C,J4*
X32282380Y-29833333D02*
X32996666Y-29833333D01*
X33139523Y-29880952D01*
X33234761Y-29976190D01*
X33282380Y-30119047D01*
X33282380Y-30214285D01*
X32615714Y-28928571D02*
X33282380Y-28928571D01*
X32234761Y-29166666D02*
X32949047Y-29404761D01*
X32949047Y-28785714D01*
G04 #@! TO.C,J5*
X42166666Y-52452380D02*
X42166666Y-53166666D01*
X42119047Y-53309523D01*
X42023809Y-53404761D01*
X41880952Y-53452380D01*
X41785714Y-53452380D01*
X43119047Y-52452380D02*
X42642857Y-52452380D01*
X42595238Y-52928571D01*
X42642857Y-52880952D01*
X42738095Y-52833333D01*
X42976190Y-52833333D01*
X43071428Y-52880952D01*
X43119047Y-52928571D01*
X43166666Y-53023809D01*
X43166666Y-53261904D01*
X43119047Y-53357142D01*
X43071428Y-53404761D01*
X42976190Y-53452380D01*
X42738095Y-53452380D01*
X42642857Y-53404761D01*
X42595238Y-53357142D01*
G04 #@! TO.C,J6*
X42282380Y-29833333D02*
X42996666Y-29833333D01*
X43139523Y-29880952D01*
X43234761Y-29976190D01*
X43282380Y-30119047D01*
X43282380Y-30214285D01*
X42282380Y-28928571D02*
X42282380Y-29119047D01*
X42330000Y-29214285D01*
X42377619Y-29261904D01*
X42520476Y-29357142D01*
X42710952Y-29404761D01*
X43091904Y-29404761D01*
X43187142Y-29357142D01*
X43234761Y-29309523D01*
X43282380Y-29214285D01*
X43282380Y-29023809D01*
X43234761Y-28928571D01*
X43187142Y-28880952D01*
X43091904Y-28833333D01*
X42853809Y-28833333D01*
X42758571Y-28880952D01*
X42710952Y-28928571D01*
X42663333Y-29023809D01*
X42663333Y-29214285D01*
X42710952Y-29309523D01*
X42758571Y-29357142D01*
X42853809Y-29404761D01*
G04 #@! TO.C,J7*
X52282380Y-27333333D02*
X52996666Y-27333333D01*
X53139523Y-27380952D01*
X53234761Y-27476190D01*
X53282380Y-27619047D01*
X53282380Y-27714285D01*
X52282380Y-26952380D02*
X52282380Y-26285714D01*
X53282380Y-26714285D01*
G04 #@! TO.C,J8*
X73666666Y-42952380D02*
X73666666Y-43666666D01*
X73619047Y-43809523D01*
X73523809Y-43904761D01*
X73380952Y-43952380D01*
X73285714Y-43952380D01*
X74285714Y-43380952D02*
X74190476Y-43333333D01*
X74142857Y-43285714D01*
X74095238Y-43190476D01*
X74095238Y-43142857D01*
X74142857Y-43047619D01*
X74190476Y-43000000D01*
X74285714Y-42952380D01*
X74476190Y-42952380D01*
X74571428Y-43000000D01*
X74619047Y-43047619D01*
X74666666Y-43142857D01*
X74666666Y-43190476D01*
X74619047Y-43285714D01*
X74571428Y-43333333D01*
X74476190Y-43380952D01*
X74285714Y-43380952D01*
X74190476Y-43428571D01*
X74142857Y-43476190D01*
X74095238Y-43571428D01*
X74095238Y-43761904D01*
X74142857Y-43857142D01*
X74190476Y-43904761D01*
X74285714Y-43952380D01*
X74476190Y-43952380D01*
X74571428Y-43904761D01*
X74619047Y-43857142D01*
X74666666Y-43761904D01*
X74666666Y-43571428D01*
X74619047Y-43476190D01*
X74571428Y-43428571D01*
X74476190Y-43380952D01*
G04 #@! TO.C,J9*
X92952380Y-32333333D02*
X93666666Y-32333333D01*
X93809523Y-32380952D01*
X93904761Y-32476190D01*
X93952380Y-32619047D01*
X93952380Y-32714285D01*
X93952380Y-31809523D02*
X93952380Y-31619047D01*
X93904761Y-31523809D01*
X93857142Y-31476190D01*
X93714285Y-31380952D01*
X93523809Y-31333333D01*
X93142857Y-31333333D01*
X93047619Y-31380952D01*
X93000000Y-31428571D01*
X92952380Y-31523809D01*
X92952380Y-31714285D01*
X93000000Y-31809523D01*
X93047619Y-31857142D01*
X93142857Y-31904761D01*
X93380952Y-31904761D01*
X93476190Y-31857142D01*
X93523809Y-31809523D01*
X93571428Y-31714285D01*
X93571428Y-31523809D01*
X93523809Y-31428571D01*
X93476190Y-31380952D01*
X93380952Y-31333333D01*
G04 #@! TO.C,R1*
X33833333Y-34452380D02*
X33500000Y-33976190D01*
X33261904Y-34452380D02*
X33261904Y-33452380D01*
X33642857Y-33452380D01*
X33738095Y-33500000D01*
X33785714Y-33547619D01*
X33833333Y-33642857D01*
X33833333Y-33785714D01*
X33785714Y-33880952D01*
X33738095Y-33928571D01*
X33642857Y-33976190D01*
X33261904Y-33976190D01*
X34785714Y-34452380D02*
X34214285Y-34452380D01*
X34500000Y-34452380D02*
X34500000Y-33452380D01*
X34404761Y-33595238D01*
X34309523Y-33690476D01*
X34214285Y-33738095D01*
G04 #@! TO.C,R2*
X33333333Y-59952380D02*
X33000000Y-59476190D01*
X32761904Y-59952380D02*
X32761904Y-58952380D01*
X33142857Y-58952380D01*
X33238095Y-59000000D01*
X33285714Y-59047619D01*
X33333333Y-59142857D01*
X33333333Y-59285714D01*
X33285714Y-59380952D01*
X33238095Y-59428571D01*
X33142857Y-59476190D01*
X32761904Y-59476190D01*
X33714285Y-59047619D02*
X33761904Y-59000000D01*
X33857142Y-58952380D01*
X34095238Y-58952380D01*
X34190476Y-59000000D01*
X34238095Y-59047619D01*
X34285714Y-59142857D01*
X34285714Y-59238095D01*
X34238095Y-59380952D01*
X33666666Y-59952380D01*
X34285714Y-59952380D01*
G04 #@! TO.C,R3*
X33833333Y-51952380D02*
X33500000Y-51476190D01*
X33261904Y-51952380D02*
X33261904Y-50952380D01*
X33642857Y-50952380D01*
X33738095Y-51000000D01*
X33785714Y-51047619D01*
X33833333Y-51142857D01*
X33833333Y-51285714D01*
X33785714Y-51380952D01*
X33738095Y-51428571D01*
X33642857Y-51476190D01*
X33261904Y-51476190D01*
X34166666Y-50952380D02*
X34785714Y-50952380D01*
X34452380Y-51333333D01*
X34595238Y-51333333D01*
X34690476Y-51380952D01*
X34738095Y-51428571D01*
X34785714Y-51523809D01*
X34785714Y-51761904D01*
X34738095Y-51857142D01*
X34690476Y-51904761D01*
X34595238Y-51952380D01*
X34309523Y-51952380D01*
X34214285Y-51904761D01*
X34166666Y-51857142D01*
G04 #@! TO.C,R4*
X33333333Y-43452380D02*
X33000000Y-42976190D01*
X32761904Y-43452380D02*
X32761904Y-42452380D01*
X33142857Y-42452380D01*
X33238095Y-42500000D01*
X33285714Y-42547619D01*
X33333333Y-42642857D01*
X33333333Y-42785714D01*
X33285714Y-42880952D01*
X33238095Y-42928571D01*
X33142857Y-42976190D01*
X32761904Y-42976190D01*
X34190476Y-42785714D02*
X34190476Y-43452380D01*
X33952380Y-42404761D02*
X33714285Y-43119047D01*
X34333333Y-43119047D01*
G04 #@! TO.C,R5*
X43333333Y-37452380D02*
X43000000Y-36976190D01*
X42761904Y-37452380D02*
X42761904Y-36452380D01*
X43142857Y-36452380D01*
X43238095Y-36500000D01*
X43285714Y-36547619D01*
X43333333Y-36642857D01*
X43333333Y-36785714D01*
X43285714Y-36880952D01*
X43238095Y-36928571D01*
X43142857Y-36976190D01*
X42761904Y-36976190D01*
X44238095Y-36452380D02*
X43761904Y-36452380D01*
X43714285Y-36928571D01*
X43761904Y-36880952D01*
X43857142Y-36833333D01*
X44095238Y-36833333D01*
X44190476Y-36880952D01*
X44238095Y-36928571D01*
X44285714Y-37023809D01*
X44285714Y-37261904D01*
X44238095Y-37357142D01*
X44190476Y-37404761D01*
X44095238Y-37452380D01*
X43857142Y-37452380D01*
X43761904Y-37404761D01*
X43714285Y-37357142D01*
G04 #@! TO.C,R6*
X49952380Y-40666666D02*
X49476190Y-41000000D01*
X49952380Y-41238095D02*
X48952380Y-41238095D01*
X48952380Y-40857142D01*
X49000000Y-40761904D01*
X49047619Y-40714285D01*
X49142857Y-40666666D01*
X49285714Y-40666666D01*
X49380952Y-40714285D01*
X49428571Y-40761904D01*
X49476190Y-40857142D01*
X49476190Y-41238095D01*
X48952380Y-39809523D02*
X48952380Y-40000000D01*
X49000000Y-40095238D01*
X49047619Y-40142857D01*
X49190476Y-40238095D01*
X49380952Y-40285714D01*
X49761904Y-40285714D01*
X49857142Y-40238095D01*
X49904761Y-40190476D01*
X49952380Y-40095238D01*
X49952380Y-39904761D01*
X49904761Y-39809523D01*
X49857142Y-39761904D01*
X49761904Y-39714285D01*
X49523809Y-39714285D01*
X49428571Y-39761904D01*
X49380952Y-39809523D01*
X49333333Y-39904761D01*
X49333333Y-40095238D01*
X49380952Y-40190476D01*
X49428571Y-40238095D01*
X49523809Y-40285714D01*
G04 #@! TO.C,R7*
X49952380Y-49666666D02*
X49476190Y-50000000D01*
X49952380Y-50238095D02*
X48952380Y-50238095D01*
X48952380Y-49857142D01*
X49000000Y-49761904D01*
X49047619Y-49714285D01*
X49142857Y-49666666D01*
X49285714Y-49666666D01*
X49380952Y-49714285D01*
X49428571Y-49761904D01*
X49476190Y-49857142D01*
X49476190Y-50238095D01*
X48952380Y-49333333D02*
X48952380Y-48666666D01*
X49952380Y-49095238D01*
G04 #@! TO.C,R8*
X53833333Y-34452380D02*
X53500000Y-33976190D01*
X53261904Y-34452380D02*
X53261904Y-33452380D01*
X53642857Y-33452380D01*
X53738095Y-33500000D01*
X53785714Y-33547619D01*
X53833333Y-33642857D01*
X53833333Y-33785714D01*
X53785714Y-33880952D01*
X53738095Y-33928571D01*
X53642857Y-33976190D01*
X53261904Y-33976190D01*
X54404761Y-33880952D02*
X54309523Y-33833333D01*
X54261904Y-33785714D01*
X54214285Y-33690476D01*
X54214285Y-33642857D01*
X54261904Y-33547619D01*
X54309523Y-33500000D01*
X54404761Y-33452380D01*
X54595238Y-33452380D01*
X54690476Y-33500000D01*
X54738095Y-33547619D01*
X54785714Y-33642857D01*
X54785714Y-33690476D01*
X54738095Y-33785714D01*
X54690476Y-33833333D01*
X54595238Y-33880952D01*
X54404761Y-33880952D01*
X54309523Y-33928571D01*
X54261904Y-33976190D01*
X54214285Y-34071428D01*
X54214285Y-34261904D01*
X54261904Y-34357142D01*
X54309523Y-34404761D01*
X54404761Y-34452380D01*
X54595238Y-34452380D01*
X54690476Y-34404761D01*
X54738095Y-34357142D01*
X54785714Y-34261904D01*
X54785714Y-34071428D01*
X54738095Y-33976190D01*
X54690476Y-33928571D01*
X54595238Y-33880952D01*
G04 #@! TO.C,R9*
X58694033Y-54323880D02*
X58360700Y-53847690D01*
X58122604Y-54323880D02*
X58122604Y-53323880D01*
X58503557Y-53323880D01*
X58598795Y-53371500D01*
X58646414Y-53419119D01*
X58694033Y-53514357D01*
X58694033Y-53657214D01*
X58646414Y-53752452D01*
X58598795Y-53800071D01*
X58503557Y-53847690D01*
X58122604Y-53847690D01*
X59170223Y-54323880D02*
X59360700Y-54323880D01*
X59455938Y-54276261D01*
X59503557Y-54228642D01*
X59598795Y-54085785D01*
X59646414Y-53895309D01*
X59646414Y-53514357D01*
X59598795Y-53419119D01*
X59551176Y-53371500D01*
X59455938Y-53323880D01*
X59265461Y-53323880D01*
X59170223Y-53371500D01*
X59122604Y-53419119D01*
X59074985Y-53514357D01*
X59074985Y-53752452D01*
X59122604Y-53847690D01*
X59170223Y-53895309D01*
X59265461Y-53942928D01*
X59455938Y-53942928D01*
X59551176Y-53895309D01*
X59598795Y-53847690D01*
X59646414Y-53752452D01*
G04 #@! TO.C,R10*
X67717842Y-54952380D02*
X67384509Y-54476190D01*
X67146414Y-54952380D02*
X67146414Y-53952380D01*
X67527366Y-53952380D01*
X67622604Y-54000000D01*
X67670223Y-54047619D01*
X67717842Y-54142857D01*
X67717842Y-54285714D01*
X67670223Y-54380952D01*
X67622604Y-54428571D01*
X67527366Y-54476190D01*
X67146414Y-54476190D01*
X68670223Y-54952380D02*
X68098795Y-54952380D01*
X68384509Y-54952380D02*
X68384509Y-53952380D01*
X68289271Y-54095238D01*
X68194033Y-54190476D01*
X68098795Y-54238095D01*
X69289271Y-53952380D02*
X69384509Y-53952380D01*
X69479747Y-54000000D01*
X69527366Y-54047619D01*
X69574985Y-54142857D01*
X69622604Y-54333333D01*
X69622604Y-54571428D01*
X69574985Y-54761904D01*
X69527366Y-54857142D01*
X69479747Y-54904761D01*
X69384509Y-54952380D01*
X69289271Y-54952380D01*
X69194033Y-54904761D01*
X69146414Y-54857142D01*
X69098795Y-54761904D01*
X69051176Y-54571428D01*
X69051176Y-54333333D01*
X69098795Y-54142857D01*
X69146414Y-54047619D01*
X69194033Y-54000000D01*
X69289271Y-53952380D01*
G04 #@! TO.C,R11*
X79952380Y-39142857D02*
X79476190Y-39476190D01*
X79952380Y-39714285D02*
X78952380Y-39714285D01*
X78952380Y-39333333D01*
X79000000Y-39238095D01*
X79047619Y-39190476D01*
X79142857Y-39142857D01*
X79285714Y-39142857D01*
X79380952Y-39190476D01*
X79428571Y-39238095D01*
X79476190Y-39333333D01*
X79476190Y-39714285D01*
X79952380Y-38190476D02*
X79952380Y-38761904D01*
X79952380Y-38476190D02*
X78952380Y-38476190D01*
X79095238Y-38571428D01*
X79190476Y-38666666D01*
X79238095Y-38761904D01*
X79952380Y-37238095D02*
X79952380Y-37809523D01*
X79952380Y-37523809D02*
X78952380Y-37523809D01*
X79095238Y-37619047D01*
X79190476Y-37714285D01*
X79238095Y-37809523D01*
G04 #@! TO.C,R12*
X79952380Y-48642857D02*
X79476190Y-48976190D01*
X79952380Y-49214285D02*
X78952380Y-49214285D01*
X78952380Y-48833333D01*
X79000000Y-48738095D01*
X79047619Y-48690476D01*
X79142857Y-48642857D01*
X79285714Y-48642857D01*
X79380952Y-48690476D01*
X79428571Y-48738095D01*
X79476190Y-48833333D01*
X79476190Y-49214285D01*
X79952380Y-47690476D02*
X79952380Y-48261904D01*
X79952380Y-47976190D02*
X78952380Y-47976190D01*
X79095238Y-48071428D01*
X79190476Y-48166666D01*
X79238095Y-48261904D01*
X79047619Y-47309523D02*
X79000000Y-47261904D01*
X78952380Y-47166666D01*
X78952380Y-46928571D01*
X79000000Y-46833333D01*
X79047619Y-46785714D01*
X79142857Y-46738095D01*
X79238095Y-46738095D01*
X79380952Y-46785714D01*
X79952380Y-47357142D01*
X79952380Y-46738095D01*
G04 #@! TO.C,U1*
X59238095Y-39952380D02*
X59238095Y-40761904D01*
X59285714Y-40857142D01*
X59333333Y-40904761D01*
X59428571Y-40952380D01*
X59619047Y-40952380D01*
X59714285Y-40904761D01*
X59761904Y-40857142D01*
X59809523Y-40761904D01*
X59809523Y-39952380D01*
X60809523Y-40952380D02*
X60238095Y-40952380D01*
X60523809Y-40952380D02*
X60523809Y-39952380D01*
X60428571Y-40095238D01*
X60333333Y-40190476D01*
X60238095Y-40238095D01*
G04 #@! TO.C,J10*
X92190476Y-26952380D02*
X92190476Y-27666666D01*
X92142857Y-27809523D01*
X92047619Y-27904761D01*
X91904761Y-27952380D01*
X91809523Y-27952380D01*
X93190476Y-27952380D02*
X92619047Y-27952380D01*
X92904761Y-27952380D02*
X92904761Y-26952380D01*
X92809523Y-27095238D01*
X92714285Y-27190476D01*
X92619047Y-27238095D01*
X93809523Y-26952380D02*
X93904761Y-26952380D01*
X94000000Y-27000000D01*
X94047619Y-27047619D01*
X94095238Y-27142857D01*
X94142857Y-27333333D01*
X94142857Y-27571428D01*
X94095238Y-27761904D01*
X94047619Y-27857142D01*
X94000000Y-27904761D01*
X93904761Y-27952380D01*
X93809523Y-27952380D01*
X93714285Y-27904761D01*
X93666666Y-27857142D01*
X93619047Y-27761904D01*
X93571428Y-27571428D01*
X93571428Y-27333333D01*
X93619047Y-27142857D01*
X93666666Y-27047619D01*
X93714285Y-27000000D01*
X93809523Y-26952380D01*
G04 #@! TD*
M02*
