G04 #@! TF.GenerationSoftware,KiCad,Pcbnew,(5.0.0)*
G04 #@! TF.CreationDate,2019-09-20T20:16:55+02:00*
G04 #@! TF.ProjectId,opampprotopcb,6F70616D7070726F746F7063622E6B69,rev?*
G04 #@! TF.SameCoordinates,Original*
G04 #@! TF.FileFunction,Paste,Top*
G04 #@! TF.FilePolarity,Positive*
%FSLAX46Y46*%
G04 Gerber Fmt 4.6, Leading zero omitted, Abs format (unit mm)*
G04 Created by KiCad (PCBNEW (5.0.0)) date 09/20/19 20:16:55*
%MOMM*%
%LPD*%
G01*
G04 APERTURE LIST*
%ADD10R,2.000000X1.600000*%
%ADD11R,1.600000X2.000000*%
%ADD12R,2.000000X1.700000*%
%ADD13R,1.700000X2.000000*%
%ADD14R,1.550000X0.600000*%
G04 APERTURE END LIST*
D10*
G04 #@! TO.C,C1*
X31500000Y-37000000D03*
X27500000Y-37000000D03*
G04 #@! TD*
G04 #@! TO.C,C2*
X31000000Y-62500000D03*
X27000000Y-62500000D03*
G04 #@! TD*
G04 #@! TO.C,C3*
X27000000Y-54500000D03*
X31000000Y-54500000D03*
G04 #@! TD*
G04 #@! TO.C,C4*
X31000000Y-45500000D03*
X27000000Y-45500000D03*
G04 #@! TD*
G04 #@! TO.C,C5*
X41000000Y-34000000D03*
X37000000Y-34000000D03*
G04 #@! TD*
D11*
G04 #@! TO.C,C6*
X51000000Y-47500000D03*
X51000000Y-51500000D03*
G04 #@! TD*
D10*
G04 #@! TO.C,C7*
X47500000Y-30500000D03*
X51500000Y-30500000D03*
G04 #@! TD*
D11*
G04 #@! TO.C,C8*
X84500000Y-36500000D03*
X84500000Y-40500000D03*
G04 #@! TD*
G04 #@! TO.C,C9*
X84500000Y-46000000D03*
X84500000Y-50000000D03*
G04 #@! TD*
D10*
G04 #@! TO.C,C10*
X61500000Y-37000000D03*
X57500000Y-37000000D03*
G04 #@! TD*
D12*
G04 #@! TO.C,R1*
X27500000Y-34000000D03*
X31500000Y-34000000D03*
G04 #@! TD*
G04 #@! TO.C,R2*
X31000000Y-59500000D03*
X27000000Y-59500000D03*
G04 #@! TD*
G04 #@! TO.C,R3*
X31000000Y-51500000D03*
X27000000Y-51500000D03*
G04 #@! TD*
G04 #@! TO.C,R4*
X27000000Y-42500000D03*
X31000000Y-42500000D03*
G04 #@! TD*
G04 #@! TO.C,R5*
X41000000Y-37000000D03*
X37000000Y-37000000D03*
G04 #@! TD*
D13*
G04 #@! TO.C,R6*
X47500000Y-38500000D03*
X47500000Y-42500000D03*
G04 #@! TD*
G04 #@! TO.C,R7*
X47500000Y-51500000D03*
X47500000Y-47500000D03*
G04 #@! TD*
D12*
G04 #@! TO.C,R8*
X47500000Y-34000000D03*
X51500000Y-34000000D03*
G04 #@! TD*
G04 #@! TO.C,R9*
X56860700Y-52021500D03*
X60860700Y-52021500D03*
G04 #@! TD*
G04 #@! TO.C,R10*
X66360700Y-52021500D03*
X70360700Y-52021500D03*
G04 #@! TD*
D13*
G04 #@! TO.C,R11*
X81500000Y-40500000D03*
X81500000Y-36500000D03*
G04 #@! TD*
G04 #@! TO.C,R12*
X81500000Y-46000000D03*
X81500000Y-50000000D03*
G04 #@! TD*
D14*
G04 #@! TO.C,U1*
X62700000Y-42095000D03*
X62700000Y-43365000D03*
X62700000Y-44635000D03*
X62700000Y-45905000D03*
X57300000Y-45905000D03*
X57300000Y-44635000D03*
X57300000Y-43365000D03*
X57300000Y-42095000D03*
G04 #@! TD*
M02*
